SplineFontDB: 3.2
FontName: ComicRelief-Bold
FullName: Comic Relief Bold
FamilyName: Comic Relief
Weight: Bold
Copyright: Copyright 2013 The Comic Relief Project Authors (https://github.com/loudifier/Comic-Relief)
FontLog: "V1.0 17 JAN 2013+AAoA-- Initial release. Contains all glyphs necessary to replace Comic Sans MS Regular V5.0+AAoACgAA-V1.1 19 NOV 2013+AAoA-- Bold Variant added+AAoA-- Very minor changes+AAoA    - Highest/lowest points adjusted for better compatibility with Comic Sans MS+AAoA    - Crossbar of lowercase 't' raised slightly+AAoACgAA-V1.1.1 12 AUG 2017+AAoA-- Points removed from subscript '4'+AAoACgAA-V1.1.2 15 JUL 2023+AAoA-- Changed OS/2 Win Descent from -42 to 0 to get sources to compile with gftools+AAoA-- Several name table changes to pass Fontbakery Google Font errors+AAoACgAA-V1.2 3 FEB 2025 - Added to Google Fonts!+AAoA-- Added capital German double S, which extends Comic Relief slightly outside the character set of Comic Sans MS+AAoA-- Updated OS/2 metrics to meet Google Fonts requirements, or otherwise match Comic Sans MS 5.1+AAoA-- Adjusted width on bold non-breaking space to match regular space, mismatch in Comic Sans MS appears to be abug+AAoA-- Corrected dottlessj glyph name in bold font+AAoA-- Update copyright strings to match Google Fonts format"
Version: 1.200
ItalicAngle: 0
UnderlinePosition: -185
UnderlineWidth: 175
Ascent: 1638
Descent: 410
InvalidEm: 0
sfntRevision: 0x00010000
LayerCount: 2
Layer: 0 1 "Back" 1
Layer: 1 1 "Fore" 0
FSType: 0
OS2Version: 3
OS2_WeightWidthSlopeOnly: 0
OS2_UseTypoMetrics: 0
CreationTime: 1358538608
ModificationTime: 1739000489
PfmFamily: 65
TTFWeight: 700
TTFWidth: 5
LineGap: 0
VLineGap: 0
Panose: 3 15 9 2 3 3 2 2 2 4
OS2TypoAscent: 2160
OS2TypoAOffset: 0
OS2TypoDescent: -697
OS2TypoDOffset: 0
OS2TypoLinegap: 0
OS2WinAscent: 2257
OS2WinAOffset: 0
OS2WinDescent: 641
OS2WinDOffset: 0
HheadAscent: 2160
HheadAOffset: 0
HheadDescent: -697
HheadDOffset: 0
OS2SubXSize: 1434
OS2SubYSize: 1331
OS2SubXOff: 0

StartChar: glyph0
Encoding: 599 -1 0
Width: 1024
GlyphClass: 2
Flags: W
LayerCount: 2
Fore
SplineSet
302 1433 m 1,0,-1
 300 205 l 1,1,-1
 727 205 l 1,2,-1
 725 1433 l 1,3,-1
 302 1433 l 1,0,-1
85 1639 m 1,4,-1
 938 1642 l 1,5,-1
 938 2 l 1,6,-1
 89 2 l 1,7,-1
 85 1639 l 1,4,-1
EndSplineSet
Validated: 1
EndChar

StartChar: uni0237
Encoding: 330 567 1
Width: 826
GlyphClass: 2
Flags: W
LayerCount: 2
Fore
SplineSet
519 1047 m 0,0,1
 586 1047 586 1047 625 1007 c 128,-1,2
 664 967 664 967 662 900 c 2,3,-1
 646 -204 l 1,4,-1
 646 -210 l 2,5,6
 646 -397 646 -397 563 -499 c 128,-1,7
 480 -601 480 -601 320 -601 c 2,8,-1
 299 -601 l 1,9,10
 171 -596 171 -596 78 -533.5 c 128,-1,11
 -15 -471 -15 -471 -67 -355 c 0,12,13
 -114 -253 -114 -253 -114 -187 c 0,14,15
 -114 -143 -114 -143 -90.5 -110 c 128,-1,16
 -67 -77 -67 -77 -24 -66 c 0,17,18
 7 -58 7 -58 33 -58 c 0,19,20
 96 -58 96 -58 136 -100 c 128,-1,21
 176 -142 176 -142 191 -212 c 0,22,23
 203 -267 203 -267 229 -289.5 c 128,-1,24
 255 -312 255 -312 303 -312 c 0,25,26
 327 -312 327 -312 341 -290 c 128,-1,27
 355 -268 355 -268 357 -203 c 2,28,-1
 379 902 l 2,29,30
 380 967 380 967 417 1007 c 128,-1,31
 454 1047 454 1047 519 1047 c 0,0,1
EndSplineSet
Validated: 33
EndChar

StartChar: glyph2
Encoding: 600 -1 2
Width: 1333
GlyphClass: 2
Flags: W
LayerCount: 2
Fore
SplineSet
277 778 m 2,0,-1
 1053 780 l 2,1,2
 1093 780 1093 780 1125.5 774 c 128,-1,3
 1158 768 1158 768 1186.5 755 c 128,-1,4
 1215 742 1215 742 1231 718.5 c 0,5,6
 1248 695 1248 695 1248 661 c 0,7,8
 1248 628 1248 628 1232.5 604 c 128,-1,9
 1217 580 1217 580 1190 567 c 128,-1,10
 1163 554 1163 554 1131 548 c 128,-1,11
 1099 542 1099 542 1061 542 c 2,12,-1
 266 542 l 2,13,14
 202 542 202 542 160 571 c 128,-1,15
 118 600 118 600 118 658 c 0,16,17
 118 718 118 718 163 748 c 128,-1,18
 208 778 208 778 277 778 c 2,0,-1
EndSplineSet
Validated: 1
EndChar

StartChar: exclam
Encoding: 1 33 4
Width: 487
GlyphClass: 2
Flags: W
LayerCount: 2
Fore
SplineSet
190 257 m 4,0,1
 211 263 211 263 233 261 c 4,2,3
 255 261 255 261 276 256 c 4,4,5
 318 244 318 244 348 214 c 5,6,7
 385 180 385 180 394 136 c 4,8,9
 398 117 398 117 398 97 c 6,10,-1
 398 96 l 5,11,-1
 398 95 l 6,12,13
 398 69 398 69 394 53 c 4,14,15
 381 4 381 4 345 -29 c 4,16,17
 307 -63 307 -63 254 -70 c 4,18,19
 246 -71 246 -71 237 -72 c 6,20,-1
 234 -72 l 5,21,-1
 232 -72 l 6,22,23
 193 -72 193 -72 159 -55 c 4,24,25
 113 -33 113 -33 88 11 c 4,26,27
 66 50 66 50 66 95 c 4,28,29
 66 128 66 128 78 159 c 4,30,31
 93 195 93 195 123 221 c 5,32,33
 151 247 151 247 190 257 c 4,0,1
242 1610 m 2,34,35
 302 1610 302 1610 338 1574 c 128,-1,36
 374 1538 374 1538 374 1478 c 2,37,-1
 372 417 l 2,38,39
 372 359 372 359 335 327 c 0,40,41
 298 294 298 294 239 294 c 2,42,-1
 236 294 l 1,43,44
 179 293 179 293 145.5 329 c 128,-1,45
 112 365 112 365 112 423 c 2,46,-1
 110 1482 l 2,47,48
 110 1541 110 1541 145 1576 c 0,49,50
 179 1610 179 1610 239 1610 c 2,51,-1
 242 1610 l 2,34,35
EndSplineSet
Validated: 33
EndChar

StartChar: quotedbl
Encoding: 2 34 5
Width: 896
GlyphClass: 2
Flags: W
LayerCount: 2
Fore
SplineSet
229 1590 m 6,0,1
 288 1587 288 1587 323 1548.5 c 132,-1,2
 358 1510 358 1510 358 1449 c 6,3,-1
 358 1442 l 5,4,-1
 344 987 l 6,5,6
 342 926 342 926 309 888 c 132,-1,7
 276 850 276 850 218 850 c 6,8,-1
 216 850 l 6,9,10
 155 851 155 851 118.5 887.5 c 132,-1,11
 82 924 82 924 82 984 c 6,12,-1
 82 991 l 5,13,-1
 97 1438 l 6,14,15
 99 1505 99 1505 131 1547.5 c 132,-1,16
 163 1590 163 1590 223 1590 c 6,17,-1
 228 1590 l 5,18,-1
 229 1590 l 6,0,1
685 1586 m 6,19,20
 744 1583 744 1583 779 1544.5 c 132,-1,21
 814 1506 814 1506 814 1445 c 6,22,-1
 814 1438 l 5,23,-1
 800 983 l 6,24,25
 798 923 798 923 765 884.5 c 132,-1,26
 732 846 732 846 674 846 c 6,27,-1
 672 846 l 6,28,29
 612 846 612 846 575 883 c 4,30,31
 538 920 538 920 538 980 c 6,32,-1
 538 987 l 5,33,-1
 553 1434 l 6,34,35
 555 1500 555 1500 587 1544 c 4,36,37
 619 1586 619 1586 679 1586 c 6,38,-1
 684 1586 l 5,39,-1
 685 1586 l 6,19,20
EndSplineSet
Validated: 1
EndChar

StartChar: numbersign
Encoding: 3 35 6
Width: 1726
GlyphClass: 2
Flags: W
LayerCount: 2
Fore
SplineSet
59 1079 m 0,0,1
 60 1119 60 1119 86.5 1145 c 128,-1,2
 113 1171 113 1171 150.5 1181 c 128,-1,3
 188 1191 188 1191 237 1191 c 2,4,-1
 484 1191 l 1,5,-1
 563 1437 l 2,6,7
 566 1447 566 1447 567 1450 c 0,8,9
 587 1509 587 1509 630.5 1537 c 128,-1,10
 674 1565 674 1565 731 1547 c 0,11,12
 774 1533 774 1533 797 1501.5 c 128,-1,13
 820 1470 820 1470 821.5 1430 c 128,-1,14
 823 1390 823 1390 810 1343 c 1,15,-1
 759 1192 l 1,16,-1
 1167 1192 l 1,17,-1
 1246 1437 l 2,18,19
 1249 1447 1249 1447 1250 1450 c 0,20,21
 1270 1509 1270 1509 1313.5 1537 c 0,22,23
 1358 1565 1358 1565 1414 1547 c 0,24,25
 1457 1533 1457 1533 1480 1501.5 c 128,-1,26
 1503 1470 1503 1470 1504.5 1430 c 128,-1,27
 1506 1390 1506 1390 1493 1343 c 1,28,-1
 1442 1193 l 1,29,-1
 1568 1193 l 2,30,31
 1638 1193 1638 1193 1683 1161.5 c 128,-1,32
 1728 1130 1728 1130 1725 1070 c 0,33,34
 1722 1005 1722 1005 1672 972 c 128,-1,35
 1622 939 1622 939 1544 939 c 2,36,-1
 1364 939 l 1,37,-1
 1266 622 l 1,38,-1
 1471 622 l 2,39,40
 1541 622 1541 622 1586 591 c 128,-1,41
 1631 560 1631 560 1628 499 c 0,42,43
 1625 434 1625 434 1575 401.5 c 128,-1,44
 1525 369 1525 369 1447 369 c 0,45,46
 1318 369 1318 369 1188 370 c 1,47,-1
 1109 124 l 6,48,49
 1090 66 1090 66 1043 44 c 4,50,51
 995 21 995 21 934 40 c 4,52,53
 904 49 904 49 886 69.5 c 132,-1,54
 868 90 868 90 862.5 117 c 132,-1,55
 857 144 857 144 860 173 c 4,56,57
 863 207 863 207 872 235 c 6,58,-1
 917 370 l 1,59,-1
 506 371 l 1,60,-1
 426 124 l 6,61,62
 407 66 407 66 360 44 c 4,63,64
 312 21 312 21 251 40 c 4,65,66
 221 49 221 49 203 69.5 c 132,-1,67
 185 90 185 90 179.5 117 c 132,-1,68
 174 144 174 144 177 173 c 4,69,70
 180 206 180 206 189 235 c 6,71,-1
 234 372 l 1,72,-1
 95 372 l 2,73,74
 32 372 32 372 -4 409.5 c 128,-1,75
 -40 447 -40 447 -38 509 c 0,76,77
 -37 549 -37 549 -10.5 575 c 128,-1,78
 16 601 16 601 53.5 610.5 c 128,-1,79
 91 620 91 620 140 620 c 2,80,-1
 310 620 l 1,81,-1
 408 941 l 1,82,-1
 192 942 l 2,83,84
 129 942 129 942 93 980 c 128,-1,85
 57 1018 57 1018 59 1079 c 0,0,1
583 621 m 1,86,-1
 994 621 l 1,87,-1
 1090 940 l 1,88,-1
 682 941 l 1,89,-1
 583 621 l 1,86,-1
EndSplineSet
Validated: 33
EndChar

StartChar: dollar
Encoding: 4 36 7
Width: 1420
GlyphClass: 2
Flags: W
LayerCount: 2
Fore
SplineSet
606 1683 m 4,0,1
 647 1715 647 1715 712 1715 c 4,2,3
 775 1716 775 1716 815 1683 c 4,4,5
 855 1652 855 1652 854 1599 c 6,6,-1
 855 1485 l 5,7,8
 1026 1478 1026 1478 1212 1402 c 4,9,10
 1254 1384 1254 1384 1277.5 1349 c 132,-1,11
 1301 1314 1301 1314 1301 1270 c 4,12,13
 1301 1204 1301 1204 1216 1168 c 5,14,15
 1148 1143 1148 1143 1041 1180 c 4,16,17
 940 1214 940 1214 856 1222 c 5,18,-1
 856 859 l 5,19,20
 870 858 870 858 882 857 c 4,21,22
 1156 832 1156 832 1249 740 c 4,23,24
 1388 602 1388 602 1378 430 c 4,25,26
 1363 170 1363 170 1092 22 c 4,27,28
 988 -31 988 -31 856 -55 c 5,29,-1
 857 -211 l 6,30,31
 857 -277 857 -277 819.5 -319 c 132,-1,32
 782 -361 782 -361 712 -361 c 4,33,34
 644 -360 644 -360 607.5 -318 c 132,-1,35
 571 -276 571 -276 570 -210 c 4,36,37
 570 -143 570 -143 570 -75 c 5,38,39
 391 -71 391 -71 266 -26 c 4,40,41
 180 8 180 8 119 60 c 4,42,43
 17 145 17 145 33 241 c 4,44,45
 47 328 47 328 118 357 c 4,46,47
 210 394 210 394 316 289 c 4,48,49
 376 234 376 234 450 210 c 5,50,51
 510 192 510 192 569 185 c 5,52,-1
 567 597 l 5,53,54
 382 607 382 607 267 681 c 4,55,56
 162 755 162 755 127 889 c 4,57,58
 85 1054 85 1054 182 1215 c 4,59,60
 253 1333 253 1333 459 1418 c 4,61,62
 510 1439 510 1439 565 1453 c 5,63,-1
 565 1599 l 6,64,65
 565 1653 565 1653 606 1683 c 4,0,1
1070 484 m 4,66,67
 1047 560 1047 560 856 584 c 5,68,-1
 856 200 l 5,69,70
 940 225 940 225 977 258 c 4,71,72
 1105 369 1105 369 1070 484 c 4,66,67
548 883 m 5,73,-1
 567 882 l 5,74,-1
 566 1198 l 5,75,76
 545 1188 545 1188 527 1175 c 4,77,78
 439 1113 439 1113 430 1041 c 4,79,80
 422 965 422 965 449.5 929.5 c 132,-1,81
 477 894 477 894 548 883 c 5,73,-1
EndSplineSet
Validated: 33
EndChar

StartChar: percent
Encoding: 5 37 8
Width: 1680
GlyphClass: 2
Flags: W
LayerCount: 2
Fore
SplineSet
1086 1618 m 0,0,1
 1137 1630 1137 1630 1187 1604 c 1,2,3
 1238 1581 1238 1581 1256 1542 c 0,4,5
 1273 1504 1273 1504 1250 1456 c 2,6,-1
 585 -11 l 2,7,8
 562 -61 562 -61 506 -80 c 0,9,10
 454 -98 454 -98 395 -74 c 0,11,12
 337 -51 337 -51 319 -5 c 0,13,14
 302 39 302 39 327 92 c 2,15,-1
 1010 1561 l 2,16,17
 1031 1606 1031 1606 1086 1618 c 0,0,1
197 1528 m 0,18,19
 270 1598 270 1598 328 1619 c 0,20,21
 373 1634 373 1634 426 1638 c 0,22,23
 469 1641 469 1641 497 1640 c 0,24,25
 542 1640 542 1640 595 1615 c 0,26,27
 669 1580 669 1580 713 1511 c 0,28,29
 757 1443 757 1443 760 1365 c 0,30,31
 764 1287 764 1287 735 1210 c 0,32,33
 724 1179 724 1179 660 1095 c 0,34,35
 624 1048 624 1048 532 1020 c 0,36,37
 475 1002 475 1002 425 1002 c 0,38,39
 385 1002 385 1002 362 1009 c 0,40,41
 285 1029 285 1029 226 1080 c 0,42,43
 160 1135 160 1135 130 1222 c 0,44,45
 113 1272 113 1272 113 1320 c 0,46,47
 113 1353 113 1353 120 1383 c 0,48,49
 139 1473 139 1473 197 1528 c 0,18,19
427 1234 m 2,50,-1
 428 1234 l 2,51,52
 450 1234 450 1234 476 1246 c 0,53,54
 498 1254 498 1254 513 1278 c 0,55,56
 527 1299 527 1299 527 1312 c 2,57,-1
 527 1331 l 0,58,59
 525 1345 525 1345 517 1357 c 2,60,-1
 508 1371 l 1,61,-1
 508 1371 l 2,62,63
 492 1390 492 1390 482 1395 c 0,64,65
 457 1407 457 1407 453 1408 c 2,66,-1
 451 1409 l 1,67,-1
 450 1409 l 2,68,69
 440 1411 440 1411 427 1411 c 0,70,71
 392 1411 392 1411 375 1397 c 0,72,73
 351 1376 351 1376 340 1353 c 0,74,75
 333 1338 333 1338 334 1323 c 0,76,77
 334 1308 334 1308 338 1298 c 0,78,79
 356 1259 356 1259 368 1252 c 0,80,81
 400 1234 400 1234 427 1234 c 2,50,-1
967 549 m 1,82,83
 1039 624 1039 624 1138 657 c 0,84,85
 1204 678 1204 678 1274 678 c 0,86,87
 1311 678 1311 678 1346 672 c 0,88,89
 1453 654 1453 654 1527 590 c 0,90,91
 1604 524 1604 524 1637 431 c 0,92,93
 1659 369 1659 369 1659 303 c 0,94,95
 1659 272 1659 272 1654 240 c 1,96,97
 1636 137 1636 137 1570 60 c 0,98,99
 1501 -21 1501 -21 1405 -51 c 0,100,101
 1341 -72 1341 -72 1273 -72 c 0,102,103
 1230 -72 1230 -72 1190 -64 c 0,104,105
 1081 -43 1081 -43 999 27 c 0,106,107
 920 94 920 94 886 188 c 0,108,109
 866 244 866 244 867 304 c 0,110,111
 867 342 867 342 875 379 c 0,112,113
 897 478 897 478 967 549 c 1,82,83
1277 178 m 6,114,-1
 1278 178 l 6,115,116
 1316 178 1316 178 1348.5 196 c 132,-1,117
 1381 214 1381 214 1399 245 c 4,118,119
 1415 274 1415 274 1415 306 c 6,120,-1
 1415 312 l 5,121,122
 1413 348 1413 348 1393 376 c 4,123,124
 1379 396 1379 396 1355 411 c 4,125,126
 1333 425 1333 425 1306 431 c 4,127,128
 1292 434 1292 434 1277 434 c 4,129,130
 1236 434 1236 434 1203 413 c 4,131,132
 1164 389 1164 389 1147 350 c 4,133,134
 1138 328 1138 328 1138 306 c 4,135,136
 1138 287 1138 287 1144 270 c 4,137,138
 1157 229 1157 229 1194 203 c 4,139,140
 1231 178 1231 178 1277 178 c 6,114,-1
EndSplineSet
Validated: 37
EndChar

StartChar: ampersand
Encoding: 6 38 9
Width: 1340
GlyphClass: 2
Flags: W
LayerCount: 2
Fore
SplineSet
1292 95 m 2,0,1
 1316 47 1316 47 1305 3 c 0,2,3
 1293 -42 1293 -42 1247 -70 c 1,4,5
 1194 -100 1194 -100 1145 -86 c 0,6,7
 1097 -73 1097 -73 1062 -22 c 2,8,-1
 907 207 l 1,9,-1
 845 133 l 2,10,11
 698 -43 698 -43 483 -39 c 0,12,13
 343 -36 343 -36 239 23 c 0,14,15
 133 83 133 83 83 192 c 1,16,17
 31 305 31 305 55.5 416 c 128,-1,18
 80 527 80 527 176 631 c 2,19,-1
 438 915 l 1,20,-1
 392 984 l 2,21,22
 222 1240 222 1240 326 1404 c 0,23,24
 441 1587 441 1587 721 1572 c 0,25,26
 837 1566 837 1566 914 1511.5 c 128,-1,27
 991 1457 991 1457 1018 1359 c 0,28,29
 1066 1186 1066 1186 895 1000 c 2,30,-1
 784 878 l 1,31,-1
 924 662 l 1,32,-1
 996 752 l 2,33,34
 1038 804 1038 804 1094 814 c 0,35,36
 1149 824 1149 824 1205 787 c 1,37,38
 1261 748 1261 748 1263.5 690 c 128,-1,39
 1266 632 1266 632 1219 579 c 1,40,-1
 1082 416 l 1,41,-1
 1291 97 l 1,42,-1
 1292 95 l 2,0,1
628 1121 m 1,43,-1
 698 1196 l 2,44,45
 715 1214 715 1214 726.5 1230 c 128,-1,46
 738 1246 738 1246 743 1256.5 c 128,-1,47
 748 1267 748 1267 750 1275 c 128,-1,48
 752 1283 752 1283 751.5 1287 c 128,-1,49
 751 1291 751 1291 750 1293 c 0,50,51
 727 1327 727 1327 676 1324 c 0,52,53
 593 1320 593 1320 578 1278 c 0,54,55
 559 1227 559 1227 608 1152 c 2,56,-1
 628 1121 l 1,43,-1
597 674 m 1,57,-1
 498 566 l 2,58,59
 421 482 421 482 386 421.5 c 128,-1,60
 351 361 351 361 356 339 c 0,61,62
 366 285 366 285 396.5 259.5 c 128,-1,63
 427 234 427 234 487 230 c 0,64,65
 524 228 524 228 574 260 c 128,-1,66
 624 292 624 292 682 364 c 2,67,-1
 748 445 l 1,68,-1
 597 674 l 1,57,-1
EndSplineSet
Validated: 33
EndChar

StartChar: quotesingle
Encoding: 7 39 10
Width: 888
GlyphClass: 2
Flags: W
LayerCount: 2
Fore
SplineSet
441 1651 m 4,0,1
 505 1653 505 1653 541.5 1612 c 132,-1,2
 578 1571 578 1571 578 1503 c 6,3,-1
 578 1194 l 6,4,5
 578 1130 578 1130 544 1089 c 132,-1,6
 510 1048 510 1048 450 1048 c 4,7,8
 389 1047 389 1047 353.5 1087.5 c 132,-1,9
 318 1128 318 1128 317 1192 c 6,10,-1
 311 1500 l 6,11,12
 310 1565 310 1565 344 1606.5 c 132,-1,13
 378 1648 378 1648 441 1651 c 4,0,1
EndSplineSet
Validated: 33
EndChar

StartChar: parenleft
Encoding: 8 40 11
Width: 750
GlyphClass: 2
Flags: W
LayerCount: 2
Fore
SplineSet
602 -132 m 4,0,1
 670 -178 670 -178 703 -220 c 4,2,3
 740 -267 740 -267 734.5 -318.5 c 132,-1,4
 729 -370 729 -370 682 -407 c 4,5,6
 652 -429 652 -429 617.5 -432 c 132,-1,7
 583 -435 583 -435 545.5 -419 c 132,-1,8
 508 -403 508 -403 471.5 -377.5 c 132,-1,9
 435 -352 435 -352 393 -314 c 4,10,11
 224 -160 224 -160 156 56 c 4,12,13
 61 356 61 356 70 632 c 0,14,15
 79 909 79 909 199 1144 c 1,16,17
 286 1349 286 1349 405 1474 c 0,18,19
 423 1492 423 1492 439 1508 c 0,20,21
 605 1665 605 1665 697 1568 c 0,22,23
 803 1457 803 1457 589 1262 c 0,24,25
 442 1127 442 1127 390 842 c 0,26,27
 346 599 346 599 368 414 c 4,28,29
 419 -9 419 -9 602 -132 c 4,0,1
EndSplineSet
Validated: 33
EndChar

StartChar: parenright
Encoding: 9 41 12
Width: 750
GlyphClass: 2
Flags: W
LayerCount: 2
Fore
SplineSet
208 -137 m 4,0,1
 401 -7 401 -7 442 409 c 4,2,3
 463 635 463 635 420 839 c 0,4,5
 359 1132 359 1132 221 1259 c 0,6,7
 213 1266 213 1266 206 1273 c 0,8,9
 11 1458 11 1458 113 1565 c 0,10,11
 214 1671 214 1671 405 1471 c 1,12,13
 526 1341 526 1341 611 1141 c 1,14,15
 733 864 733 864 740 632 c 0,16,17
 749 342 749 342 654 51 c 4,18,19
 584 -167 584 -167 417 -319 c 4,20,21
 375 -357 375 -357 338.5 -382.5 c 132,-1,22
 302 -408 302 -408 264.5 -424 c 132,-1,23
 227 -440 227 -440 192.5 -437 c 132,-1,24
 158 -434 158 -434 128 -412 c 4,25,26
 106 -395 106 -395 92 -375 c 4,27,28
 18 -265 18 -265 208 -137 c 4,0,1
EndSplineSet
Validated: 33
EndChar

StartChar: asterisk
Encoding: 10 42 13
Width: 1085
GlyphClass: 2
Flags: W
LayerCount: 2
Fore
SplineSet
500 1635 m 0,0,1
 559 1634 559 1634 594.5 1597 c 128,-1,2
 630 1560 630 1560 630 1500 c 2,3,-1
 629 1332 l 1,4,-1
 782 1387 l 2,5,6
 842 1410 842 1410 892.5 1390 c 128,-1,7
 943 1370 943 1370 963 1311 c 0,8,9
 984 1254 984 1254 959 1209 c 128,-1,10
 934 1164 934 1164 877 1143 c 2,11,-1
 734 1090 l 1,12,-1
 844 979 l 2,13,14
 887 935 887 935 886 883.5 c 128,-1,15
 885 832 885 832 840 790 c 0,16,17
 796 750 796 750 745.5 751.5 c 128,-1,18
 695 753 695 753 653 796 c 2,19,-1
 495 958 l 1,20,-1
 342 803 l 2,21,22
 296 757 296 757 244 753 c 128,-1,23
 192 749 192 749 146 793 c 1,24,25
 103 837 103 837 105.5 887.5 c 128,-1,26
 108 938 108 938 152 983 c 2,27,-1
 256 1090 l 1,28,-1
 111 1142 l 2,29,30
 54 1163 54 1163 33 1210 c 128,-1,31
 12 1257 12 1257 34 1313 c 0,32,33
 56 1368 56 1368 103 1389 c 128,-1,34
 150 1410 150 1410 206 1389 c 2,35,-1
 366 1330 l 1,36,37
 366 1417 366 1417 366 1504 c 0,38,39
 365 1565 365 1565 402 1600.5 c 128,-1,40
 439 1636 439 1636 500 1635 c 0,0,1
EndSplineSet
Validated: 33
EndChar

StartChar: plus
Encoding: 11 43 14
Width: 1250
GlyphClass: 2
Flags: W
LayerCount: 2
Fore
SplineSet
651 1088 m 4,0,1
 711 1087 711 1087 745.5 1046.5 c 132,-1,2
 780 1006 780 1006 780 943 c 6,3,-1
 780 780 l 5,4,-1
 947 780 l 6,5,6
 1011 780 1011 780 1050.5 745 c 132,-1,7
 1090 710 1090 710 1090 649 c 4,8,9
 1090 589 1090 589 1050 554.5 c 132,-1,10
 1010 520 1010 520 946 520 c 6,11,-1
 780 518 l 5,12,-1
 780 319 l 6,13,14
 780 259 780 259 743 223 c 132,-1,15
 706 187 706 187 646 189 c 4,16,17
 585 190 585 190 549 226.5 c 132,-1,18
 513 263 513 263 515 324 c 6,19,-1
 516 515 l 5,20,-1
 322 514 l 6,21,22
 262 513 262 513 226.5 549.5 c 132,-1,23
 191 586 191 586 191 645 c 4,24,25
 191 706 191 706 228 742 c 132,-1,26
 265 778 265 778 325 778 c 6,27,-1
 518 779 l 5,28,29
 518 862 518 862 518 945 c 4,30,31
 518 1009 518 1009 553.5 1049 c 132,-1,32
 589 1089 589 1089 651 1088 c 4,0,1
EndSplineSet
Validated: 33
EndChar

StartChar: comma
Encoding: 12 44 15
Width: 888
GlyphClass: 2
Flags: W
LayerCount: 2
Fore
SplineSet
526 166 m 4,0,1
 575 141 575 141 589 94 c 132,-1,2
 603 47 603 47 579 -3 c 6,3,-1
 449 -284 l 6,4,5
 423 -342 423 -342 380 -369 c 132,-1,6
 337 -396 337 -396 285 -374 c 4,7,8
 234 -351 234 -351 220 -301.5 c 132,-1,9
 206 -252 206 -252 228 -200 c 5,10,-1
 344 92 l 6,11,12
 349 104 349 104 354 113 c 4,13,14
 380 164 380 164 428 178.5 c 132,-1,15
 476 193 476 193 526 166 c 4,0,1
EndSplineSet
Validated: 33
EndChar

StartChar: hyphen
Encoding: 13 45 16
Width: 1250
GlyphClass: 2
Flags: W
LayerCount: 2
Fore
SplineSet
374 662 m 6,0,-1
 854 664 l 6,1,2
 913 664 913 664 951.5 633 c 132,-1,3
 990 602 990 602 990 546 c 4,4,5
 990 490 990 490 953.5 458 c 132,-1,6
 917 426 917 426 859 426 c 6,7,-1
 368 426 l 6,8,9
 318 426 318 426 289 459.5 c 132,-1,10
 260 493 260 493 260 543 c 4,11,12
 260 596 260 596 291 629 c 132,-1,13
 322 662 322 662 374 662 c 6,0,-1
EndSplineSet
Validated: 1
EndChar

StartChar: period
Encoding: 14 46 17
Width: 888
GlyphClass: 2
Flags: W
LayerCount: 2
Fore
SplineSet
436 198 m 6,0,-1
 440 198 l 6,1,2
 486 198 486 198 524 176 c 4,3,4
 566 152 566 152 588 108 c 4,5,6
 606 72 606 72 606 31 c 6,7,-1
 606 19 l 5,8,-1
 606 17 l 6,9,10
 602 -31 602 -31 573 -70 c 4,11,12
 547 -104 547 -104 514 -119 c 5,13,14
 480 -136 480 -136 438 -136 c 5,15,-1
 432 -136 l 5,16,17
 390 -135 390 -135 354 -112 c 4,18,19
 318 -90 318 -90 296 -54 c 4,20,21
 272 -15 272 -15 272 31 c 4,22,23
 272 74 272 74 294 112 c 4,24,25
 316 149 316 149 350 173 c 5,26,27
 390 198 390 198 436 198 c 6,0,-1
EndSplineSet
Validated: 1
EndChar

StartChar: slash
Encoding: 15 47 18
Width: 1048
GlyphClass: 2
Flags: W
LayerCount: 2
Fore
SplineSet
947 1606 m 1,0,1
 994 1582 994 1582 1010 1540 c 0,2,3
 1027 1496 1027 1496 1006 1450 c 2,4,-1
 297 -9 l 2,5,6
 270 -64 270 -64 224 -82 c 0,7,8
 176 -101 176 -101 122 -77 c 0,9,10
 67 -53 67 -53 49 -4 c 0,11,12
 30 47 30 47 56 99 c 2,13,-1
 784 1559 l 2,14,15
 808 1608 808 1608 854 1620 c 0,16,17
 900 1632 900 1632 947 1606 c 1,0,1
EndSplineSet
Validated: 33
EndChar

StartChar: zero
Encoding: 16 48 19
Width: 1250
GlyphClass: 2
Flags: W
LayerCount: 2
Fore
SplineSet
806.5 1195 m 128,-1,1
 742 1243 742 1243 637 1243 c 0,2,3
 444 1243 444 1243 374.5 1124 c 128,-1,4
 305 1005 305 1005 305 747 c 0,5,6
 305 563 305 563 347 444.5 c 128,-1,7
 389 326 389 326 439 273.5 c 128,-1,8
 489 221 489 221 603 221 c 0,9,10
 719 221 719 221 791 275 c 128,-1,11
 863 329 863 329 905.5 450.5 c 128,-1,12
 948 572 948 572 948 761 c 0,13,14
 948 931 948 931 909.5 1039 c 128,-1,0
 871 1147 871 1147 806.5 1195 c 128,-1,1
175 1319 m 0,15,16
 340 1517 340 1517 688 1517 c 0,17,18
 929 1517 929 1517 1077 1323 c 0,19,20
 1222 1132 1222 1132 1222 759 c 0,21,22
 1222 360 1222 360 1070 157 c 0,23,24
 915 -50 915 -50 657 -50 c 0,25,26
 320 -50 320 -50 168 154 c 0,27,28
 18 353 18 353 18 744 c 0,29,30
 18 1131 18 1131 175 1319 c 0,15,16
EndSplineSet
Validated: 1
EndChar

StartChar: one
Encoding: 17 49 20
Width: 1250
GlyphClass: 2
Flags: W
LayerCount: 2
Fore
SplineSet
751 1460 m 0,0,1
 771 1424 771 1424 771 1372 c 2,2,-1
 765 220 l 1,3,-1
 831 220 l 2,4,5
 896 220 896 220 936.5 183.5 c 0,6,7
 977 146 977 146 977 84 c 128,-1,8
 977 22 977 22 937.5 -13 c 128,-1,9
 898 -48 898 -48 834 -48 c 2,10,-1
 371 -48 l 2,11,12
 312 -48 312 -48 275.5 -14 c 128,-1,13
 239 20 239 20 239 79 c 0,14,15
 240 144 240 144 278.5 182.5 c 128,-1,16
 317 221 317 221 381 221 c 2,17,-1
 509 221 l 1,18,-1
 512 1121 l 1,19,-1
 494 1101 l 2,20,21
 478 1083 478 1083 462 1064 c 0,22,23
 430 1027 430 1027 362 1032 c 0,24,25
 302 1036 302 1036 264 1084 c 0,26,27
 229 1130 229 1130 236 1178 c 0,28,29
 243 1227 243 1227 288 1265 c 2,30,-1
 489 1441 l 2,31,32
 580 1521 580 1521 668 1507 c 0,33,34
 730 1497 730 1497 751 1460 c 0,0,1
EndSplineSet
Validated: 33
EndChar

StartChar: two
Encoding: 18 50 21
Width: 1250
GlyphClass: 2
Flags: W
LayerCount: 2
Fore
SplineSet
158 -0.5 m 128,-1,1
 122 48 122 48 125 124 c 0,2,3
 131 327 131 327 282 537 c 1,4,5
 503 765 503 765 631 840 c 0,6,7
 749 909 749 909 798 962 c 0,8,9
 833 1000 833 1000 846 1098 c 0,10,11
 852 1144 852 1144 827 1180 c 0,12,13
 790 1232 790 1232 745 1244 c 0,14,15
 635 1271 635 1271 563 1244 c 0,16,17
 496 1219 496 1219 398 1123 c 0,18,19
 342 1069 342 1069 288 1060 c 0,20,21
 231 1050 231 1050 177 1090 c 1,22,23
 130 1126 130 1126 124.5 1173.5 c 128,-1,24
 119 1221 119 1221 157 1264 c 0,25,26
 282 1410 282 1410 365 1453 c 0,27,28
 492 1518 492 1518 702 1518 c 0,29,30
 871 1518 871 1518 956 1459 c 0,31,32
 1062 1386 1062 1386 1102 1304 c 0,33,34
 1145 1218 1145 1218 1143 1093 c 0,35,36
 1140 927 1140 927 1051 832 c 0,37,38
 937 712 937 712 849 653 c 0,39,40
 616 496 616 496 544 409 c 0,41,42
 450 299 450 299 423 225 c 1,43,-1
 1000 223 l 2,44,45
 1067 223 1067 223 1108 187 c 0,46,47
 1149 151 1149 151 1148 88 c 0,48,49
 1147 24 1147 24 1107 -13 c 0,50,51
 1067 -49 1067 -49 1001 -49 c 2,52,-1
 266 -49 l 2,53,0
 194 -49 194 -49 158 -0.5 c 128,-1,1
EndSplineSet
Validated: 33
EndChar

StartChar: three
Encoding: 19 51 22
Width: 1250
GlyphClass: 2
Flags: W
LayerCount: 2
Fore
SplineSet
589 679 m 1,0,1
 352 696 352 696 357 808 c 0,2,3
 359 847 359 847 386 877 c 0,4,5
 413 907 413 907 459 923 c 0,6,7
 582 965 582 965 681 986 c 0,8,9
 769 1004 769 1004 807 1039 c 128,-1,10
 845 1074 845 1074 838 1130 c 0,11,12
 831 1193 831 1193 776 1223 c 0,13,14
 717 1255 717 1255 620 1264 c 0,15,16
 552 1270 552 1270 474 1226 c 0,17,18
 396 1182 396 1182 350.5 1162.5 c 128,-1,19
 305 1143 305 1143 268 1147 c 0,20,21
 220 1152 220 1152 190.5 1182 c 128,-1,22
 161 1212 161 1212 157 1258 c 0,23,24
 153 1311 153 1311 183 1356 c 0,25,26
 215 1403 215 1403 270 1432 c 0,27,28
 468 1536 468 1536 641 1525 c 0,29,30
 906 1506 906 1506 1009 1362 c 0,31,32
 1093 1245 1093 1245 1097 1129 c 128,-1,33
 1101 1013 1101 1013 1024 904 c 0,34,35
 986 851 986 851 917 813 c 1,36,37
 936 803 936 803 956 789 c 0,38,39
 1160 666 1160 666 1117 351 c 0,40,41
 1093 181 1093 181 994 99 c 0,42,43
 848 -20 848 -20 781 -31 c 0,44,45
 441 -88 441 -88 244 43 c 0,46,47
 107 134 107 134 104 251 c 0,48,49
 102 307 102 307 132.5 345 c 128,-1,50
 163 383 163 383 220 389 c 0,51,52
 243 391 243 391 265 383 c 0,53,54
 291 374 291 374 311 354 c 0,55,56
 334 332 334 332 354 315 c 0,57,58
 389 284 389 284 410 261 c 0,59,60
 465 200 465 200 627 221 c 0,61,62
 758 237 758 237 813 288.5 c 128,-1,63
 868 340 868 340 861 431 c 0,64,65
 853 545 853 545 773 594 c 0,66,67
 671 656 671 656 589 679 c 1,0,1
EndSplineSet
Validated: 33
EndChar

StartChar: four
Encoding: 20 52 23
Width: 1250
GlyphClass: 2
Flags: W
LayerCount: 2
Fore
SplineSet
52 618 m 2,0,-1
 612 1409 l 2,1,2
 688 1516 688 1516 853 1515 c 0,3,4
 927 1514 927 1514 970 1474 c 0,5,6
 1011 1436 1011 1436 1011 1372 c 2,7,-1
 1011 654 l 1,8,-1
 1048 654 l 2,9,10
 1129 654 1129 654 1181 618.5 c 128,-1,11
 1233 583 1233 583 1235 513 c 0,12,13
 1236 443 1236 443 1185.5 407.5 c 0,14,15
 1136 372 1136 372 1054 372 c 2,16,-1
 1011 372 l 1,17,-1
 1011 88 l 2,18,19
 1011 28 1011 28 974 -9 c 0,20,21
 934 -50 934 -50 863 -50 c 0,22,23
 793 -49 793 -49 750 -8 c 0,24,25
 709 31 709 31 709 89 c 0,26,27
 708 230 708 230 708 371 c 1,28,-1
 146 370 l 2,29,30
 85 370 85 370 47 405 c 128,-1,31
 9 440 9 440 9 499 c 0,32,33
 9 557 9 557 52 618 c 2,0,-1
394 653 m 1,34,-1
 731 653 l 1,35,36
 731 863 731 863 732 1098 c 1,37,-1
 394 653 l 1,34,-1
EndSplineSet
Validated: 33
EndChar

StartChar: five
Encoding: 21 53 24
Width: 1250
GlyphClass: 2
Flags: W
LayerCount: 2
Fore
SplineSet
207 1476 m 0,0,1
 241 1499 241 1499 288 1500 c 2,2,-1
 1044 1504 l 6,3,4
 1111 1504 1111 1504 1152 1469 c 4,5,6
 1194 1433 1194 1433 1194 1370 c 4,7,8
 1195 1305 1195 1305 1155.5 1266 c 132,-1,9
 1116 1227 1116 1227 1050 1227 c 6,10,-1
 442 1227 l 1,11,-1
 411 1012 l 1,12,13
 562 1090 562 1090 640 1090 c 0,14,15
 648 1090 648 1090 656 1090 c 0,16,17
 945 1086 945 1086 1077 954 c 0,18,19
 1208 822 1208 822 1203 574 c 0,20,21
 1203 556 1203 556 1202 539 c 0,22,23
 1187 225 1187 225 1009 78 c 0,24,25
 822 -77 822 -77 484 -60 c 0,26,27
 240 -48 240 -48 116 154 c 0,28,29
 96 187 96 187 88 218.5 c 128,-1,30
 80 250 80 250 87.5 282 c 128,-1,31
 95 314 95 314 122 337 c 0,32,33
 128 343 128 343 135 347 c 0,34,35
 185 388 185 388 240 384 c 0,36,37
 292 380 292 380 335 329 c 0,38,39
 434 212 434 212 530 212 c 0,40,41
 691 212 691 212 796 299.5 c 128,-1,42
 901 387 901 387 919 574 c 0,43,44
 921 594 921 594 921 612 c 0,45,46
 920 712 920 712 838 771 c 0,47,48
 754 832 754 832 640 813 c 0,49,50
 549 798 549 798 470 727 c 2,51,-1
 469 726 l 1,52,-1
 468 725 l 2,53,54
 395 666 395 666 324 630 c 0,55,56
 263 598 263 598 214 599 c 0,57,58
 150 601 150 601 122 647.5 c 128,-1,59
 94 694 94 694 101 763 c 2,60,-1
 162 1411 l 1,61,-1
 163 1414 l 2,62,63
 172 1452 172 1452 207 1476 c 0,0,1
EndSplineSet
Validated: 33
EndChar

StartChar: six
Encoding: 22 54 25
Width: 1250
GlyphClass: 2
Flags: W
LayerCount: 2
Fore
SplineSet
94 432 m 0,0,1
 74 929 74 929 281 1174 c 0,2,3
 476 1404 476 1404 685 1497 c 0,4,5
 702 1505 702 1505 718 1510 c 0,6,7
 787 1534 787 1534 849 1513 c 0,8,9
 909 1493 909 1493 936 1434 c 1,10,11
 963 1337 963 1337 806 1263 c 0,12,13
 700 1213 700 1213 612 1131 c 0,14,15
 558 1079 558 1079 480 969 c 1,16,17
 643 994 643 994 692 994 c 0,18,19
 912 995 912 995 1042.5 862.5 c 128,-1,20
 1173 730 1173 730 1173 479 c 0,21,22
 1173 217 1173 217 1026 85 c 0,23,24
 874 -51 874 -51 614 -53 c 128,-1,25
 354 -55 354 -55 228 70 c 0,26,27
 104 194 104 194 94 432 c 0,0,1
836 650 m 0,28,29
 777 706 777 706 665 706 c 0,30,31
 518 706 518 706 444 647.5 c 128,-1,32
 370 589 370 589 370 458.5 c 128,-1,33
 370 328 370 328 432 266 c 0,34,35
 491 208 491 208 611 208 c 0,36,37
 727 208 727 208 812 271 c 128,-1,38
 897 334 897 334 897 469 c 0,39,40
 897 592 897 592 836 650 c 0,28,29
EndSplineSet
Validated: 33
EndChar

StartChar: seven
Encoding: 23 55 26
Width: 1250
GlyphClass: 2
Flags: W
LayerCount: 2
Fore
SplineSet
83 1267.5 m 0,0,1
 36 1302 36 1302 36 1370 c 0,2,3
 36 1437 36 1437 84 1473 c 0,4,5
 131 1508 131 1508 207 1509 c 2,6,-1
 1077 1512 l 6,7,8
 1151 1512 1151 1512 1204 1480 c 4,9,10
 1255 1449 1255 1449 1258 1387 c 4,11,12
 1261 1335 1261 1335 1236 1301 c 4,13,14
 1236 1301 1236 1301 1234 1298 c 6,15,-1
 565 41 l 2,16,17
 562 36 562 36 553 22 c 0,18,19
 510 -38 510 -38 449 -57 c 0,20,21
 389 -77 389 -77 321 -43 c 1,22,23
 257 -9 257 -9 244.5 48 c 128,-1,24
 232 105 232 105 268 165 c 1,25,-1
 855 1232 l 5,26,-1
 204 1232 l 2,27,28
 130 1232 130 1232 83 1267.5 c 0,0,1
EndSplineSet
Validated: 33
EndChar

StartChar: eight
Encoding: 24 56 27
Width: 1250
GlyphClass: 2
Flags: W
LayerCount: 2
Fore
SplineSet
259 1406 m 0,0,1
 394 1514 394 1514 621 1514 c 128,-1,2
 848 1514 848 1514 976 1408 c 0,3,4
 1098 1306 1098 1306 1098 1098 c 0,5,6
 1098 1001 1098 1001 1057.5 925.5 c 128,-1,7
 1017 850 1017 850 939 802 c 1,8,9
 1054 748 1054 748 1112 648.5 c 128,-1,10
 1170 549 1170 549 1170 410 c 0,11,12
 1170 184 1170 184 1025 71 c 0,13,14
 877 -44 877 -44 608 -44 c 0,15,16
 314 -44 314 -44 199 60 c 128,-1,17
 84 164 84 164 84 366 c 0,18,19
 84 668 84 668 281 789 c 1,20,21
 132 882 132 882 132 1092 c 0,22,23
 132 1304 132 1304 259 1406 c 0,0,1
771 1008 m 0,24,25
 827 1053 827 1053 825 1120 c 0,26,27
 824 1208 824 1208 775 1248 c 0,28,29
 726 1286 726 1286 652 1288 c 0,30,31
 639 1288 639 1288 628 1288 c 0,32,33
 505 1284 505 1284 464 1237.5 c 128,-1,34
 423 1191 423 1191 427 1089 c 0,35,36
 429 1026 429 1026 478.5 989 c 128,-1,37
 528 952 528 952 641 937 c 1,38,39
 722 970 722 970 771 1008 c 0,24,25
410 537 m 128,-1,41
 360 462 360 462 369 367 c 0,42,43
 379 257 379 257 440 208 c 0,44,45
 503 157 503 157 667 165 c 0,46,47
 760 170 760 170 820 224 c 128,-1,48
 880 278 880 278 880 392 c 0,49,50
 881 506 881 506 806 564 c 0,51,52
 712 637 712 637 617 672 c 1,53,40
 460 612 460 612 410 537 c 128,-1,41
EndSplineSet
Validated: 33
EndChar

StartChar: nine
Encoding: 25 57 28
Width: 1250
GlyphClass: 2
Flags: W
LayerCount: 2
Fore
SplineSet
654 341 m 0,0,1
 743 412 743 412 811 534 c 1,2,3
 641 476 641 476 575 476 c 0,4,5
 318 476 318 476 186 601 c 0,6,7
 57 726 57 726 57 964 c 0,8,9
 57 976 57 976 57 988 c 0,10,11
 63 1255 63 1255 211 1386 c 0,12,13
 363 1522 363 1522 642 1515 c 0,14,15
 897 1509 897 1509 1036.5 1352 c 128,-1,16
 1176 1195 1176 1195 1175 903 c 0,17,18
 1174 657 1174 657 1107 490 c 0,19,20
 944 85 944 85 417 -41 c 0,21,22
 335 -61 335 -61 276 -40 c 0,23,24
 221 -21 221 -21 199 36 c 0,25,26
 196 45 196 45 194 54 c 0,27,28
 180 108 180 108 209 147 c 128,-1,29
 238 186 238 186 298 199 c 0,30,31
 545 256 545 256 654 341 c 0,0,1
398 800 m 128,-1,33
 462 749 462 749 619 754 c 0,34,35
 638 755 638 755 656 756 c 0,36,37
 785 768 785 768 850 825 c 0,38,39
 914 881 914 881 904 991 c 0,40,41
 892 1128 892 1128 809 1214 c 0,42,43
 740 1285 740 1285 644 1289 c 0,44,45
 629 1290 629 1290 616 1289 c 0,46,47
 451 1289 451 1289 389.5 1216.5 c 128,-1,48
 328 1144 328 1144 328 985 c 0,49,50
 328 976 328 976 329 968 c 0,51,32
 334 851 334 851 398 800 c 128,-1,33
EndSplineSet
Validated: 33
EndChar

StartChar: less
Encoding: 28 60 31
Width: 1250
GlyphClass: 2
Flags: W
LayerCount: 2
Fore
SplineSet
306 727 m 6,0,-1
 688 1059 l 6,1,2
 693 1063 693 1063 698 1067 c 4,3,4
 748 1108 748 1108 803 1104 c 132,-1,5
 858 1100 858 1100 897 1050 c 4,6,7
 923 1018 923 1018 924.5 981.5 c 132,-1,8
 926 945 926 945 908 912.5 c 132,-1,9
 890 880 890 880 857 852 c 6,10,-1
 582 618 l 5,11,-1
 868 381 l 6,12,13
 914 343 914 343 916 290.5 c 132,-1,14
 918 238 918 238 878 194 c 4,15,16
 841 152 841 152 791 149.5 c 132,-1,17
 741 147 741 147 697 183 c 6,18,-1
 314 492 l 6,19,20
 280 519 280 519 261 546 c 132,-1,21
 242 573 242 573 242 605 c 4,22,23
 244 673 244 673 306 727 c 6,0,-1
EndSplineSet
Validated: 33
EndChar

StartChar: equal
Encoding: 29 61 32
Width: 1250
GlyphClass: 2
Flags: W
LayerCount: 2
Fore
SplineSet
325 1040 m 6,0,-1
 907 1042 l 6,1,2
 976 1042 976 1042 1020 1008 c 132,-1,3
 1064 974 1064 974 1064 910 c 132,-1,4
 1064 846 1064 846 1021.5 811 c 132,-1,5
 979 776 979 776 912 776 c 6,6,-1
 316 776 l 6,7,8
 260 776 260 776 227 812.5 c 132,-1,9
 194 849 194 849 194 906 c 4,10,11
 194 966 194 966 229.5 1003 c 132,-1,12
 265 1040 265 1040 325 1040 c 6,0,-1
316 498 m 6,13,-1
 898 500 l 6,14,15
 967 500 967 500 1010.5 466 c 132,-1,16
 1054 432 1054 432 1054 368 c 4,17,18
 1054 304 1054 304 1012.5 269 c 132,-1,19
 971 234 971 234 904 234 c 6,20,-1
 308 234 l 6,21,22
 252 234 252 234 219 270.5 c 132,-1,23
 186 307 186 307 186 364 c 4,24,25
 186 424 186 424 221.5 461 c 132,-1,26
 257 498 257 498 316 498 c 6,13,-1
EndSplineSet
Validated: 1
EndChar

StartChar: greater
Encoding: 30 62 33
Width: 1250
GlyphClass: 2
Flags: W
LayerCount: 2
Fore
SplineSet
957 755 m 6,0,1
 1018 701 1018 701 1020 633 c 4,2,3
 1020 601 1020 601 1001.5 574 c 132,-1,4
 983 547 983 547 949 520 c 6,5,-1
 566 211 l 6,6,7
 522 175 522 175 472 177.5 c 132,-1,8
 422 180 422 180 385 222 c 4,9,10
 344 267 344 267 346 319 c 132,-1,11
 348 371 348 371 395 409 c 6,12,-1
 681 646 l 5,13,-1
 406 880 l 6,14,15
 372 909 372 909 354.5 941 c 132,-1,16
 337 973 337 973 338.5 1009.5 c 132,-1,17
 340 1046 340 1046 366 1078 c 4,18,19
 408 1131 408 1131 466 1132 c 132,-1,20
 524 1133 524 1133 575 1087 c 5,21,-1
 957 755 l 6,0,1
EndSplineSet
Validated: 33
EndChar

StartChar: question
Encoding: 31 63 34
Width: 1159
GlyphClass: 2
Flags: W
LayerCount: 2
Fore
SplineSet
426 249 m 0,0,1
 446 254 446 254 467 253 c 0,2,3
 488 253 488 253 508 248 c 0,4,5
 548 236 548 236 578 207 c 1,6,7
 613 174 613 174 621 133 c 0,8,9
 624 115 624 115 626 96 c 2,10,-1
 626 95 l 1,11,-1
 626 93 l 2,12,13
 626 68 626 68 621 53 c 0,14,15
 608 6 608 6 574 -26 c 0,16,17
 537 -59 537 -59 487 -65 c 0,18,19
 479 -66 479 -66 470 -67 c 2,20,-1
 468 -67 l 1,21,-1
 466 -67 l 2,22,23
 429 -67 429 -67 396 -51 c 0,24,25
 352 -30 352 -30 328 12 c 0,26,27
 306 49 306 49 306 93 c 0,28,29
 306 125 306 125 318 155 c 0,30,31
 332 189 332 189 361 214 c 1,32,33
 389 239 389 239 426 249 c 0,0,1
194 1331 m 0,34,35
 319 1472 319 1472 587 1477 c 0,36,37
 766 1481 766 1481 873.5 1393 c 128,-1,38
 981 1305 981 1305 1005 1134 c 0,39,40
 1033 939 1033 939 975.5 813.5 c 128,-1,41
 918 688 918 688 773 648 c 0,42,43
 730 636 730 636 698.5 623 c 128,-1,44
 667 610 667 610 651.5 597.5 c 128,-1,45
 636 585 636 585 629.5 575.5 c 128,-1,46
 623 566 623 566 623 558 c 0,47,48
 618 329 618 329 494 321 c 0,49,50
 478 320 478 320 464 322 c 0,51,52
 412 328 412 328 382 365.5 c 128,-1,53
 352 403 352 403 346.5 457.5 c 128,-1,54
 341 512 341 512 348 580 c 1,55,56
 361 690 361 690 424.5 765.5 c 128,-1,57
 488 841 488 841 597 874 c 0,58,59
 682 900 682 900 712 950 c 128,-1,60
 742 1000 742 1000 725 1086 c 0,61,62
 715 1138 715 1138 683.5 1165.5 c 128,-1,63
 652 1193 652 1193 591 1200 c 0,64,65
 477 1214 477 1214 413 1158 c 0,66,67
 382 1130 382 1130 355 1111.5 c 128,-1,68
 328 1093 328 1093 298.5 1080 c 128,-1,69
 269 1067 269 1067 241.5 1069.5 c 128,-1,70
 214 1072 214 1072 190 1090 c 0,71,72
 186 1093 186 1093 182 1097 c 0,73,74
 146 1128 146 1128 137.5 1168.5 c 128,-1,75
 129 1209 129 1209 144 1250 c 128,-1,76
 159 1291 159 1291 194 1331 c 0,34,35
EndSplineSet
Validated: 33
EndChar

StartChar: at
Encoding: 32 64 35
Width: 1907
GlyphClass: 2
Flags: W
LayerCount: 2
Fore
SplineSet
1318 644 m 1,0,1
 1327 637 1327 637 1354 640 c 0,2,3
 1428 650 1428 650 1477 728 c 0,4,5
 1506 774 1506 774 1506 891 c 0,6,7
 1506 980 1506 980 1477 1055 c 1,8,9
 1450 1128 1450 1128 1387 1198 c 0,10,11
 1329 1262 1329 1262 1250 1305 c 0,12,13
 1105 1384 1105 1384 927 1384 c 0,14,15
 896 1384 896 1384 866 1381 c 0,16,17
 697 1367 697 1367 587 1276 c 0,18,19
 534 1232 534 1232 489 1168 c 1,20,21
 408 1048 408 1048 376 887 c 0,22,23
 359 801 359 801 357 716 c 0,24,25
 356 647 356 647 370 582 c 0,26,27
 403 408 403 408 514 284 c 0,28,29
 630 155 630 155 793 111 c 0,30,31
 864 92 864 92 937 92 c 0,32,33
 1014 92 1014 92 1113 120 c 0,34,35
 1161 133 1161 133 1284 184 c 0,36,37
 1330 203 1330 203 1370.5 205 c 128,-1,38
 1411 207 1411 207 1445.5 188 c 128,-1,39
 1480 169 1480 169 1500 129 c 0,40,41
 1530 65 1530 65 1507 11.5 c 128,-1,42
 1484 -42 1484 -42 1419 -77 c 0,43,44
 1296 -142 1296 -142 1073 -179 c 0,45,46
 1053 -182 1053 -182 916 -182 c 0,47,48
 802 -182 802 -182 646 -123 c 0,49,50
 521 -75 521 -75 410 13 c 1,51,52
 211 171 211 171 114 430 c 0,53,54
 72 545 72 545 72 761 c 0,55,56
 72 811 72 811 76 860 c 0,57,58
 91 1019 91 1019 153 1164 c 1,59,60
 216 1314 216 1314 322 1420 c 1,61,62
 458 1559 458 1559 649 1634 c 0,63,64
 741 1670 741 1670 931 1670 c 0,65,66
 970 1670 970 1670 1007 1666 c 0,67,68
 1176 1652 1176 1652 1297 1600 c 0,69,70
 1417 1549 1417 1549 1523 1459 c 1,71,72
 1696 1315 1696 1315 1764 1116 c 0,73,74
 1802 1005 1802 1005 1802 888 c 1,75,76
 1802 770 1802 770 1763 662 c 0,77,78
 1719 538 1719 538 1644 437 c 0,79,80
 1572 339 1572 339 1390 306 c 0,81,82
 1282 287 1282 287 1192 357 c 0,83,84
 1185 363 1185 363 1177 369 c 1,85,86
 1101 318 1101 318 993 304 c 0,87,88
 940 297 940 297 893 296 c 0,89,90
 695 291 695 291 585.5 385 c 128,-1,91
 476 479 476 479 472 663 c 0,92,93
 466 913 466 913 589 1059.5 c 128,-1,94
 712 1206 712 1206 956 1237 c 0,95,96
 1023 1246 1023 1246 1080 1233 c 1,97,98
 1113 1262 1113 1262 1165 1262 c 0,99,100
 1176 1262 1176 1262 1186 1261 c 0,101,102
 1237 1257 1237 1257 1268 1224.5 c 128,-1,103
 1299 1192 1299 1192 1294 1142 c 0,104,105
 1274 885 1274 885 1318 644 c 1,0,1
936 957 m 0,106,107
 830 946 830 946 780 882.5 c 128,-1,108
 730 819 730 819 730 688 c 0,109,110
 730 618 730 618 759 587.5 c 128,-1,111
 788 557 788 557 855 553 c 0,112,113
 973 547 973 547 1042 609 c 1,114,115
 1008 816 1008 816 1014 958 c 1,116,117
 976 962 976 962 936 957 c 0,106,107
EndSplineSet
Validated: 33
EndChar

StartChar: A
Encoding: 33 65 36
Width: 1498
GlyphClass: 2
Flags: W
LayerCount: 2
Fore
SplineSet
748 1529 m 0,0,1
 871 1529 871 1529 939 1346 c 2,2,-1
 1379 175 l 2,3,4
 1382 167 1382 167 1386 154 c 0,5,6
 1397 110 1397 110 1394.5 73 c 128,-1,7
 1392 36 1392 36 1369 7 c 0,8,9
 1346 -23 1346 -23 1306 -36 c 0,10,11
 1245 -55 1245 -55 1196 -17 c 0,12,13
 1137 28 1137 28 1112 91 c 6,14,-1
 960 463 l 5,15,-1
 530 463 l 1,16,-1
 378 91 l 2,17,18
 350 22 350 22 300 -16 c 0,19,20
 251 -54 251 -54 190 -36 c 0,21,22
 146 -22 146 -22 123 12 c 0,23,24
 100 44 100 44 100.5 85.5 c 128,-1,25
 101 127 101 127 116 175 c 1,26,-1
 555 1346 l 2,27,28
 624 1529 624 1529 748 1529 c 0,0,1
853 752 m 5,29,-1
 744 1044 l 5,30,-1
 633 750 l 5,31,-1
 853 752 l 5,29,-1
EndSplineSet
Validated: 33
EndChar

StartChar: B
Encoding: 34 66 37
Width: 1291
GlyphClass: 2
Flags: W
LayerCount: 2
Fore
SplineSet
536 1286 m 4,0,1
 484 1287 484 1287 432 1288 c 5,2,-1
 421 858 l 5,3,4
 575 846 575 846 666.5 867 c 132,-1,5
 758 888 758 888 790 933 c 4,6,7
 879 1057 879 1057 826 1157 c 4,8,9
 760 1280 760 1280 536 1286 c 4,0,1
200.5 1493 m 132,-1,11
 235 1528 235 1528 291 1528 c 4,12,13
 313 1528 313 1528 331 1524 c 5,14,15
 393 1532 393 1532 590 1515 c 4,16,17
 799 1497 799 1497 935 1419 c 4,18,19
 1062 1341 1062 1341 1110 1203 c 4,20,21
 1192 966 1192 966 1003 747 c 5,22,-1
 1002 747 l 5,23,24
 1024 737 1024 737 1038 726 c 4,25,26
 1170 626 1170 626 1211 499 c 132,-1,27
 1252 372 1252 372 1199 224 c 5,28,29
 1131 45 1131 45 843 -22 c 4,30,31
 546 -90 546 -90 272 -65 c 5,32,33
 264 -66 264 -66 254 -66 c 4,34,35
 195 -65 195 -65 163 -22 c 4,36,37
 131 18 131 18 133 81 c 6,38,-1
 164 1400 l 6,39,10
 166 1458 166 1458 200.5 1493 c 132,-1,11
621 576 m 4,40,41
 499 586 499 586 415 583 c 5,42,-1
 405 164 l 5,43,44
 488 161 488 161 565 169 c 4,45,46
 680 182 680 182 809 226 c 4,47,48
 934 269 934 269 950 347 c 4,49,50
 959 398 959 398 940 436 c 132,-1,51
 921 474 921 474 867 508 c 4,52,53
 779 562 779 562 621 576 c 4,40,41
EndSplineSet
Validated: 33
EndChar

StartChar: C
Encoding: 35 67 38
Width: 1267
GlyphClass: 2
Flags: W
LayerCount: 2
Fore
SplineSet
811 1225 m 0,0,1
 689 1249 689 1249 585 1189 c 0,2,3
 493 1135 493 1135 421 1027 c 0,4,5
 340 905 340 905 341 681 c 0,6,7
 341 471 341 471 434 344 c 4,8,9
 502 254 502 254 613 249 c 4,10,11
 790 241 790 241 881 294 c 4,12,13
 964 341 964 341 1017 361 c 4,14,15
 1067 381 1067 381 1108 373 c 4,16,17
 1171 361 1171 361 1198 310.5 c 132,-1,18
 1225 260 1225 260 1217 187 c 4,19,20
 1211 133 1211 133 1157 92 c 4,21,22
 1097 46 1097 46 1004 10 c 4,23,24
 835 -55 835 -55 625 -48 c 4,25,26
 344 -40 344 -40 194 153 c 4,27,28
 49 338 49 338 50 659 c 1,29,30
 50 1024 50 1024 183 1212 c 1,31,32
 389 1483 389 1483 637 1519 c 0,33,34
 874 1552 874 1552 1053 1467 c 0,35,36
 1116 1437 1116 1437 1157 1398 c 0,37,38
 1194 1364 1194 1364 1197 1320 c 0,39,40
 1202 1234 1202 1234 1152 1185 c 1,41,42
 1110 1146 1110 1146 1061 1141 c 0,43,44
 1015 1137 1015 1137 962 1168 c 0,45,46
 897 1207 897 1207 811 1225 c 0,0,1
EndSplineSet
Validated: 33
EndChar

StartChar: D
Encoding: 36 68 39
Width: 1478
GlyphClass: 2
Flags: W
LayerCount: 2
Fore
SplineSet
208.5 1474.5 m 0,0,1
 243 1508 243 1508 299 1508 c 0,2,3
 324 1508 324 1508 346 1503 c 1,4,5
 357 1502 357 1502 368 1500 c 0,6,7
 751 1460 751 1460 1043 1234 c 0,8,9
 1436 909 1436 909 1413 541 c 1,10,11
 1398 269 1398 269 1128 56 c 0,12,13
 988 -46 988 -46 602 -51 c 0,14,15
 389 -54 389 -54 299 -50 c 1,16,17
 283 -53 283 -53 263 -52 c 0,18,19
 204 -51 204 -51 172 -12.5 c 128,-1,20
 140 26 140 26 141 87 c 2,21,-1
 173 1386 l 2,22,23
 174 1442 174 1442 208.5 1474.5 c 0,0,1
876 1000 m 1,24,25
 704 1158 704 1158 444 1165 c 1,26,-1
 419 200 l 5,27,-1
 589 198 l 5,28,29
 757 202 757 202 856 228 c 4,30,31
 963 257 963 257 1007 309 c 4,32,33
 1125 446 1125 446 1128 563 c 0,34,35
 1133 779 1133 779 876 1000 c 1,24,25
EndSplineSet
Validated: 33
EndChar

StartChar: E
Encoding: 37 69 40
Width: 1279
GlyphClass: 2
Flags: W
LayerCount: 2
Fore
SplineSet
293 1504 m 1,0,1
 304 1505 304 1505 315 1506 c 2,2,-1
 1062 1510 l 2,3,4
 1145 1510 1145 1510 1196 1472 c 128,-1,5
 1247 1434 1247 1434 1249 1363 c 0,6,7
 1251 1299 1251 1299 1200 1267.5 c 128,-1,8
 1149 1236 1149 1236 1069 1236 c 0,9,10
 697 1234 697 1234 405 1232 c 1,11,-1
 397 976 l 1,12,-1
 944 979 l 2,13,14
 1034 979 1034 979 1085 941.5 c 128,-1,15
 1136 904 1136 904 1138 833 c 0,16,17
 1140 770 1140 770 1090 738 c 0,18,19
 1038 705 1038 705 952 705 c 2,20,-1
 390 703 l 1,21,-1
 376 234 l 5,22,-1
 1000 237 l 6,23,24
 1083 237 1083 237 1134 200 c 4,25,26
 1185 162 1185 162 1187 91 c 4,27,28
 1189 27 1189 27 1138 -4 c 4,29,30
 1087 -36 1087 -36 1007 -37 c 6,31,-1
 254 -40 l 6,32,33
 241 -40 241 -40 228 -39 c 5,34,-1
 215 -39 l 5,35,36
 153 -38 153 -38 118 1 c 4,37,38
 84 38 84 38 86 98 c 6,39,-1
 119 1387 l 2,40,41
 120 1442 120 1442 157.5 1474 c 128,-1,42
 195 1506 195 1506 255 1507 c 0,43,44
 276 1506 276 1506 293 1504 c 1,0,1
EndSplineSet
Validated: 33
EndChar

StartChar: F
Encoding: 38 70 41
Width: 1243
GlyphClass: 2
Flags: W
LayerCount: 2
Fore
SplineSet
161 1468 m 0,0,1
 199 1502 199 1502 257 1502 c 0,2,3
 278 1502 278 1502 296 1499 c 1,4,5
 306 1500 306 1500 317 1500 c 2,6,-1
 1011 1504 l 2,7,8
 1094 1504 1094 1504 1145 1466.5 c 128,-1,9
 1196 1429 1196 1429 1198 1358 c 0,10,11
 1200 1294 1200 1294 1149.5 1262.5 c 128,-1,12
 1099 1231 1099 1231 1018 1230 c 0,13,14
 713 1228 713 1228 408 1227 c 1,15,-1
 400 972 l 1,16,-1
 893 974 l 2,17,18
 983 974 983 974 1034 936 c 128,-1,19
 1085 898 1085 898 1087 828 c 0,20,21
 1089 765 1089 765 1038 733 c 128,-1,22
 987 701 987 701 900 700 c 2,23,-1
 393 698 l 1,24,-1
 376 91 l 6,25,26
 374 30 374 30 329 -8 c 4,27,28
 285 -44 285 -44 219 -42 c 4,29,30
 157 -41 157 -41 122 -3 c 4,31,32
 87 35 87 35 89 94 c 6,33,-1
 123 1382 l 2,34,35
 124 1436 124 1436 161 1468 c 0,0,1
EndSplineSet
Validated: 33
EndChar

StartChar: G
Encoding: 39 71 42
Width: 1392
GlyphClass: 2
Flags: W
LayerCount: 2
Fore
SplineSet
627 249 m 0,0,1
 812 239 812 239 938 334 c 0,2,3
 1038 409 1038 409 1068 537 c 1,4,-1
 764 534 l 2,5,6
 681 533 681 533 630 572 c 0,7,8
 579 611 579 611 576.5 682 c 128,-1,9
 574 753 574 753 632 790 c 0,10,11
 689 826 689 826 782 827 c 2,12,-1
 1267 835 l 2,13,14
 1275 835 1275 835 1284 834 c 0,15,16
 1341 830 1341 830 1371.5 790 c 128,-1,17
 1402 750 1402 750 1397 690 c 0,18,19
 1367 292 1367 292 1159 122 c 1,20,21
 946 -58 946 -58 626 -49 c 0,22,23
 338 -41 338 -41 176 167 c 0,24,25
 20 367 20 367 21 693 c 1,26,27
 21 996 21 996 180 1225 c 0,28,29
 344 1461 344 1461 638 1509 c 1,30,31
 935 1554 935 1554 1129 1448 c 0,32,33
 1221 1398 1221 1398 1277 1342 c 0,34,35
 1330 1290 1330 1290 1346 1233 c 1,36,37
 1363 1180 1363 1180 1350 1131 c 128,-1,38
 1337 1082 1337 1082 1294 1052 c 0,39,40
 1197 983 1197 983 1044 1131 c 0,41,42
 957 1215 957 1215 799 1221 c 0,43,44
 704 1225 704 1225 592 1172 c 0,45,46
 473 1117 473 1117 402 996 c 0,47,48
 317 852 317 852 318 716 c 0,49,50
 318 478 318 478 407 373 c 0,51,52
 507 256 507 256 627 249 c 0,0,1
EndSplineSet
Validated: 33
EndChar

StartChar: H
Encoding: 40 72 43
Width: 1573
GlyphClass: 2
Flags: W
LayerCount: 2
Fore
SplineSet
183.5 1478.5 m 4,0,1
 221 1512 221 1512 281 1514 c 5,2,3
 347 1514 347 1514 390 1478 c 4,4,5
 434 1441 434 1441 433 1378 c 6,6,-1
 418 882 l 1,7,-1
 1201 882 l 1,8,-1
 1216 1384 l 6,9,10
 1218 1440 1218 1440 1257 1477 c 4,11,12
 1294 1512 1294 1512 1353 1514 c 5,13,14
 1419 1514 1419 1514 1459.5 1477 c 132,-1,15
 1500 1440 1500 1440 1498 1377 c 6,16,-1
 1467 92 l 2,17,18
 1465 27 1465 27 1425 -9 c 0,19,20
 1383 -48 1383 -48 1315 -46 c 0,21,22
 1256 -45 1256 -45 1215 -4 c 0,23,24
 1177 34 1177 34 1179 93 c 2,25,-1
 1193 588 l 1,26,-1
 411 588 l 1,27,-1
 397 91 l 2,28,29
 395 31 395 31 350.5 -8 c 128,-1,30
 306 -47 306 -47 241 -46 c 0,31,32
 179 -45 179 -45 144 -4 c 0,33,34
 110 34 110 34 112 96 c 2,35,-1
 145 1385 l 6,36,37
 146 1444 146 1444 183.5 1478.5 c 4,0,1
EndSplineSet
Validated: 33
EndChar

StartChar: I
Encoding: 41 73 44
Width: 1119
GlyphClass: 2
Flags: W
LayerCount: 2
Fore
SplineSet
130.5 1466 m 4,0,1
 180 1501 180 1501 258 1501 c 6,2,-1
 910 1501 l 6,3,4
 984 1501 984 1501 1029 1461.5 c 132,-1,5
 1074 1422 1074 1422 1075 1351 c 4,6,7
 1076 1282 1076 1282 1028.5 1245.5 c 4,8,9
 982 1209 982 1209 904 1209 c 6,10,-1
 708 1209 l 5,11,-1
 678 250 l 1,12,-1
 896 250 l 2,13,14
 970 250 970 250 1015 210.5 c 128,-1,15
 1060 171 1060 171 1061 100 c 0,16,17
 1062 31 1062 31 1014.5 -5.5 c 0,18,19
 968 -42 968 -42 890 -42 c 2,20,-1
 236 -42 l 2,21,22
 159 -42 159 -42 113 -1 c 128,-1,23
 67 40 67 40 67 114 c 0,24,25
 67 182 67 182 117 216 c 0,26,27
 166 250 166 250 245 250 c 2,28,-1
 357 250 l 1,29,-1
 387 1209 l 5,30,-1
 250 1209 l 6,31,32
 174 1209 174 1209 127.5 1250 c 4,33,34
 81 1292 81 1292 81 1364 c 4,35,36
 81 1432 81 1432 130.5 1466 c 4,0,1
EndSplineSet
Validated: 33
EndChar

StartChar: J
Encoding: 42 74 45
Width: 1362
GlyphClass: 2
Flags: W
LayerCount: 2
Fore
SplineSet
360 1473 m 0,0,1
 415 1506 415 1506 501 1506 c 2,2,-1
 1173 1506 l 2,3,4
 1246 1506 1246 1506 1292 1468 c 128,-1,5
 1338 1430 1338 1430 1339 1361 c 0,6,7
 1340 1293 1340 1293 1292 1259 c 0,8,9
 1245 1224 1245 1224 1167 1224 c 2,10,-1
 1035 1224 l 1,11,-1
 1035 346 l 2,12,13
 1035 327 1035 327 1034 309 c 0,14,15
 1024 122 1024 122 905 27.5 c 128,-1,16
 786 -67 786 -67 574 -58 c 0,17,18
 558 -57 558 -57 543 -56 c 0,19,20
 305 -40 305 -40 188 58 c 0,21,22
 46 174 46 174 59 377 c 0,23,24
 63 437 63 437 103 471 c 128,-1,25
 143 505 143 505 205 506 c 1,26,27
 265 505 265 505 307 468.5 c 128,-1,28
 349 432 349 432 349 370 c 0,29,30
 349 332 349 332 398 276 c 0,31,32
 441 225 441 225 573 225 c 0,33,34
 652 225 652 225 683.5 251 c 0,35,36
 715 278 715 278 715 340 c 2,37,-1
 715 1224 l 1,38,-1
 491 1224 l 2,39,40
 407 1224 407 1224 356 1263 c 0,41,42
 307 1302 307 1302 307 1374 c 0,43,44
 307 1440 307 1440 360 1473 c 0,0,1
EndSplineSet
Validated: 33
EndChar

StartChar: K
Encoding: 43 75 46
Width: 1251
GlyphClass: 2
Flags: W
LayerCount: 2
Fore
SplineSet
273 1521 m 1,0,1
 339 1521 339 1521 383 1495 c 0,2,3
 428 1469 428 1469 427 1425 c 2,4,-1
 414 897 l 1,5,-1
 918 1454 l 2,6,7
 953 1493 953 1493 1033 1498 c 0,8,9
 1090 1501 1090 1501 1141 1465 c 1,10,11
 1189 1432 1189 1432 1190 1393 c 0,12,13
 1191 1309 1191 1309 1144 1260 c 2,14,-1
 613 703 l 1,15,-1
 1166 238 l 2,16,17
 1177 229 1177 229 1186 217 c 0,18,19
 1228 163 1228 163 1234 97 c 0,20,21
 1237 61 1237 61 1197 31 c 1,22,23
 1147 -3 1147 -3 1089 -0 c 0,24,25
 1017 4 1017 4 974 41 c 2,26,-1
 407 526 l 5,27,-1
 391 45 l 2,28,29
 389 -1 389 -1 343 -31 c 0,30,31
 301 -58 301 -58 233 -57 c 0,32,33
 168 -56 168 -56 136 -30 c 0,34,35
 102 -2 102 -2 104 49 c 2,36,-1
 137 1432 l 2,37,38
 138 1472 138 1472 176 1496 c 0,39,40
 213 1520 213 1520 273 1521 c 1,0,1
EndSplineSet
Validated: 33
EndChar

StartChar: L
Encoding: 44 76 47
Width: 1128
GlyphClass: 2
Flags: W
LayerCount: 2
Fore
SplineSet
214 -44 m 1,0,-1
 193 -44 l 2,1,2
 132 -44 132 -44 96 -3 c 0,3,4
 62 36 62 36 63 99 c 2,5,-1
 96 1411 l 2,6,7
 97 1467 97 1467 134.5 1500.5 c 128,-1,8
 172 1534 172 1534 232 1535 c 1,9,10
 298 1535 298 1535 343 1500 c 0,11,12
 389 1465 389 1465 387 1404 c 2,13,-1
 354 235 l 1,14,-1
 990 249 l 6,15,16
 1055 250 1055 250 1093.5 212 c 132,-1,17
 1132 174 1132 174 1132 111 c 4,18,19
 1132 51 1132 51 1095 10 c 4,20,21
 1058 -30 1058 -30 994 -31 c 6,22,-1
 214 -44 l 1,0,-1
EndSplineSet
Validated: 33
EndChar

StartChar: M
Encoding: 45 77 48
Width: 1808
GlyphClass: 2
Flags: W
LayerCount: 2
Fore
SplineSet
873 -19 m 0,0,1
 741 -12 741 -12 693 144 c 1,2,-1
 532 816 l 1,3,-1
 367 65 l 2,4,5
 357 21 357 21 336 -6 c 0,6,7
 312 -36 312 -36 258 -45 c 0,8,9
 209 -53 209 -53 161 -32 c 1,10,11
 96 -4 96 -4 80 46 c 0,12,13
 60 110 60 110 82 197 c 1,14,-1
 344 1355 l 2,15,16
 358 1419 358 1419 406 1462 c 0,17,18
 445 1497 445 1497 515 1504 c 0,19,20
 586 1510 586 1510 630 1487 c 0,21,22
 683 1459 683 1459 694 1410 c 2,23,-1
 894 545 l 1,24,-1
 1139 1360 l 2,25,26
 1163 1440 1163 1440 1221 1487 c 0,27,28
 1267 1525 1267 1525 1347 1523 c 0,29,30
 1494 1520 1494 1520 1526 1353 c 2,31,-1
 1762 120 l 6,32,33
 1765 103 1765 103 1768 86 c 4,34,35
 1777 22 1777 22 1745 -16 c 4,36,37
 1718 -48 1718 -48 1648 -53 c 4,38,39
 1567 -60 1567 -60 1520 -22 c 4,40,41
 1461 25 1461 25 1447 107 c 6,42,-1
 1314 848 l 1,43,-1
 1082 156 l 2,44,45
 1052 65 1052 65 995 16 c 0,46,47
 951 -23 951 -23 873 -19 c 0,0,1
EndSplineSet
Validated: 33
EndChar

StartChar: N
Encoding: 46 78 49
Width: 1665
GlyphClass: 2
Flags: W
LayerCount: 2
Fore
SplineSet
1277 469 m 1,0,-1
 1304 1446 l 2,1,2
 1305 1483 1305 1483 1345 1509 c 0,3,4
 1382 1533 1382 1533 1442 1533 c 1,5,6
 1508 1533 1508 1533 1548 1508 c 0,7,8
 1588 1483 1588 1483 1587 1438 c 2,9,-1
 1556 89 l 2,10,11
 1555 41 1555 41 1513 14 c 0,12,13
 1471 -12 1471 -12 1402 -11 c 0,14,15
 1308 -8 1308 -8 1273 31 c 2,16,-1
 380 1035 l 1,17,-1
 358 58 l 2,18,19
 357 12 357 12 312 -16 c 0,20,21
 270 -43 270 -43 203 -42 c 0,22,23
 138 -41 138 -41 106 -15 c 0,24,25
 72 13 72 13 73 62 c 2,26,-1
 107 1415 l 2,27,28
 108 1454 108 1454 145 1478 c 0,29,30
 182 1501 182 1501 241 1502 c 0,31,32
 360 1504 360 1504 398 1460 c 6,33,-1
 1277 469 l 1,0,-1
EndSplineSet
Validated: 33
EndChar

StartChar: O
Encoding: 47 79 50
Width: 1635
GlyphClass: 2
Flags: W
LayerCount: 2
Fore
SplineSet
1212 1140.5 m 132,-1,1
 1125 1229 1125 1229 937 1241 c 4,2,3
 730 1254 730 1254 577 1118 c 4,4,5
 344 910 344 910 344 589 c 4,6,7
 344 421 344 421 444 325 c 4,8,9
 563 211 563 211 770 211 c 4,10,11
 967 211 967 211 1077 334 c 4,12,13
 1291 572 1291 572 1296 874 c 4,14,0
 1299 1052 1299 1052 1212 1140.5 c 132,-1,1
320 1270 m 4,15,16
 545 1511 545 1511 929 1507 c 4,17,18
 1256 1504 1256 1504 1413 1342 c 4,19,20
 1567 1184 1567 1184 1567 874 c 4,21,22
 1566 458 1566 458 1330 185 c 4,23,24
 1116 -62 1116 -62 770 -62 c 4,25,26
 416 -62 416 -62 209 160 c 4,27,28
 64 316 64 316 63 587 c 4,29,30
 64 996 64 996 320 1270 c 4,15,16
EndSplineSet
Validated: 33
EndChar

StartChar: P
Encoding: 48 80 51
Width: 1091
GlyphClass: 2
Flags: W
LayerCount: 2
Fore
SplineSet
130 1519 m 128,-1,1
 167 1554 167 1554 226 1554 c 0,2,3
 249 1554 249 1554 270 1550 c 1,4,5
 408 1572 408 1572 554 1562 c 0,6,7
 728 1549 728 1549 844 1449 c 0,8,9
 977 1333 977 1333 1000 1240 c 0,10,11
 1078 927 1078 927 909 719 c 0,12,13
 837 631 837 631 667 581 c 0,14,15
 561 549 561 549 380 538 c 0,16,17
 371 537 371 537 361 537 c 1,18,-1
 346 100 l 2,19,20
 344 35 344 35 297 -7 c 0,21,22
 252 -46 252 -46 187 -44 c 0,23,24
 125 -43 125 -43 90 -2 c 0,25,26
 55 39 55 39 57 103 c 2,27,-1
 91 1425 l 2,28,0
 93 1484 93 1484 130 1519 c 128,-1,1
494 1284 m 0,29,30
 444 1283 444 1283 378 1279 c 1,31,-1
 366 821 l 1,32,33
 619 799 619 799 699 918 c 0,34,35
 786 1046 786 1046 719 1157 c 1,36,37
 638 1286 638 1286 494 1284 c 0,29,30
EndSplineSet
Validated: 33
EndChar

StartChar: Q
Encoding: 49 81 52
Width: 1795
GlyphClass: 2
Flags: W
LayerCount: 2
Fore
SplineSet
356 1258 m 4,0,1
 596 1510 596 1510 1005 1505 c 4,2,3
 1353 1501 1353 1501 1522 1333 c 4,4,5
 1687 1168 1687 1168 1686 860 c 4,6,7
 1685 509 1685 509 1433 223 c 0,8,9
 1428 218 1428 218 1423 212 c 1,10,-1
 1552 91 l 2,11,12
 1588 57 1588 57 1608 19 c 0,13,14
 1628 -18 1628 -18 1625.5 -57 c 128,-1,15
 1623 -96 1623 -96 1593 -129 c 0,16,17
 1560 -165 1560 -165 1519 -174 c 128,-1,18
 1478 -183 1478 -183 1438 -168 c 0,19,20
 1394 -153 1394 -153 1352 -118 c 2,21,-1
 1174 34 l 1,22,23
 1020 -35 1020 -35 835 -35 c 0,24,25
 461 -35 461 -35 237 200 c 0,26,27
 82 362 82 362 82 594 c 0,28,29
 82 970 82 970 356 1258 c 4,0,1
1307 1121 m 4,30,31
 1214 1213 1214 1213 1014 1225 c 4,32,33
 792 1239 792 1239 630 1097 c 4,34,35
 381 878 381 878 381 596 c 0,36,37
 381 470 381 470 488 370 c 0,38,39
 615 251 615 251 835 251 c 0,40,41
 876 251 876 251 914 256 c 1,42,-1
 819 336 l 2,43,44
 796 356 796 356 781 375 c 0,45,46
 738 430 738 430 750.5 484.5 c 128,-1,47
 763 539 763 539 823 581 c 0,48,49
 927 651 927 651 1068 525 c 2,50,-1
 1194 414 l 1,51,52
 1394 648 1394 648 1397 860 c 4,53,54
 1399 1030 1399 1030 1307 1121 c 4,30,31
EndSplineSet
Validated: 33
EndChar

StartChar: R
Encoding: 50 82 53
Width: 1311
GlyphClass: 2
Flags: W
LayerCount: 2
Fore
SplineSet
372 576 m 17,0,-1
 364 89 l 2,1,2
 363 24 363 24 316 -18 c 0,3,4
 272 -57 272 -57 206 -55 c 0,5,6
 144 -54 144 -54 109 -13 c 0,7,8
 74 28 74 28 76 92 c 2,9,-1
 110 1408 l 2,10,11
 112 1467 112 1467 149 1502 c 128,-1,12
 186 1537 186 1537 245 1537 c 0,13,14
 268 1537 268 1537 289 1533 c 1,15,16
 365 1541 365 1541 561 1529 c 0,17,18
 818 1512 818 1512 920 1435 c 0,19,20
 1063 1325 1063 1325 1107 1216 c 0,21,22
 1165 1068 1165 1068 1141 961 c 0,23,24
 1116 856 1116 856 1043 766 c 0,25,26
 938 638 938 638 758 615 c 1,27,-1
 1166 236 l 2,28,29
 1198 207 1198 207 1218 172 c 0,30,31
 1240 135 1240 135 1235 101 c 0,32,33
 1230 70 1230 70 1204 38 c 0,34,35
 1178 7 1178 7 1143 -11 c 0,36,37
 1037 -63 1037 -63 869 98 c 10,38,-1
 372 576 l 17,0,-1
505 1272 m 0,39,40
 450 1273 450 1273 395 1274 c 1,41,-1
 387 825 l 1,42,43
 704 804 704 804 803 931 c 0,44,45
 853 996 853 996 857 1047 c 128,-1,46
 861 1098 861 1098 821 1157 c 0,47,48
 748 1266 748 1266 505 1272 c 0,39,40
EndSplineSet
Validated: 33
EndChar

StartChar: S
Encoding: 51 83 54
Width: 1420
GlyphClass: 2
Flags: W
LayerCount: 2
Fore
SplineSet
135 909 m 0,0,1
 91 1075 91 1075 190 1228 c 0,2,3
 272 1353 272 1353 465 1430 c 0,4,5
 651 1503 651 1503 832 1497 c 0,6,7
 1010 1491 1010 1491 1128 1443 c 0,8,9
 1207 1411 1207 1411 1257 1371 c 0,10,11
 1302 1335 1302 1335 1304 1287 c 0,12,13
 1306 1251 1306 1251 1285 1222 c 128,-1,14
 1264 1193 1264 1193 1226 1175 c 0,15,16
 1204 1165 1204 1165 1175.5 1165.5 c 128,-1,17
 1147 1166 1147 1166 1119 1172 c 0,18,19
 1090 1179 1090 1179 1049 1193 c 0,20,21
 903 1241 903 1241 793 1235 c 0,22,23
 623 1226 623 1226 536 1168 c 0,24,25
 446 1109 446 1109 438 1042 c 0,26,27
 430 970 430 970 458 936.5 c 128,-1,28
 486 903 486 903 558 894 c 0,29,30
 623 886 623 886 888 879 c 0,31,32
 1145 872 1145 872 1257 764 c 0,33,34
 1396 630 1396 630 1386 461 c 0,35,36
 1370 191 1370 191 1100 59 c 0,37,38
 893 -41 893 -41 623 -42 c 0,39,40
 413 -43 413 -43 274 13 c 0,41,42
 192 46 192 46 126 99 c 0,43,44
 29 180 29 180 40 257 c 0,45,46
 46 297 46 297 69 326.5 c 128,-1,47
 92 356 92 356 131 366 c 0,48,49
 209 386 209 386 316 302 c 0,50,51
 377 254 377 254 475 235 c 0,52,53
 610 209 610 209 720 225 c 0,54,55
 919 255 919 255 984 308 c 0,56,57
 1113 413 1113 413 1078 520 c 0,58,59
 1063 567 1063 567 959.5 596 c 128,-1,60
 856 625 856 625 654 622 c 0,61,62
 430 619 430 619 299 691 c 0,63,64
 174 759 174 759 135 909 c 0,0,1
EndSplineSet
Validated: 33
EndChar

StartChar: T
Encoding: 52 84 55
Width: 1425
GlyphClass: 2
Flags: W
LayerCount: 2
Fore
SplineSet
71 1471.5 m 0,0,1
 120 1504 120 1504 198 1504 c 2,2,-1
 1258 1504 l 2,3,4
 1334 1504 1334 1504 1382.5 1468 c 128,-1,5
 1431 1432 1431 1432 1432 1364 c 0,6,7
 1433 1297 1433 1297 1384 1263 c 128,-1,8
 1335 1229 1335 1229 1258 1229 c 2,9,-1
 896 1228 l 1,10,-1
 865 92 l 2,11,12
 863 25 863 25 818 -13 c 128,-1,13
 773 -51 773 -51 698 -50 c 0,14,15
 631 -49 631 -49 593 -8 c 128,-1,16
 555 33 555 33 557 95 c 2,17,-1
 590 1227 l 1,18,19
 354 1226 354 1226 190 1226 c 0,20,21
 114 1226 114 1226 67.5 1264.5 c 0,22,23
 21 1304 21 1304 21 1374 c 0,24,25
 21 1440 21 1440 71 1471.5 c 0,0,1
EndSplineSet
Validated: 33
EndChar

StartChar: U
Encoding: 53 85 56
Width: 1509
GlyphClass: 2
Flags: W
LayerCount: 2
Fore
SplineSet
1163 1436 m 0,0,1
 1200 1490 1200 1490 1271 1489 c 0,2,3
 1348 1488 1348 1488 1385 1428 c 0,4,5
 1421 1368 1421 1368 1418 1271 c 2,6,-1
 1405 785 l 2,7,8
 1394 360 1394 360 1244 170 c 0,9,10
 1077 -41 1077 -41 730 -40 c 0,11,12
 430 -39 430 -39 258 177 c 0,13,14
 82 399 82 399 89 805 c 2,15,-1
 97 1261 l 2,16,17
 98 1316 98 1316 105 1354 c 0,18,19
 113 1396 113 1396 130.5 1430 c 128,-1,20
 148 1464 148 1464 178 1483 c 128,-1,21
 208 1502 208 1502 250 1502 c 0,22,23
 303 1502 303 1502 337.5 1471.5 c 128,-1,24
 372 1441 372 1441 385 1394 c 0,25,26
 399 1345 399 1345 399 1285 c 2,27,-1
 391 819 l 2,28,29
 391 804 391 804 391 777 c 0,30,31
 395 492 395 492 478 377 c 0,32,33
 584 228 584 228 734 230 c 0,34,35
 927 233 927 233 1024 377 c 0,36,37
 1106 498 1106 498 1113 808 c 2,38,-1
 1123 1294 l 2,39,40
 1125 1380 1125 1380 1163 1436 c 0,0,1
EndSplineSet
Validated: 33
EndChar

StartChar: V
Encoding: 54 86 57
Width: 1382
GlyphClass: 2
Flags: W
LayerCount: 2
Fore
SplineSet
615 -39 m 1,0,-1
 614 -38 l 2,1,2
 502 -1 502 -1 443 173 c 2,3,-1
 98 1204 l 6,4,5
 72 1282 72 1282 71 1355 c 4,6,7
 71 1425 71 1425 109 1468 c 4,8,9
 148 1511 148 1511 214 1511 c 4,10,11
 260 1511 260 1511 298 1484 c 4,12,13
 335 1458 335 1458 352 1410 c 6,14,-1
 663 523 l 1,15,-1
 975 1410 l 6,16,17
 991 1456 991 1456 1028 1484 c 4,18,19
 1062 1511 1062 1511 1112 1511 c 4,20,21
 1139 1511 1139 1511 1161 1505 c 4,22,23
 1314 1460 1314 1460 1229 1205 c 6,24,-1
 884 173 l 2,25,26
 824 -7 824 -7 710 -39 c 0,27,28
 663 -52 663 -52 616 -39 c 2,29,-1
 615 -39 l 1,0,-1
EndSplineSet
Validated: 33
EndChar

StartChar: W
Encoding: 55 87 58
Width: 2129
GlyphClass: 2
Flags: W
LayerCount: 2
Fore
SplineSet
1460 -55 m 6,0,1
 1356 -21 1356 -21 1302 131 c 6,2,-1
 1074 858 l 5,3,-1
 846 132 l 6,4,5
 818 49 818 49 779 -1 c 4,6,7
 740 -42 740 -42 683 -54 c 4,8,9
 641 -65 641 -65 598 -54 c 4,10,11
 540 -42 540 -42 502 -0 c 4,12,13
 464 50 464 50 436 132 c 6,14,-1
 100 1239 l 6,15,16
 74 1334 74 1334 73 1401 c 4,17,18
 72 1456 72 1456 110 1489 c 4,19,20
 147 1518 147 1518 215 1519 c 4,21,22
 264 1519 264 1519 300 1500 c 4,23,24
 336 1480 336 1480 351 1447 c 6,25,-1
 641 485 l 5,26,-1
 931 1447 l 6,27,28
 945 1481 945 1481 982 1500 c 4,29,30
 1019 1519 1019 1519 1072 1519 c 4,31,32
 1126 1519 1126 1519 1164 1500 c 4,33,34
 1203 1480 1203 1480 1217 1446 c 6,35,-1
 1506 484 l 5,36,-1
 1796 1445 l 5,37,38
 1812 1479 1812 1479 1848 1499 c 4,39,40
 1883 1518 1883 1518 1932 1518 c 4,41,42
 1958 1518 1958 1518 1979 1514 c 4,43,44
 2123 1477 2123 1477 2047 1238 c 6,45,-1
 1711 131 l 6,46,47
 1683 48 1683 48 1644 -2 c 4,48,49
 1606 -43 1606 -43 1549 -55 c 4,50,51
 1507 -66 1507 -66 1464 -55 c 6,52,-1
 1462 -54 l 5,53,-1
 1460 -55 l 6,0,1
EndSplineSet
Validated: 33
EndChar

StartChar: X
Encoding: 56 88 59
Width: 1482
GlyphClass: 2
Flags: W
LayerCount: 2
Fore
SplineSet
138 1498 m 0,0,1
 247 1557 247 1557 379 1408 c 2,2,-1
 730 997 l 1,3,-1
 1081 1408 l 2,4,5
 1214 1557 1214 1557 1323 1498 c 0,6,7
 1337 1491 1337 1491 1349 1483 c 0,8,9
 1397 1457 1397 1457 1401 1420 c 0,10,11
 1405 1353 1405 1353 1366 1292 c 1,12,-1
 925 755 l 1,13,-1
 1401 165 l 2,14,15
 1438 106 1438 106 1433 42 c 0,16,17
 1428 7 1428 7 1382 -18 c 1,18,19
 1332 -51 1332 -51 1276 -48 c 0,20,21
 1221 -46 1221 -46 1179 -10 c 2,22,-1
 730 542 l 1,23,-1
 281 -10 l 2,24,25
 240 -47 240 -47 185 -49 c 0,26,27
 129 -51 129 -51 79 -18 c 1,28,29
 33 6 33 6 28 42 c 0,30,31
 23 107 23 107 59 165 c 2,32,-1
 536 755 l 1,33,-1
 94 1292 l 2,34,35
 85 1307 85 1307 78 1322 c 0,36,37
 48 1383 48 1383 65 1437 c 0,38,39
 83 1473 83 1473 138 1498 c 0,0,1
EndSplineSet
Validated: 33
EndChar

StartChar: Y
Encoding: 57 89 60
Width: 1301
GlyphClass: 2
Flags: W
LayerCount: 2
Fore
SplineSet
1187 1496 m 4,0,1
 1246 1474 1246 1474 1260 1441 c 4,2,3
 1281 1392 1281 1392 1254 1334 c 6,4,-1
 636 47 l 6,5,6
 609 -10 609 -10 528 -38 c 4,7,8
 459 -62 459 -62 379 -30 c 4,9,10
 256 20 256 20 355 207 c 6,11,-1
 519 520 l 5,12,-1
 30 1313 l 6,13,14
 -5 1370 -5 1370 9 1430 c 4,15,16
 17 1464 17 1464 72 1490 c 5,17,18
 132 1520 132 1520 188 1508 c 4,19,20
 258 1492 258 1492 286 1446 c 6,21,-1
 682 799 l 5,22,-1
 988 1441 l 6,23,24
 989 1443 989 1443 994 1451 c 4,25,26
 1027 1492 1027 1492 1079 1506 c 4,27,28
 1126 1519 1126 1519 1187 1496 c 4,0,1
EndSplineSet
Validated: 33
EndChar

StartChar: Z
Encoding: 58 90 61
Width: 1420
GlyphClass: 2
Flags: W
LayerCount: 2
Fore
SplineSet
1409 1338 m 0,0,1
 1409 1255.32 1409 1255.32 1324 1164 c 2,2,-1
 477 254 l 1,3,-1
 1244 251 l 2,4,5
 1320.32 250.701 1320.32 250.701 1364 210 c 0,6,7
 1409 169 1409 169 1409 95 c 0,8,9
 1409 25 1409 25 1363 -14 c 0,10,11
 1317.68 -52.4267 1317.68 -52.4267 1242 -52 c 2,12,-1
 178 -46 l 2,13,14
 103.515 -45.58 103.515 -45.58 59 -7 c 0,15,16
 14 32 14 32 14 102 c 0,17,18
 14 178.906 14 178.906 65 235 c 2,19,-1
 936 1193 l 1,20,-1
 194 1197 l 2,21,22
 119.537 1197.4 119.537 1197.4 75 1236 c 0,23,24
 30 1274 30 1274 30 1344 c 0,25,26
 30 1415 30 1415 73 1457 c 0,27,28
 116.29 1498.28 116.29 1498.28 189 1498 c 2,29,-1
 1244 1494 l 2,30,31
 1320.31 1493.71 1320.31 1493.71 1364 1453 c 0,32,33
 1410 1411 1410 1411 1409 1338 c 0,0,1
EndSplineSet
EndChar

StartChar: bracketleft
Encoding: 59 91 62
Width: 771
GlyphClass: 2
Flags: W
LayerCount: 2
Fore
SplineSet
578 1514 m 6,0,1
 638 1514 638 1514 672 1475 c 4,2,3
 706 1435 706 1435 706 1372 c 4,4,5
 706 1308 706 1308 665 1271 c 132,-1,6
 624 1234 624 1234 555 1234 c 6,7,-1
 419 1234 l 5,8,-1
 399 -139 l 1,9,10
 504 -138 504 -138 609 -137 c 0,11,12
 671 -136 671 -136 707.5 -175.5 c 128,-1,13
 744 -215 744 -215 744 -279 c 128,-1,14
 744 -343 744 -343 701.5 -378.5 c 128,-1,15
 659 -414 659 -414 592 -414 c 0,16,17
 374 -414 374 -414 274 -413 c 0,18,19
 205 -412 205 -412 168.5 -365.5 c 128,-1,20
 132 -319 132 -319 133 -244 c 2,21,-1
 145 1346 l 6,22,23
 146 1419 146 1419 182.5 1465 c 4,24,25
 219 1512 219 1512 286 1512 c 6,26,-1
 578 1514 l 6,0,1
EndSplineSet
Validated: 33
EndChar

StartChar: backslash
Encoding: 60 92 63
Width: 1126
GlyphClass: 2
Flags: W
LayerCount: 2
Fore
SplineSet
157 1607 m 5,0,1
 204 1633 204 1633 250 1621 c 4,2,3
 296 1609 296 1609 320 1560 c 6,4,-1
 1047 101 l 2,5,6
 1073 48 1073 48 1056 -1 c 0,7,8
 1038 -49 1038 -49 983 -74 c 0,9,10
 928 -99 928 -99 880 -80 c 0,11,12
 835 -63 835 -63 807 -7 c 2,13,-1
 98 1451 l 6,14,15
 76 1496 76 1496 94 1541 c 4,16,17
 110 1583 110 1583 157 1607 c 5,0,1
EndSplineSet
Validated: 33
EndChar

StartChar: bracketright
Encoding: 61 93 64
Width: 771
GlyphClass: 2
Flags: W
LayerCount: 2
Fore
SplineSet
231 1518 m 6,0,-1
 523 1516 l 6,1,2
 590 1516 590 1516 627 1471 c 4,3,4
 664 1425 664 1425 664 1351 c 6,5,-1
 676 -243 l 2,6,7
 677 -318 677 -318 640.5 -364.5 c 128,-1,8
 604 -411 604 -411 536 -412 c 0,9,10
 235 -417 235 -417 214 -416 c 1,11,12
 147 -416 147 -416 106.5 -379 c 128,-1,13
 66 -342 66 -342 66 -278 c 128,-1,14
 66 -214 66 -214 101.5 -174.5 c 128,-1,15
 137 -135 137 -135 199 -136 c 0,16,17
 304 -137 304 -137 410 -138 c 1,18,-1
 390 1239 l 5,19,-1
 254 1240 l 6,20,21
 186 1240 186 1240 144 1276 c 4,22,23
 102 1312 102 1312 102 1377 c 4,24,25
 102 1440 102 1440 137 1480 c 4,26,27
 170 1518 170 1518 231 1518 c 6,0,-1
EndSplineSet
Validated: 33
EndChar

StartChar: asciicircum
Encoding: 62 94 65
Width: 1250
GlyphClass: 2
Flags: W
LayerCount: 2
Fore
SplineSet
612 1649 m 5,0,1
 674 1650 674 1650 731 1587 c 6,2,-1
 1009 1281 l 6,3,4
 1036 1251 1036 1251 1049.5 1219.5 c 132,-1,5
 1063 1188 1063 1188 1059 1154.5 c 132,-1,6
 1055 1121 1055 1121 1029 1094 c 4,7,8
 1023 1088 1023 1088 1016 1082 c 4,9,10
 969 1039 969 1039 916 1042 c 132,-1,11
 863 1045 863 1045 821 1091 c 6,12,-1
 612 1319 l 5,13,-1
 405 1091 l 6,14,15
 400 1086 400 1086 396 1082 c 4,16,17
 349 1038 349 1038 295.5 1042 c 132,-1,18
 242 1046 242 1046 195 1094 c 5,19,20
 169 1122 169 1122 165.5 1155.5 c 132,-1,21
 162 1189 162 1189 175.5 1220 c 132,-1,22
 189 1251 189 1251 217 1281 c 6,23,-1
 493 1586 l 6,24,25
 550 1650 550 1650 612 1649 c 5,0,1
EndSplineSet
Validated: 33
EndChar

StartChar: underscore
Encoding: 63 95 66
Width: 1284
GlyphClass: 2
Flags: W
LayerCount: 2
Fore
SplineSet
1366 -118 m 1,0,-1
 1366 -388 l 1,1,-1
 -78 -388 l 1,2,-1
 -78 -118 l 1,3,-1
 1366 -118 l 1,0,-1
EndSplineSet
Validated: 1
EndChar

StartChar: grave
Encoding: 64 96 67
Width: 1139
GlyphClass: 2
Flags: W
LayerCount: 2
Fore
SplineSet
160 1630 m 5,0,1
 207 1669 207 1669 260 1664.5 c 132,-1,2
 313 1660 313 1660 351 1613 c 6,3,-1
 559 1352 l 6,4,5
 589 1314 589 1314 604.5 1279 c 132,-1,6
 620 1244 620 1244 616.5 1206.5 c 132,-1,7
 613 1169 613 1169 584 1141 c 4,8,9
 554 1111 554 1111 516.5 1109.5 c 132,-1,10
 479 1108 479 1108 445 1127.5 c 132,-1,11
 411 1147 411 1147 379 1182 c 6,12,-1
 142 1442 l 6,13,14
 137 1447 137 1447 133 1453 c 4,15,16
 98 1499 98 1499 106 1546.5 c 132,-1,17
 114 1594 114 1594 160 1630 c 5,0,1
EndSplineSet
Validated: 33
EndChar

StartChar: a
Encoding: 65 97 68
Width: 1138
GlyphClass: 2
Flags: W
LayerCount: 2
Fore
SplineSet
832 31 m 5,0,1
 643 -55 643 -55 548 -56 c 4,2,3
 296 -56 296 -56 180 68 c 4,4,5
 65 192 65 192 64 428 c 4,6,7
 61 737 61 737 265 908 c 4,8,9
 522 1097 522 1097 809 1026 c 5,10,11
 854 1047 854 1047 912 1032 c 4,12,13
 980 1016 980 1016 1011 965.5 c 132,-1,14
 1042 915 1042 915 1030 843 c 4,15,16
 1010 731 1010 731 1005 456 c 4,17,18
 1002 245 1002 245 1049 162 c 4,19,20
 1078 112 1078 112 1085 74 c 4,21,22
 1094 26 1094 26 1071 -8 c 4,23,24
 1048 -45 1048 -45 1001 -55 c 4,25,26
 945 -68 945 -68 901 -45 c 4,27,28
 855 -23 855 -23 832 31 c 5,0,1
501 165 m 4,29,30
 583 160 583 160 653 185 c 4,31,32
 680 194 680 194 753 250 c 5,33,34
 721 631 721 631 759 802 c 5,35,36
 686 835 686 835 608 817 c 4,37,38
 539 801 539 801 500 773 c 4,39,40
 332 656 332 656 323 442 c 5,41,42
 325 300 325 300 369 235.5 c 132,-1,43
 413 171 413 171 501 165 c 4,29,30
EndSplineSet
Validated: 33
EndChar

StartChar: b
Encoding: 66 98 69
Width: 1215
GlyphClass: 2
Flags: W
LayerCount: 2
Fore
SplineSet
154 1573 m 0,0,1
 188 1610 188 1610 244 1610 c 0,2,3
 306 1610 306 1610 347 1572 c 0,4,5
 389 1534 389 1534 388 1468 c 2,6,-1
 378 993 l 1,7,8
 482 1045 482 1045 581 1045 c 0,9,10
 838 1045 838 1045 991.5 872.5 c 128,-1,11
 1145 700 1145 700 1130 430 c 0,12,13
 1119 227 1119 227 972 84 c 1,14,15
 823 -49 823 -49 623 -50 c 0,16,17
 488 -51 488 -51 336 27 c 1,18,19
 299 -45 299 -45 208 -43 c 0,20,21
 151 -42 151 -42 118 1 c 0,22,23
 86 41 86 41 87 103 c 2,24,-1
 119 1475 l 2,25,26
 120 1536 120 1536 154 1573 c 0,0,1
361 292 m 1,27,28
 530 176 530 176 617 187 c 0,29,30
 743 203 743 203 802 275 c 1,31,32
 879 372 879 372 881 476 c 0,33,34
 884 611 884 611 801 716 c 0,35,36
 762 766 762 766 632 800 c 4,37,38
 506 832 506 832 370 710 c 1,39,-1
 361 292 l 1,27,28
EndSplineSet
Validated: 33
EndChar

StartChar: c
Encoding: 67 99 70
Width: 1052
GlyphClass: 2
Flags: W
LayerCount: 2
Fore
SplineSet
538 201 m 4,0,1
 670 197 670 197 780 264 c 4,2,3
 785 267 785 267 790 270 c 4,4,5
 841 300 841 300 888.5 286 c 132,-1,6
 936 272 936 272 967 219 c 4,7,8
 1013 139 1013 139 911 48 c 5,9,10
 800 -49 800 -49 536 -48 c 4,11,12
 317 -47 317 -47 185 74 c 4,13,14
 34 223 34 223 33 447 c 4,15,16
 33 688 33 688 140 844 c 4,17,18
 273 1037 273 1037 515 1052 c 4,19,20
 652 1062 652 1062 765 1027 c 5,21,22
 888 985 888 985 932 915 c 4,23,24
 954 880 954 880 961 846.5 c 132,-1,25
 968 813 968 813 957 781.5 c 132,-1,26
 946 750 946 750 916 728 c 4,27,28
 850 680 850 680 736 763 c 4,29,30
 629 832 629 832 491 794 c 4,31,32
 416 774 416 774 353 696 c 4,33,34
 279 604 279 604 276 484 c 4,35,36
 273 374 273 374 351 282 c 5,37,38
 418 205 418 205 538 201 c 4,0,1
EndSplineSet
Validated: 33
EndChar

StartChar: d
Encoding: 68 100 71
Width: 1203
GlyphClass: 2
Flags: W
LayerCount: 2
Fore
SplineSet
894 1572 m 0,0,1
 930 1609 930 1609 990 1610 c 1,2,3
 1057 1610 1057 1610 1096.5 1571.5 c 128,-1,4
 1136 1533 1136 1533 1135 1468 c 2,5,-1
 1104 100 l 2,6,7
 1103 36 1103 36 1062 -4 c 0,8,9
 1021 -44 1021 -44 952 -43 c 0,10,11
 870 -41 870 -41 832 21 c 1,12,13
 676 -51 676 -51 572 -50 c 0,14,15
 374 -49 374 -49 219 84 c 1,16,17
 59 232 59 232 50 431 c 1,18,19
 39 711 39 711 190 872 c 0,20,21
 357 1051 357 1051 611 1052 c 0,22,23
 682 1052 682 1052 810 988 c 0,24,25
 824 981 824 981 837 974 c 1,26,-1
 851 1475 l 2,27,28
 853 1531 853 1531 894 1572 c 0,0,1
578 198 m 0,29,30
 665 185 665 185 818 291 c 1,31,32
 829 481 829 481 830 693 c 1,33,34
 682 822 682 822 586 810 c 4,35,36
 463 796 463 796 400 724 c 0,37,38
 320 636 320 636 316 474 c 0,39,40
 314 387 314 387 400 276 c 0,41,42
 445 219 445 219 578 198 c 0,29,30
EndSplineSet
Validated: 33
EndChar

StartChar: e
Encoding: 69 101 72
Width: 1145
GlyphClass: 2
Flags: W
LayerCount: 2
Fore
SplineSet
915 489 m 2,0,-1
 282 396 l 1,1,2
 294 341 294 341 364 284 c 0,3,4
 466 202 466 202 592 203 c 0,5,6
 784 205 784 205 840 264 c 0,7,8
 877 303 877 303 904.5 325.5 c 128,-1,9
 932 348 932 348 961 354 c 0,10,11
 993 361 993 361 1021 348 c 128,-1,12
 1049 335 1049 335 1063 306 c 0,13,14
 1089 249 1089 249 1076 195 c 128,-1,15
 1063 141 1063 141 1015 97 c 0,16,17
 862 -45 862 -45 580 -43 c 0,18,19
 363 -41 363 -41 219 77 c 0,20,21
 47 219 47 219 46 475 c 0,22,23
 46 681 46 681 153 839 c 0,24,25
 290 1041 290 1041 539 1055 c 0,26,27
 797 1069 797 1069 930 938 c 0,28,29
 1052 818 1052 818 1046 655 c 0,30,31
 1044 587 1044 587 1010 542.5 c 128,-1,32
 976 498 976 498 915 489 c 2,0,-1
361 725 m 0,33,34
 348 706 348 706 319 647 c 5,35,-1
 798 719 l 1,36,37
 779 758 779 758 737 784 c 0,38,39
 658 832 658 832 570 832 c 0,40,41
 438 832 438 832 361 725 c 0,33,34
EndSplineSet
Validated: 33
EndChar

StartChar: f
Encoding: 70 102 73
Width: 1041
GlyphClass: 2
Flags: W
LayerCount: 2
Fore
SplineSet
78.5 812 m 132,-1,1
 37 848 37 848 38 910 c 4,2,3
 39 973 39 973 83.5 1008.5 c 132,-1,4
 128 1044 128 1044 199 1044 c 6,5,-1
 320 1044 l 5,6,7
 331 1326 331 1326 450 1463 c 0,8,9
 563 1593 563 1593 755 1599 c 0,10,11
 819 1601 819 1601 864 1593 c 0,12,13
 929 1582 929 1582 965.5 1542.5 c 128,-1,14
 1002 1503 1002 1503 991 1444 c 0,15,16
 980 1379 980 1379 930 1348.5 c 128,-1,17
 880 1318 880 1318 809 1324 c 0,18,19
 724 1332 724 1332 672 1305 c 0,20,21
 623 1279 623 1279 598 1211 c 0,22,23
 570 1138 570 1138 569 1044 c 5,24,-1
 783 1044 l 6,25,26
 860 1044 860 1044 910.5 1014 c 132,-1,27
 961 984 961 984 965 923 c 4,28,29
 965 917 965 917 965 911 c 4,30,31
 965 847 965 847 918.5 813.5 c 132,-1,32
 872 780 872 780 796 780 c 6,33,-1
 564 780 l 5,34,-1
 552 89 l 2,35,36
 551 23 551 23 510 -14 c 0,37,38
 464 -55 464 -55 414 -53 c 0,39,40
 368 -51 368 -51 332 -15 c 0,41,42
 295 21 295 21 297 93 c 2,43,-1
 312 776 l 5,44,-1
 187 776 l 6,45,0
 120 776 120 776 78.5 812 c 132,-1,1
EndSplineSet
Validated: 33
EndChar

StartChar: g
Encoding: 71 103 74
Width: 1087
GlyphClass: 2
Flags: W
LayerCount: 2
Fore
SplineSet
767 612 m 4,0,1
 776 694 776 694 773 714 c 6,2,-1
 773 716 l 5,3,-1
 773 723 l 6,4,5
 773 747 773 747 744 758 c 4,6,7
 717 769 717 769 650 769 c 4,8,9
 542 769 542 769 432 715 c 4,10,11
 317 658 317 658 297 474 c 4,12,13
 296 468 296 468 295 461 c 4,14,15
 284 357 284 357 320 318 c 4,16,17
 351 284 351 284 440 280 c 4,18,19
 541 274 541 274 613 301 c 4,20,21
 698 333 698 333 720 378 c 6,22,-1
 721 380 l 5,23,-1
 722 382 l 6,24,25
 725 387 725 387 732 413 c 4,26,27
 744 455 744 455 751 494 c 4,28,29
 762 552 762 552 767 612 c 4,0,1
947 960 m 0,30,31
 1010 952 1010 952 1034 920 c 0,32,33
 1063 880 1063 880 1055 789 c 2,34,-1
 984 -65 l 2,35,36
 961 -339 961 -339 810 -458 c 0,37,38
 650 -585 650 -585 354 -565 c 0,39,40
 171 -553 171 -553 97 -522 c 0,41,42
 47 -501 47 -501 34 -477 c 0,43,44
 16 -445 16 -445 25 -392 c 0,45,46
 40 -311 40 -311 80 -279 c 0,47,48
 117 -247 117 -247 179 -263 c 0,49,50
 344 -306 344 -306 494 -285 c 0,51,52
 602 -270 602 -270 654 -220 c 0,53,54
 716 -160 716 -160 723 -55 c 2,55,-1
 729 31 l 1,56,57
 612 -24 612 -24 406 -8 c 0,58,59
 366 -5 366 -5 330 2 c 0,60,61
 125 41 125 41 62 192 c 0,62,63
 -6 356 -6 356 52 629 c 0,64,65
 93 821 93 821 217 924 c 0,66,67
 349 1033 349 1033 584 1053 c 0,68,69
 926 1081 926 1081 944 960 c 0,70,71
 945 960 945 960 947 960 c 0,30,31
EndSplineSet
Validated: 33
EndChar

StartChar: h
Encoding: 72 104 75
Width: 1183
GlyphClass: 2
Flags: W
LayerCount: 2
Fore
SplineSet
172.5 1573 m 128,-1,1
 209 1610 209 1610 269 1611 c 1,2,3
 335 1611 335 1611 378 1572 c 0,4,5
 423 1533 423 1533 422 1468 c 2,6,-1
 413 968 l 5,7,8
 551 1040 551 1040 681 1040 c 4,9,10
 910 1039 910 1039 1013.5 920 c 132,-1,11
 1117 801 1117 801 1115 561 c 6,12,-1
 1111 105 l 2,13,14
 1110 42 1110 42 1076 -4.5 c 128,-1,15
 1042 -51 1042 -51 978 -57 c 0,16,17
 968 -58 968 -58 960 -58 c 0,18,19
 899 -58 899 -58 861 -14 c 0,20,21
 821 31 821 31 821 97 c 2,22,-1
 825 563 l 6,23,24
 826 650 826 650 790 714 c 4,25,26
 765 760 765 760 686 764 c 4,27,28
 499 773 499 773 410 628 c 5,29,-1
 386 105 l 2,30,31
 383 38 383 38 337 -4 c 0,32,33
 294 -44 294 -44 229 -43 c 0,34,35
 170 -42 170 -42 134 1 c 0,36,37
 100 41 100 41 102 103 c 2,38,-1
 135 1475 l 2,39,0
 136 1536 136 1536 172.5 1573 c 128,-1,1
EndSplineSet
Validated: 33
EndChar

StartChar: k
Encoding: 75 107 78
Width: 1106
GlyphClass: 2
Flags: W
LayerCount: 2
Fore
SplineSet
158 1572.5 m 128,-1,1
 195 1609 195 1609 256 1610 c 1,2,3
 323 1610 323 1610 368 1572 c 0,4,5
 414 1533 414 1533 412 1468 c 2,6,-1
 392 682 l 1,7,-1
 770 1035 l 2,8,9
 798 1061 798 1061 862 1089 c 0,10,11
 902 1106 902 1106 942.5 1099.5 c 128,-1,12
 983 1093 983 1093 1014 1058 c 1,13,14
 1059 1009 1059 1009 1053 957 c 0,15,16
 1048 909 1048 909 995 862 c 2,17,-1
 739 633 l 1,18,-1
 1038 222 l 2,19,20
 1071 177 1071 177 1082 148 c 0,21,22
 1096 112 1096 112 1091 76 c 0,23,24
 1086 43 1086 43 1055 12 c 0,25,26
 1039 -4 1039 -4 1024 -14 c 0,27,28
 966 -51 966 -51 912 -35 c 0,29,30
 851 -16 851 -16 811 41 c 2,31,-1
 532 454 l 1,32,-1
 382 322 l 5,33,-1
 375 106 l 2,34,35
 373 39 373 39 326 -4 c 0,36,37
 282 -44 282 -44 216 -43 c 0,38,39
 155 -42 155 -42 119 1 c 0,40,41
 85 41 85 41 87 104 c 2,42,-1
 120 1475 l 2,43,0
 121 1536 121 1536 158 1572.5 c 128,-1,1
EndSplineSet
Validated: 33
EndChar

StartChar: l
Encoding: 76 108 79
Width: 561
GlyphClass: 2
Flags: W
LayerCount: 2
Fore
SplineSet
204.5 1572 m 132,-1,1
 241 1609 241 1609 301 1610 c 5,2,3
 368 1610 368 1610 407.5 1571.5 c 132,-1,4
 447 1533 447 1533 446 1468 c 6,5,-1
 415 100 l 6,6,7
 414 35 414 35 373 -4 c 4,8,9
 332 -44 332 -44 263 -43 c 4,10,11
 200 -42 200 -42 166 1 c 4,12,13
 132 41 132 41 133 103 c 6,14,-1
 167 1475 l 6,15,0
 168 1535 168 1535 204.5 1572 c 132,-1,1
EndSplineSet
Validated: 33
EndChar

StartChar: m
Encoding: 77 109 80
Width: 1591
GlyphClass: 2
Flags: W
LayerCount: 2
Fore
SplineSet
130.5 1057.5 m 132,-1,1
 166 1094 166 1094 224 1094 c 4,2,3
 274 1094 274 1094 314 1067.5 c 132,-1,4
 354 1041 354 1041 364 992 c 5,5,6
 446 1034 446 1034 548 1035 c 4,7,8
 749 1037 749 1037 846 918 c 5,9,10
 963 1036 963 1036 1162 1035 c 4,11,12
 1375 1034 1375 1034 1476 915 c 132,-1,13
 1577 796 1577 796 1573 574 c 6,14,-1
 1566 115 l 6,15,16
 1565 52 1565 52 1531.5 5.5 c 132,-1,17
 1498 -41 1498 -41 1436 -47 c 4,18,19
 1425 -48 1425 -48 1415 -48 c 4,20,21
 1354 -47 1354 -47 1321 -4 c 4,22,23
 1286 39 1286 39 1286 107 c 6,24,-1
 1292 515 l 6,25,26
 1293 586 1293 586 1285 638 c 4,27,28
 1277 689 1277 689 1260.5 717.5 c 132,-1,29
 1244 746 1244 746 1223 758.5 c 132,-1,30
 1202 771 1202 771 1175 772 c 4,31,32
 1093 774 1093 774 1041 741 c 132,-1,33
 989 708 989 708 959 634 c 5,34,35
 958 626 958 626 957 586 c 6,36,-1
 944 137 l 6,37,38
 942 65 942 65 906 19 c 132,-1,39
 870 -27 870 -27 804 -33 c 4,40,41
 793 -34 793 -34 782 -34 c 4,42,43
 718 -33 718 -33 684 11 c 4,44,45
 650 56 650 56 651 122 c 6,46,-1
 662 518 l 6,47,48
 664 585 664 585 656 636 c 4,49,50
 648 685 648 685 632 712.5 c 132,-1,51
 616 740 616 740 596.5 752 c 132,-1,52
 577 764 577 764 550 765 c 4,53,54
 477 767 477 767 431 728.5 c 132,-1,55
 385 690 385 690 359 599 c 5,56,-1
 342 113 l 6,57,58
 340 47 340 47 298 4 c 4,59,60
 259 -36 259 -36 195 -35 c 4,61,62
 138 -34 138 -34 102 9 c 4,63,64
 70 48 70 48 71 109 c 6,65,-1
 93 967 l 6,66,0
 95 1021 95 1021 130.5 1057.5 c 132,-1,1
EndSplineSet
Validated: 33
EndChar

StartChar: n
Encoding: 78 110 81
Width: 1072
GlyphClass: 2
Flags: W
LayerCount: 2
Fore
SplineSet
123.5 1057.5 m 128,-1,1
 158 1094 158 1094 215 1094 c 0,2,3
 268 1094 268 1094 309 1063 c 0,4,5
 353 1030 353 1030 359 977 c 1,6,7
 471 1035 471 1035 619 1035 c 0,8,9
 841 1034 841 1034 939 915 c 128,-1,10
 1037 796 1037 796 1034 574 c 2,11,-1
 1026 112 l 2,12,13
 1025 49 1025 49 993 2.5 c 128,-1,14
 961 -44 961 -44 901 -50 c 0,15,16
 889 -51 889 -51 878 -51 c 0,17,18
 822 -50 822 -50 785 -6 c 128,-1,19
 748 38 748 38 750 105 c 2,20,-1
 763 527 l 6,21,22
 767 655 767 655 733 711 c 132,-1,23
 699 767 699 767 632 771 c 4,24,25
 506 779 506 779 352 646 c 5,26,-1
 335 110 l 2,27,28
 333 44 333 44 289 1 c 0,29,30
 248 -39 248 -39 186 -38 c 0,31,32
 130 -37 130 -37 96 6 c 0,33,34
 65 45 65 45 66 106 c 2,35,-1
 87 967 l 2,36,0
 89 1021 89 1021 123.5 1057.5 c 128,-1,1
EndSplineSet
Validated: 33
EndChar

StartChar: o
Encoding: 79 111 82
Width: 1077
GlyphClass: 2
Flags: W
LayerCount: 2
Fore
SplineSet
707.5 736 m 132,-1,1
 662 802 662 802 577 800 c 4,2,3
 459 797 459 797 403 726 c 4,4,5
 305 600 305 600 304 452 c 4,6,7
 304 312 304 312 370 246 c 4,8,9
 436 180 436 180 518 180 c 4,10,11
 615 180 615 180 682 246 c 4,12,13
 755 319 755 319 756 491 c 4,14,15
 756 503 756 503 756 514 c 4,16,0
 753 670 753 670 707.5 736 c 132,-1,1
177 874 m 4,17,18
 316 1051 316 1051 572 1049 c 4,19,20
 807 1047 807 1047 909.5 899 c 132,-1,21
 1012 751 1012 751 1011 475 c 4,22,23
 1010 235 1010 235 904 106 c 5,24,25
 782 -51 782 -51 496 -49 c 4,26,27
 284 -48 284 -48 158 102 c 4,28,29
 47 236 47 236 47 475 c 4,30,31
 47 700 47 700 177 874 c 4,17,18
EndSplineSet
Validated: 33
EndChar

StartChar: p
Encoding: 80 112 83
Width: 1095
GlyphClass: 2
Flags: W
LayerCount: 2
Fore
SplineSet
299 -534 m 0,0,1
 265 -571 265 -571 208 -571 c 0,2,3
 146 -571 146 -571 108.5 -532 c 128,-1,4
 71 -493 71 -493 72 -428 c 2,5,-1
 102 940 l 2,6,7
 103 1005 103 1005 142 1044 c 0,8,9
 181 1084 181 1084 245 1083 c 0,10,11
 298 1082 298 1082 336 1038 c 1,12,13
 413 1063 413 1063 577 1062 c 0,14,15
 793 1061 793 1061 934 917 c 1,16,17
 1067 777 1067 777 1067 589 c 0,18,19
 1068 326 1068 326 948 180 c 0,20,21
 809 15 809 15 576 0 c 0,22,23
 438 -10 438 -10 352 22 c 1,24,-1
 340 -435 l 2,25,26
 339 -497 339 -497 299 -534 c 0,0,1
556 818 m 0,27,28
 456 832 456 832 367 765 c 1,29,-1
 354 307 l 1,30,31
 423 235 423 235 534 242 c 0,32,33
 674 251 674 251 746 347 c 0,34,35
 810 432 810 432 811.5 543 c 128,-1,36
 813 654 813 654 739 740 c 0,37,38
 690 800 690 800 556 818 c 0,27,28
EndSplineSet
Validated: 33
EndChar

StartChar: q
Encoding: 81 113 84
Width: 1065
GlyphClass: 2
Flags: W
LayerCount: 2
Fore
SplineSet
916.5 -533 m 128,-1,1
 882 -570 882 -570 825 -570 c 0,2,3
 763 -570 763 -570 720 -532 c 0,4,5
 676 -494 676 -494 678 -428 c 2,6,-1
 687 -35 l 1,7,8
 628 -44 628 -44 529 -43 c 0,9,10
 302 -42 302 -42 157 93 c 1,11,12
 8 239 8 239 9 450 c 0,13,14
 9 713 9 713 147 873 c 1,15,16
 305 1046 305 1046 566 1046 c 0,17,18
 671 1046 671 1046 739 1024 c 1,19,20
 778 1085 778 1085 862 1083 c 0,21,22
 921 1082 921 1082 953 1039 c 0,23,24
 985 999 985 999 984 937 c 2,25,-1
 952 -435 l 2,26,0
 951 -496 951 -496 916.5 -533 c 128,-1,1
553 209 m 0,27,28
 628 204 628 204 691 250 c 1,29,-1
 711 752 l 1,30,31
 652 796 652 796 541 790 c 0,32,33
 413 783 413 783 353 710 c 0,34,35
 268 606 268 606 265 499 c 1,36,37
 263 378 263 378 336 301 c 0,38,39
 412 219 412 219 553 209 c 0,27,28
EndSplineSet
Validated: 33
EndChar

StartChar: r
Encoding: 82 114 85
Width: 984
GlyphClass: 2
Flags: W
LayerCount: 2
Fore
SplineSet
247 1094 m 4,0,1
 302 1094 302 1094 336 1075 c 4,2,3
 380 1050 380 1050 392 997 c 5,4,5
 499 1043 499 1043 583 1045 c 4,6,7
 725 1047 725 1047 816 1004 c 4,8,9
 991 923 991 923 955 820 c 4,10,11
 939 772 939 772 931 757 c 4,12,13
 909 711 909 711 877 694 c 4,14,15
 846 678 846 678 811 688 c 4,16,17
 798 692 798 692 742 727 c 4,18,19
 669 773 669 773 568 752 c 4,20,21
 489 736 489 736 388 670 c 5,22,-1
 369 64 l 6,23,24
 367 17 367 17 321 -16 c 4,25,26
 282 -44 282 -44 217 -43 c 4,27,28
 154 -42 154 -42 125 -15 c 4,29,30
 93 14 93 14 94 68 c 6,31,-1
 116 1001 l 6,32,33
 117 1044 117 1044 153 1070 c 4,34,35
 189 1094 189 1094 247 1094 c 4,0,1
EndSplineSet
Validated: 33
EndChar

StartChar: s
Encoding: 83 115 86
Width: 997
GlyphClass: 2
Flags: W
LayerCount: 2
Fore
SplineSet
251 262 m 0,0,1
 315 219 315 219 395 214 c 0,2,3
 466 210 466 210 564 220 c 0,4,5
 624 226 624 226 639 256 c 0,6,7
 656 290 656 290 601 343 c 0,8,9
 580 362 580 362 518 381 c 0,10,11
 464 397 464 397 360 411 c 0,12,13
 134 441 134 441 100 587 c 0,14,15
 76 689 76 689 116 798 c 0,16,17
 160 921 160 921 243 978 c 0,18,19
 356 1055 356 1055 505 1063 c 0,20,21
 716 1074 716 1074 799 1024 c 0,22,23
 885 972 885 972 912 916 c 0,24,25
 937 863 937 863 915 808 c 0,26,27
 892 750 892 750 844 735 c 0,28,29
 798 720 798 720 691 786 c 0,30,31
 634 821 634 821 545 813 c 0,32,33
 430 801 430 801 389 759 c 0,34,35
 353 722 353 722 367 687 c 0,36,37
 369 682 369 682 377.5 676.5 c 128,-1,38
 386 671 386 671 412 663 c 128,-1,39
 438 655 438 655 475 652 c 0,40,41
 587 642 587 642 674 604 c 0,42,43
 786 556 786 556 832 499 c 0,44,45
 932 374 932 374 917 240 c 0,46,47
 901 103 901 103 776 17 c 0,48,49
 668 -57 668 -57 480 -58 c 0,50,51
 360 -59 360 -59 251 -38 c 0,52,53
 198 -28 198 -28 125 17 c 0,54,55
 45 67 45 67 40 141 c 0,56,57
 35 228 35 228 95 265 c 0,58,59
 131 288 131 288 172 285 c 0,60,61
 223 281 223 281 251 262 c 0,0,1
EndSplineSet
Validated: 33
EndChar

StartChar: t
Encoding: 84 116 87
Width: 965
GlyphClass: 2
Flags: W
LayerCount: 2
Fore
SplineSet
394 1573 m 132,-1,1
 432 1610 432 1610 495 1610 c 4,2,3
 563 1610 563 1610 604.5 1571.5 c 132,-1,4
 646 1533 646 1533 646 1468 c 4,5,6
 644 1239 644 1239 638 1045 c 5,7,-1
 790 1046 l 6,8,9
 855 1047 855 1047 895 1009.5 c 132,-1,10
 935 972 935 972 935 904 c 132,-1,11
 935 836 935 836 896.5 797.5 c 132,-1,12
 858 759 858 759 796 759 c 6,13,-1
 630 759 l 5,14,-1
 614 95 l 6,15,16
 613 33 613 33 570 -4 c 4,17,18
 527 -44 527 -44 455 -43 c 4,19,20
 390 -42 390 -42 354 1 c 4,21,22
 318 39 318 39 319 98 c 6,23,-1
 337 759 l 5,24,-1
 157 759 l 6,25,26
 105 759 105 759 74.5 798 c 4,27,28
 44 838 44 838 44 900 c 4,29,30
 44 965 44 965 76.5 1004 c 132,-1,31
 109 1043 109 1043 165 1043 c 4,32,33
 247 1043 247 1043 344 1044 c 5,34,-1
 355 1475 l 6,35,0
 356 1536 356 1536 394 1573 c 132,-1,1
EndSplineSet
Validated: 33
EndChar

StartChar: u
Encoding: 85 117 88
Width: 1065
GlyphClass: 2
Flags: W
LayerCount: 2
Fore
SplineSet
846 -76 m 4,0,1
 786 -76 786 -76 752 -54 c 4,2,3
 709 -26 709 -26 702 36 c 5,4,5
 590 -17 590 -17 479 -17 c 0,6,7
 255 -17 255 -17 160 97 c 0,8,9
 62 213 62 213 64 439 c 2,10,-1
 67 930 l 2,11,12
 67 989 67 989 101 1023 c 0,13,14
 130 1054 130 1054 193 1059 c 0,15,16
 203 1060 203 1060 212 1060 c 0,17,18
 273 1060 273 1060 304 1032 c 0,19,20
 341 1000 341 1000 341 947 c 2,21,-1
 338 511 l 2,22,23
 337 397 337 397 356 344 c 0,24,25
 367 312 367 312 400 286 c 0,26,27
 454 243 454 243 562 266 c 4,28,29
 633 280 633 280 678 352 c 4,30,31
 709 401 709 401 711 449 c 6,32,-1
 724 953 l 6,33,34
 725 1001 725 1001 770 1033 c 4,35,36
 808 1061 808 1061 872 1061 c 4,37,38
 934 1060 934 1060 963 1033 c 4,39,40
 995 1003 995 1003 994 949 c 6,41,-1
 971 17 l 6,42,43
 970 -27 970 -27 936 -51.5 c 132,-1,44
 902 -76 902 -76 846 -76 c 4,0,1
EndSplineSet
Validated: 33
EndChar

StartChar: v
Encoding: 86 118 89
Width: 996
GlyphClass: 2
Flags: W
LayerCount: 2
Fore
SplineSet
44 990.5 m 128,-1,1
 63 1025 63 1025 103 1043 c 0,2,3
 168 1071 168 1071 221 1040 c 0,4,5
 281 1005 281 1005 306 933 c 2,6,-1
 513 343 l 1,7,-1
 723 933 l 6,8,9
 725 938 725 938 730 950 c 4,10,11
 762 1017 762 1017 813 1043 c 132,-1,12
 864 1069 864 1069 925 1043 c 4,13,14
 963 1026 963 1026 985 991 c 4,15,16
 1004 959 1004 959 1003 921 c 4,17,18
 1002 885 1002 885 984 839 c 6,19,-1
 695 83 l 2,20,21
 677 36 677 36 622 -8 c 0,22,23
 577 -45 577 -45 515 -45 c 0,24,25
 456 -45 456 -45 406 -9 c 0,26,27
 351 31 351 31 332 83 c 2,28,-1
 45 839 l 2,29,30
 27 885 27 885 26 921 c 0,31,0
 25 956 25 956 44 990.5 c 128,-1,1
EndSplineSet
Validated: 33
EndChar

StartChar: w
Encoding: 87 119 90
Width: 1401
GlyphClass: 2
Flags: W
LayerCount: 2
Fore
SplineSet
836 1000 m 0,0,1
 853 979 853 979 865 909 c 2,2,-1
 947 408 l 1,3,-1
 1083 885 l 2,4,5
 1127 1039 1127 1039 1233 1045 c 0,6,7
 1287 1048 1287 1048 1315 1037 c 0,8,9
 1350 1025 1350 1025 1371 994 c 0,10,11
 1390 966 1390 966 1389.5 932 c 128,-1,12
 1389 898 1389 898 1377 860 c 1,13,-1
 1109 92 l 2,14,15
 1090 36 1090 36 1040 -10 c 0,16,17
 996 -50 996 -50 934 -50 c 0,18,19
 852 -50 852 -50 807 -8 c 0,20,21
 759 36 759 36 747 107 c 2,22,-1
 678 503 l 1,23,-1
 540 100 l 2,24,25
 517 33 517 33 470 -10 c 0,26,27
 426 -50 426 -50 353 -50 c 0,28,29
 282 -50 282 -50 239 -8 c 0,30,31
 197 32 197 32 184 98 c 2,32,-1
 41 865 l 2,33,34
 39 874 39 874 38 877 c 0,35,36
 28 938 28 938 54 986 c 0,37,38
 80 1036 80 1036 140 1044 c 0,39,40
 217 1055 217 1055 257 1008 c 0,41,42
 304 952 304 952 316 880 c 2,43,-1
 398 377 l 1,44,-1
 556 885 l 2,45,46
 606 1046 606 1046 714 1046 c 0,47,48
 799 1046 799 1046 836 1000 c 0,0,1
EndSplineSet
Validated: 33
EndChar

StartChar: x
Encoding: 88 120 91
Width: 1209
GlyphClass: 2
Flags: W
LayerCount: 2
Fore
SplineSet
91 1027 m 0,0,1
 127 1047 127 1047 168 1048 c 0,2,3
 211 1049 211 1049 245 1034 c 0,4,5
 296 1012 296 1012 320 984 c 2,6,-1
 591 669 l 1,7,-1
 860 984 l 2,8,9
 884 1012 884 1012 935 1035 c 0,10,11
 969 1050 969 1050 1013 1048 c 0,12,13
 1057 1047 1057 1047 1089 1027 c 0,14,15
 1095 1024 1095 1024 1100 1020 c 0,16,17
 1146 987 1146 987 1143 947 c 0,18,19
 1137 865 1137 865 1092 815 c 2,20,-1
 800 492 l 1,21,-1
 1066 205 l 2,22,23
 1097 171 1097 171 1119 112 c 0,24,25
 1138 64 1138 64 1128 22 c 0,26,27
 1122 -4 1122 -4 1083 -27 c 0,28,29
 1048 -47 1048 -47 1007 -49 c 0,30,31
 964 -50 964 -50 929 -35 c 0,32,33
 876 -11 876 -11 851 17 c 2,34,-1
 591 314 l 1,35,-1
 334 17 l 2,36,37
 310 -11 310 -11 256 -35 c 0,38,39
 222 -50 222 -50 178 -49 c 0,40,41
 137 -48 137 -48 103 -27 c 0,42,43
 64 -4 64 -4 57 23 c 0,44,45
 47 65 47 65 66 112 c 0,46,47
 86 169 86 169 120 205 c 2,48,-1
 387 490 l 1,49,-1
 88 815 l 2,50,51
 84 819 84 819 75 832 c 0,52,53
 33 895 33 895 37 962 c 0,54,55
 39 999 39 999 91 1027 c 0,0,1
EndSplineSet
Validated: 33
EndChar

StartChar: y
Encoding: 89 121 92
Width: 1132
GlyphClass: 2
Flags: W
LayerCount: 2
Fore
SplineSet
1036 1029 m 0,0,1
 1098 1007 1098 1007 1112 969 c 0,2,3
 1128 906 1128 906 1099 835 c 1,4,-1
 519 -447 l 2,5,6
 478 -525 478 -525 421 -562 c 0,7,8
 364 -588 364 -588 293 -571 c 0,9,10
 241 -557 241 -557 219 -530 c 0,11,12
 199 -497 199 -497 202 -456 c 0,13,14
 206 -400 206 -400 230 -335 c 2,15,-1
 433 109 l 1,16,-1
 28 821 l 2,17,18
 5 874 5 874 0 922 c 0,19,20
 -6 967 -6 967 12 987 c 0,21,22
 36 1012 36 1012 67 1025 c 5,23,24
 129 1052 129 1052 181 1033 c 0,25,26
 233 1013 233 1013 272 957 c 2,27,-1
 585 418 l 1,28,-1
 840 951 l 2,29,30
 873 1008 873 1008 925 1029 c 0,31,32
 975 1049 975 1049 1036 1029 c 0,0,1
EndSplineSet
Validated: 33
EndChar

StartChar: z
Encoding: 90 122 93
Width: 1102
GlyphClass: 2
Flags: W
LayerCount: 2
Fore
SplineSet
83 81 m 16,0,1
 87.9153 122.486 87.9153 122.486 151 198 c 2,2,-1
 623 763 l 1,3,-1
 224 763 l 2,4,5
 158 763 158 763 119.5 801 c 128,-1,6
 81 839 81 839 84 910 c 4,7,8
 86 973 86 973 126.5 1006.5 c 132,-1,9
 167 1040 167 1040 230 1040 c 6,10,-1
 915 1040 l 6,11,12
 958 1040 958 1040 995 1012 c 4,13,14
 1030 986 1030 986 1044 941 c 4,15,16
 1060.68 889.11 1060.68 889.11 1000 811 c 2,17,-1
 544 224 l 1,18,-1
 879 224 l 2,19,20
 943 224 943 224 982 187 c 128,-1,21
 1021 150 1021 150 1019 84 c 0,22,23
 1017 21 1017 21 976.5 -12.5 c 128,-1,24
 936 -46 936 -46 873 -46 c 2,25,-1
 229 -46 l 2,26,27
 163.937 -46 163.937 -46 126 -13 c 8,28,29
 76.9209 29.6921 76.9209 29.6921 83 81 c 16,0,1
EndSplineSet
Validated: 33
EndChar

StartChar: braceleft
Encoding: 91 123 94
Width: 750
GlyphClass: 2
Flags: W
LayerCount: 2
Fore
SplineSet
168 798 m 2,0,-1
 166 1185 l 2,1,2
 164 1396 164 1396 262 1510 c 128,-1,3
 360 1624 360 1624 550 1624 c 0,4,5
 602 1624 602 1624 642.5 1612 c 128,-1,6
 683 1600 683 1600 710 1571 c 0,7,8
 736 1542 736 1542 736 1498 c 0,9,10
 736 1491 736 1491 736 1484 c 0,11,12
 731 1411 731 1411 674.5 1378.5 c 128,-1,13
 618 1346 618 1346 532 1353 c 0,14,15
 527 1353 527 1353 523 1353 c 0,16,17
 481 1353 481 1353 458.5 1315.5 c 128,-1,18
 436 1278 436 1278 436 1179 c 2,19,-1
 439 795 l 2,20,21
 440 685 440 685 324 568 c 1,22,23
 441 449 441 449 439 340 c 2,24,-1
 436 58 l 6,25,26
 436 52 436 52 437 45 c 4,27,28
 438 -47 438 -47 462.5 -81.5 c 132,-1,29
 487 -116 487 -116 535 -116 c 4,30,31
 616 -115 616 -115 668 -146 c 132,-1,32
 720 -177 720 -177 720 -244 c 4,33,34
 720 -313 720 -313 673 -349.5 c 132,-1,35
 626 -386 626 -386 550 -386 c 4,36,37
 360 -386 360 -386 261.5 -272.5 c 132,-1,38
 163 -159 163 -159 166 52 c 6,39,-1
 168 337 l 2,40,41
 168 339 168 339 162 348 c 128,-1,42
 156 357 156 357 133.5 375.5 c 128,-1,43
 111 394 111 394 79 412 c 0,44,45
 -41 483 -41 483 -39 568 c 1,46,47
 -42 654 -42 654 79 723 c 0,48,49
 111 742 111 742 133.5 760.5 c 128,-1,50
 156 779 156 779 162 787 c 0,51,52
 168 796 168 796 168 798 c 2,0,-1
EndSplineSet
Validated: 33
EndChar

StartChar: bar
Encoding: 92 124 95
Width: 863
GlyphClass: 2
Flags: W
LayerCount: 2
Fore
SplineSet
444 1718 m 0,0,1
 499 1719 499 1719 537 1687 c 0,2,3
 572 1657 572 1657 572 1599 c 2,4,-1
 574 -207 l 6,5,6
 574 -277 574 -277 541 -320 c 4,7,8
 507 -364 507 -364 444 -364 c 4,9,10
 382 -363 382 -363 350 -319 c 4,11,12
 316 -274 316 -274 316 -206 c 6,13,-1
 312 1599 l 2,14,15
 312 1655 312 1655 349 1686 c 128,-1,16
 386 1717 386 1717 444 1718 c 0,0,1
EndSplineSet
Validated: 33
EndChar

StartChar: braceright
Encoding: 93 125 96
Width: 750
GlyphClass: 2
Flags: W
LayerCount: 2
Fore
SplineSet
533 798 m 2,0,1
 533 796 533 796 539 787 c 0,2,3
 545 778 545 778 567.5 759.5 c 128,-1,4
 590 741 590 741 622 723 c 0,5,6
 742 653 742 653 740 568 c 1,7,8
 743 482 743 482 622 412 c 0,9,10
 590 393 590 393 567.5 374.5 c 128,-1,11
 545 356 545 356 539 348 c 0,12,13
 532 339 532 339 533 337 c 2,14,-1
 535 54 l 6,15,16
 537 -157 537 -157 439 -270.5 c 132,-1,17
 341 -384 341 -384 151 -384 c 4,18,19
 76 -384 76 -384 29 -347.5 c 132,-1,20
 -18 -311 -18 -311 -19 -243 c 4,21,22
 -21 -176 -21 -176 31.5 -144 c 132,-1,23
 84 -112 84 -112 167 -114 c 4,24,25
 217 -115 217 -115 241 -77 c 4,26,27
 266 -39 266 -39 265 60 c 6,28,-1
 262 340 l 2,29,30
 261 449 261 449 378 568 c 1,31,32
 261 687 261 687 262 795 c 2,33,-1
 265 1180 l 2,34,35
 265 1204 265 1204 263 1224 c 0,36,37
 258 1302 258 1302 235 1329.5 c 128,-1,38
 212 1357 212 1357 169 1354 c 0,39,40
 155 1353 155 1353 141 1352 c 0,41,42
 63 1351 63 1351 14 1389 c 128,-1,43
 -35 1427 -35 1427 -35 1499 c 0,44,45
 -36 1544 -36 1544 -9 1573 c 128,-1,46
 18 1602 18 1602 58 1613 c 128,-1,47
 98 1624 98 1624 151 1624 c 0,48,49
 341 1624 341 1624 439 1510.5 c 128,-1,50
 537 1397 537 1397 535 1186 c 2,51,-1
 533 798 l 2,0,1
EndSplineSet
Validated: 33
EndChar

StartChar: asciitilde
Encoding: 94 126 97
Width: 1250
GlyphClass: 2
Flags: W
LayerCount: 2
Fore
SplineSet
311 573 m 0,0,1
 283 524 283 524 236 506.5 c 128,-1,2
 189 489 189 489 134 511 c 1,3,4
 85 531 85 531 68.5 575 c 128,-1,5
 52 619 52 619 70 667 c 1,6,7
 109 786 109 786 219 871 c 0,8,9
 332 958 332 958 451 957 c 0,10,11
 529 956 529 956 589.5 925 c 128,-1,12
 650 894 650 894 686 834 c 0,13,14
 753 727 753 727 835 724 c 0,15,16
 883 722 883 722 920 824 c 0,17,18
 938 875 938 875 973.5 905.5 c 128,-1,19
 1009 936 1009 936 1060 934 c 0,20,21
 1126 932 1126 932 1157.5 885.5 c 128,-1,22
 1189 839 1189 839 1185 768 c 0,23,24
 1179 648 1179 648 1072 557 c 0,25,26
 980 480 980 480 843 479 c 0,27,28
 659 478 659 478 562 613 c 0,29,30
 530 657 530 657 503.5 683 c 128,-1,31
 477 709 477 709 461 713.5 c 128,-1,32
 445 718 445 718 435 715 c 0,33,34
 409 708 409 708 378.5 673 c 128,-1,35
 348 638 348 638 311 573 c 0,0,1
EndSplineSet
Validated: 33
EndChar

StartChar: dagger
Encoding: 542 8224 130
Width: 1250
GlyphClass: 2
Flags: W
LayerCount: 2
Fore
SplineSet
609 1694 m 0,0,1
 675 1694 675 1694 715 1655.5 c 128,-1,2
 755 1617 755 1617 753 1552 c 2,3,-1
 746 1230 l 1,4,-1
 1037 1230 l 2,5,6
 1114 1230 1114 1230 1162 1192 c 128,-1,7
 1210 1154 1210 1154 1211 1084 c 0,8,9
 1212 1015 1212 1015 1164 978 c 0,10,11
 1116 942 1116 942 1037 942 c 2,12,-1
 741 940 l 1,13,-1
 721 -59 l 2,14,15
 720 -128 720 -128 679 -168.5 c 128,-1,16
 638 -209 638 -209 569 -207 c 0,17,18
 506 -206 506 -206 472 -163.5 c 128,-1,19
 438 -121 438 -121 440 -55 c 2,20,-1
 460 939 l 1,21,-1
 194 938 l 2,22,23
 118 938 118 938 72 979 c 128,-1,24
 26 1020 26 1020 26 1093 c 0,25,26
 26 1161 26 1161 75.5 1195.5 c 128,-1,27
 125 1230 125 1230 203 1230 c 2,28,-1
 466 1230 l 1,29,-1
 474 1560 l 2,30,31
 475 1621 475 1621 511.5 1657.5 c 128,-1,32
 548 1694 548 1694 609 1694 c 0,0,1
EndSplineSet
Validated: 33
EndChar

StartChar: degree
Encoding: 111 176 131
Width: 1250
GlyphClass: 2
Flags: W
LayerCount: 2
Fore
SplineSet
682 1197 m 20,0,1
 707 1208 707 1208 729 1232 c 4,2,3
 757 1263 757 1263 763 1305 c 4,4,5
 764 1315 764 1315 764 1326 c 4,6,7
 764 1358 764 1358 751 1386 c 4,8,9
 734 1424 734 1424 698 1446 c 12,10,11
 663 1468 663 1468 620 1468 c 20,12,13
 578 1468 578 1468 546 1446 c 4,14,15
 513 1424 513 1424 495 1390 c 4,16,17
 480 1360 480 1360 480 1326 c 4,18,19
 480 1278 480 1278 506 1244 c 4,20,21
 529 1214 529 1214 554 1200 c 4,22,23
 581 1185 581 1185 614 1184 c 12,24,25
 650 1183 650 1183 682 1197 c 20,0,1
807 1624 m 4,26,27
 898 1565 898 1565 939 1476 c 4,28,29
 973 1405 973 1405 973 1327 c 4,30,31
 973 1304 973 1304 970 1281 c 4,32,33
 955 1177 955 1177 890 1099 c 4,34,35
 855 1056 855 1056 795 1023 c 4,36,37
 740 992 740 992 677 983 c 4,38,39
 651 979 651 979 626 979 c 4,40,41
 525 979 525 979 440 1032 c 4,42,43
 343 1094 343 1094 301 1201 c 4,44,45
 277 1262 277 1262 277 1328 c 4,46,47
 277 1375 277 1375 289 1419 c 4,48,49
 320 1530 320 1530 409 1601 c 4,50,51
 500 1673 500 1673 616 1675 c 12,52,53
 725 1678 725 1678 807 1624 c 4,26,27
EndSplineSet
Validated: 33
EndChar

StartChar: cent
Encoding: 97 162 132
Width: 1250
GlyphClass: 2
Flags: W
LayerCount: 2
Fore
SplineSet
499 1163 m 1,0,1
 448 1124 448 1124 413 1069 c 0,2,3
 336 941 336 941 336 842 c 0,4,5
 336 731 336 731 389 662 c 0,6,7
 435 602 435 602 491 571 c 1,8,9
 494 908 494 908 499 1163 c 1,0,1
624 28 m 0,10,11
 557 29 557 29 521.5 77.5 c 128,-1,12
 486 126 486 126 487 201 c 0,13,14
 488 245 488 245 488 289 c 1,15,16
 313 335 313 335 187 486 c 0,17,18
 82 611 82 611 82 874 c 0,19,20
 82 1045 82 1045 195 1211 c 0,21,22
 321 1397 321 1397 502 1451 c 1,23,-1
 504 1588 l 2,24,25
 505 1656 505 1656 539 1699 c 0,26,27
 573 1742 573 1742 636 1742 c 0,28,29
 696 1742 696 1742 727 1698.5 c 128,-1,30
 758 1655 758 1655 757 1589 c 0,31,32
 756 1534 756 1534 757 1477 c 1,33,34
 811 1472 811 1472 851 1455 c 0,35,36
 987 1396 987 1396 1030 1361 c 0,37,38
 1068 1330 1068 1330 1090 1296.5 c 128,-1,39
 1112 1263 1112 1263 1116.5 1225 c 128,-1,40
 1121 1187 1121 1187 1095 1152 c 0,41,42
 1057 1099 1057 1099 1001 1093.5 c 128,-1,43
 945 1088 945 1088 892 1127 c 1,44,45
 803 1191 803 1191 755 1213 c 1,46,-1
 749 556 l 1,47,48
 784 567 784 567 814 585 c 0,49,50
 894 634 894 634 934 655.5 c 128,-1,51
 974 677 974 677 1003 681 c 0,52,53
 1033 685 1033 685 1057 681 c 0,54,55
 1112 671 1112 671 1132 625.5 c 128,-1,56
 1152 580 1152 580 1142 520 c 2,57,-1
 1139 501 l 1,58,-1
 1136 486 l 2,59,60
 1136 486 1136 486 1141 517 c 1,61,62
 1131 473 1131 473 1081.5 435.5 c 128,-1,63
 1032 398 1032 398 929 344 c 0,64,65
 838 296 838 296 746 279 c 1,66,-1
 745 198 l 2,67,68
 744 124 744 124 713.5 75.5 c 128,-1,69
 683 27 683 27 624 28 c 0,10,11
EndSplineSet
Validated: 33
EndChar

StartChar: sterling
Encoding: 98 163 133
Width: 1625
GlyphClass: 2
Flags: W
LayerCount: 2
Fore
SplineSet
264 937 m 1,0,1
 253 1175 253 1175 413 1389 c 0,2,3
 567 1593 567 1593 821 1606 c 0,4,5
 1176 1625 1176 1625 1316 1433 c 0,6,7
 1415 1298 1415 1298 1366 1218 c 0,8,9
 1339 1173 1339 1173 1299 1152 c 128,-1,10
 1259 1131 1259 1131 1213 1144 c 0,11,12
 1196 1148 1196 1148 1181.5 1158.5 c 128,-1,13
 1167 1169 1167 1169 1152.5 1188.5 c 128,-1,14
 1138 1208 1138 1208 1128.5 1223 c 128,-1,15
 1119 1238 1119 1238 1101 1269 c 0,16,17
 1052 1355 1052 1355 846 1348 c 0,18,19
 721 1343 721 1343 635 1255 c 0,20,21
 553 1171 553 1171 532 1029 c 0,22,23
 527 993 527 993 529 940 c 1,24,-1
 1043 946 l 2,25,26
 1109 947 1109 947 1149 912 c 0,27,28
 1190 877 1190 877 1190 814 c 0,29,30
 1190 754 1190 754 1151 719.5 c 128,-1,31
 1112 685 1112 685 1049 685 c 2,32,-1
 563 679 l 1,33,34
 582 597 582 597 606 478 c 0,35,36
 633 346 633 346 591 224 c 5,37,38
 689 214 689 214 839 149 c 4,39,40
 939 106 939 106 1047 108 c 4,41,42
 1169 112 1169 112 1210 154 c 4,43,44
 1213 157 1213 157 1218 169.5 c 132,-1,45
 1223 182 1223 182 1231 210.5 c 132,-1,46
 1239 239 1239 239 1244 273 c 4,47,48
 1254 327 1254 327 1292 355.5 c 132,-1,49
 1330 384 1330 384 1385 378 c 4,50,51
 1445 371 1445 371 1476.5 330 c 132,-1,52
 1508 289 1508 289 1502 229 c 4,53,54
 1488 42 1488 42 1379 -47 c 4,55,56
 1238 -163 1238 -163 1037 -156 c 4,57,58
 901 -152 901 -152 791 -103 c 4,59,60
 637 -34 637 -34 521 -40 c 4,61,62
 478 -42 478 -42 411 -77 c 4,63,64
 394 -86 394 -86 378 -92 c 4,65,66
 346 -106 346 -106 316.5 -111.5 c 132,-1,67
 287 -117 287 -117 259 -114 c 132,-1,68
 231 -111 231 -111 209 -94.5 c 132,-1,69
 187 -78 187 -78 175 -49 c 4,70,71
 160 -15 160 -15 164 20.5 c 132,-1,72
 168 56 168 56 190 83 c 5,73,74
 203 102 203 102 225 121 c 4,75,76
 394 277 394 277 335 530 c 0,77,78
 317 609 317 609 302 677 c 1,79,-1
 140 676 l 2,80,81
 76 675 76 675 36.5 709 c 128,-1,82
 -3 743 -3 743 -1 804 c 0,83,84
 1 865 1 865 41 900.5 c 128,-1,85
 81 936 81 936 145 936 c 0,86,87
 204 937 204 937 264 937 c 1,0,1
EndSplineSet
Validated: 33
EndChar

StartChar: section
Encoding: 102 167 134
Width: 1300
GlyphClass: 2
Flags: W
LayerCount: 2
Fore
SplineSet
447 958 m 5,0,1
 411 914 411 914 419 879 c 4,2,3
 435 800 435 800 529 759 c 4,4,5
 570 741 570 741 780 687 c 4,6,7
 820 677 820 677 854 665 c 5,8,9
 859 676 859 676 860 682 c 5,10,11
 832 748 832 748 719 815 c 4,12,13
 576 901 576 901 540 916 c 4,14,15
 487 937 487 937 447 958 c 5,0,1
1066 516 m 5,16,17
 1156 377 1156 377 1144 271 c 4,18,19
 1126 101 1126 101 1002 9 c 4,20,21
 879 -82 879 -82 627 -83 c 4,22,23
 438 -84 438 -84 312 -32 c 4,24,25
 226 2 226 2 164 53 c 4,26,27
 70 133 70 133 78 218 c 4,28,29
 82 254 82 254 105.5 279.5 c 132,-1,30
 129 305 129 305 166 312 c 4,31,32
 255 331 255 331 331 258 c 4,33,34
 403 189 403 189 483 172 c 5,35,36
 625 143 625 143 709 155 c 4,37,38
 830 174 830 174 858 227 c 4,39,40
 890 285 890 285 878 327 c 132,-1,41
 866 369 866 369 805 408 c 4,42,43
 729 457 729 457 463 528 c 4,44,45
 254 584 254 584 187 735 c 4,46,47
 132 859 132 859 171 999 c 4,48,49
 192 1076 192 1076 263 1138 c 5,50,51
 222 1209 222 1209 220 1272 c 4,52,53
 213 1445 213 1445 365 1559 c 4,54,55
 479 1646 479 1646 617 1647 c 4,56,57
 789 1648 789 1648 898 1604 c 4,58,59
 984 1570 984 1570 1046 1518 c 4,60,61
 1140 1438 1140 1438 1132 1353 c 4,62,63
 1128 1317 1128 1317 1104.5 1292 c 132,-1,64
 1081 1267 1081 1267 1043 1259 c 4,65,66
 958 1242 958 1242 880 1313 c 5,67,68
 803 1381 803 1381 757 1394 c 4,69,70
 689 1415 689 1415 592 1387 c 4,71,72
 513 1365 513 1365 496 1315 c 5,73,74
 478 1265 478 1265 574 1190 c 4,75,76
 639 1140 639 1140 809 1075 c 4,77,78
 974 1012 974 1012 1076 883 c 4,79,80
 1187 741 1187 741 1124 598 c 5,81,82
 1108 559 1108 559 1066 516 c 5,16,17
EndSplineSet
Validated: 33
EndChar

StartChar: paragraph
Encoding: 117 182 136
Width: 1558
GlyphClass: 2
Flags: W
LayerCount: 2
Fore
SplineSet
1144 1634 m 0,0,1
 1211 1634 1211 1634 1250 1595 c 0,2,3
 1290 1556 1290 1556 1288 1491 c 2,4,-1
 1250 -26 l 6,5,6
 1248 -95 1248 -95 1207 -136 c 4,7,8
 1166 -176 1166 -176 1097 -174 c 4,9,10
 1034 -173 1034 -173 1000.5 -130.5 c 132,-1,11
 967 -88 967 -88 969 -22 c 6,12,-1
 1008 1499 l 2,13,14
 1010 1560 1010 1560 1046 1597 c 0,15,16
 1083 1634 1083 1634 1144 1634 c 0,0,1
766 1634 m 0,17,18
 833 1634 833 1634 872 1595 c 0,19,20
 912 1556 912 1556 910 1491 c 2,21,-1
 873 -26 l 6,22,23
 871 -95 871 -95 831 -136 c 4,24,25
 790 -176 790 -176 721 -174 c 4,26,27
 658 -173 658 -173 624 -131 c 4,28,29
 589 -88 589 -88 592 -22 c 6,30,-1
 602 360 l 1,31,32
 317 389 317 389 169.5 550.5 c 128,-1,33
 22 712 22 712 22 995 c 0,34,35
 22 1287 22 1287 211.5 1460.5 c 128,-1,36
 401 1634 401 1634 766 1634 c 0,17,18
EndSplineSet
Validated: 33
EndChar

StartChar: germandbls
Encoding: 158 223 137
Width: 1093
GlyphClass: 2
Flags: W
LayerCount: 2
Fore
SplineSet
563 244 m 0,0,1
 536 266 536 266 489 257 c 0,2,3
 461 252 461 252 431 232 c 0,4,5
 376 191 376 191 388 110 c 24,6,7
 399 36 399 36 468 -20 c 24,8,9
 526 -67 526 -67 617 -74 c 0,10,11
 754 -84 754 -84 839 -45 c 0,12,13
 925 -5 925 -5 973 85 c 0,14,15
 1048 227 1048 227 984 502 c 0,16,17
 948 657 948 657 802 794 c 1,18,19
 896 915 896 915 935 996 c 0,20,21
 978 1085 978 1085 974 1161 c 0,22,23
 961 1374 961 1374 861 1477 c 0,24,25
 763 1578 763 1578 549 1565 c 0,26,27
 504 1562 504 1562 455 1554 c 0,28,29
 135 1500 135 1500 118 933 c 1,30,-1
 88 -15 l 2,31,32
 86 -85 86 -85 112 -122 c 0,33,34
 133 -152 133 -152 193 -156 c 0,35,36
 256 -160 256 -160 297 -134 c 0,37,38
 342 -105 342 -105 349 -53 c 0,39,40
 350 -45 350 -45 350 -36 c 10,41,-1
 373 925 l 18,42,43
 377 1082 377 1082 420 1180 c 0,44,45
 454 1258 454 1258 499 1282 c 0,46,47
 537 1303 537 1303 602 1296 c 0,48,49
 658 1291 658 1291 676 1268 c 0,50,51
 699 1238 699 1238 693 1143 c 0,52,53
 690 1101 690 1101 647 1041 c 0,54,55
 598 973 598 973 518 915 c 0,56,57
 419 843 419 843 432 783 c 1,58,59
 430 733 430 733 517 679 c 0,60,61
 702 565 702 565 736 436 c 1,62,63
 753 338 753 338 748 271 c 0,64,65
 745 229 745 229 720 214 c 0,66,67
 682 191 682 191 655 199 c 8,68,69
 605 211 605 211 563 244 c 0,0,1
EndSplineSet
Validated: 41
EndChar

StartChar: registered
Encoding: 109 174 138
Width: 1629
GlyphClass: 2
Flags: W
LayerCount: 2
Fore
SplineSet
1035 556 m 17,0,1
 994 540 994 540 955 563 c 0,2,3
 909 590 909 590 869 651 c 2,4,-1
 794 765 l 1,5,-1
 789 678 l 2,6,7
 786 618 786 618 757.5 579.5 c 128,-1,8
 729 541 729 541 677 543 c 0,9,10
 618 544 618 544 586.5 583.5 c 128,-1,11
 555 623 555 623 559 684 c 2,12,-1
 589 1238 l 2,13,14
 592 1288 592 1288 623.5 1320 c 128,-1,15
 655 1352 655 1352 707 1360 c 0,16,17
 882 1387 882 1387 979 1317 c 0,18,19
 1080 1242 1080 1242 1093 1130 c 0,20,21
 1101 1057 1101 1057 1089 1009 c 1,22,23
 1065 921 1065 921 979 878 c 1,24,-1
 1063 764 l 2,25,26
 1075 747 1075 747 1084 732 c 0,27,28
 1116 680 1116 680 1105 638 c 8,29,30
 1089 583 1089 583 1035 556 c 17,0,1
1225 688 m 16,31,32
 1288 803 1288 803 1288 930 c 0,33,34
 1288 1058 1288 1058 1224 1168 c 0,35,36
 1158 1283 1158 1283 1051 1345 c 0,37,38
 940 1410 940 1410 809 1410 c 2,39,-1
 808 1410 l 2,40,41
 685 1410 685 1410 571 1348 c 0,42,43
 457 1286 457 1286 395 1178 c 0,44,45
 332 1070 332 1070 328 943 c 1,46,-1
 328 930 l 2,47,48
 328 810 328 810 384 704 c 1,49,50
 449 586 449 586 557 519 c 0,51,52
 665 451 665 451 798 450 c 0,53,54
 959 449 959 449 1068 514 c 0,55,56
 1158 568 1158 568 1225 688 c 16,31,32
793 1672 m 1,57,-1
 805 1672 l 2,58,59
 986 1672 986 1672 1152 1587 c 0,60,61
 1325 1498 1325 1498 1431 1338 c 1,62,63
 1535 1179 1535 1179 1552 988 c 0,64,65
 1554 956 1554 956 1554 922 c 0,66,67
 1554 761 1554 761 1492 621 c 1,68,69
 1445 519 1445 519 1382 442 c 0,70,71
 1323 367 1323 367 1222 301 c 1,72,73
 1041 180 1041 180 823 174 c 1,74,-1
 806 174 l 2,75,76
 606 174 606 174 419 281 c 0,77,78
 323 336 323 336 252 416 c 1,79,80
 178 500 178 500 134 590 c 0,81,82
 56 747 56 747 56 923 c 2,83,-1
 56 954 l 1,84,-1
 57 955 l 2,85,86
 67 1157 67 1157 163 1313 c 0,87,88
 267 1479 267 1479 431 1575 c 1,89,90
 595 1669 595 1669 793 1672 c 1,57,-1
802 1135 m 1,91,-1
 795 1032 l 1,92,93
 825 1032 825 1032 838 1036 c 0,94,95
 856 1043 856 1043 859 1091 c 0,96,97
 860 1110 860 1110 857 1119 c 128,-1,98
 854 1128 854 1128 851.5 1129 c 128,-1,99
 849 1130 849 1130 839 1131 c 2,100,-1
 802 1135 l 1,91,-1
EndSplineSet
Validated: 33
EndChar

StartChar: copyright
Encoding: 104 169 139
Width: 1629
GlyphClass: 2
Flags: W
LayerCount: 2
Fore
SplineSet
961 834 m 0,0,1
 969 840 969 840 977 845 c 0,2,3
 1026 876 1026 876 1075 866 c 128,-1,4
 1124 856 1124 856 1155 807 c 0,5,6
 1171 782 1171 782 1172 755.5 c 128,-1,7
 1173 729 1173 729 1161.5 703.5 c 128,-1,8
 1150 678 1150 678 1131.5 655.5 c 128,-1,9
 1113 633 1113 633 1087 611 c 0,10,11
 965 506 965 506 815 514 c 0,12,13
 589 525 589 525 494 678 c 0,14,15
 414 809 414 809 414 911 c 0,16,17
 414 1077 414 1077 491 1188 c 0,18,19
 575 1309 575 1309 720 1347 c 0,20,21
 853 1383 853 1383 955 1339 c 1,22,23
 1088 1283 1088 1283 1138 1214 c 0,24,25
 1168 1171 1168 1171 1168 1125 c 128,-1,26
 1168 1079 1168 1079 1136 1039 c 1,27,28
 1108 1006 1108 1006 1069.5 1001 c 128,-1,29
 1031 996 1031 996 994.5 1012.5 c 128,-1,30
 958 1029 958 1029 919 1061 c 0,31,32
 851 1118 851 1118 786 1096 c 0,33,34
 709 1070 709 1070 697 1028 c 0,35,36
 677 959 677 959 677 926 c 1,37,38
 680 884 680 884 708 845 c 0,39,40
 759 776 759 776 820 769 c 1,41,42
 871 766 871 766 961 834 c 0,0,1
809 1410 m 2,43,-1
 808 1410 l 2,44,45
 685 1410 685 1410 571 1348 c 0,46,47
 457 1286 457 1286 395 1178 c 0,48,49
 332 1070 332 1070 328 943 c 1,50,-1
 328 930 l 2,51,52
 328 810 328 810 384 704 c 1,53,54
 449 586 449 586 557 519 c 0,55,56
 661 452 661 452 798 450 c 0,57,58
 804 450 804 450 812 450 c 1,59,60
 936 451 936 451 1043 511 c 0,61,62
 1157 574 1157 574 1222 687 c 0,63,64
 1288 799 1288 799 1288 930 c 0,65,66
 1288 1058 1288 1058 1224 1168 c 0,67,68
 1158 1283 1158 1283 1051 1345 c 0,69,70
 940 1410 940 1410 809 1410 c 2,43,-1
793 1672 m 1,71,-1
 805 1672 l 2,72,73
 986 1672 986 1672 1152 1587 c 0,74,75
 1325 1498 1325 1498 1431 1338 c 1,76,77
 1535 1179 1535 1179 1552 988 c 0,78,79
 1554 956 1554 956 1554 922 c 0,80,81
 1554 761 1554 761 1492 621 c 1,82,83
 1445 519 1445 519 1382 442 c 0,84,85
 1323 367 1323 367 1222 301 c 1,86,87
 1041 180 1041 180 823 174 c 1,88,-1
 806 174 l 2,89,90
 606 174 606 174 419 281 c 0,91,92
 323 336 323 336 252 416 c 1,93,94
 178 500 178 500 134 590 c 0,95,96
 56 747 56 747 56 923 c 2,97,-1
 56 954 l 1,98,-1
 57 955 l 2,99,100
 67 1157 67 1157 163 1313 c 0,101,102
 267 1479 267 1479 431 1575 c 1,103,104
 595 1669 595 1669 793 1672 c 1,71,-1
EndSplineSet
Validated: 33
EndChar

StartChar: trademark
Encoding: 563 8482 140
Width: 1808
GlyphClass: 2
Flags: W
LayerCount: 2
Fore
SplineSet
796 882 m 0,0,1
 742 902 742 902 727 947.5 c 128,-1,2
 712 993 712 993 737 1041 c 1,3,-1
 899 1381 l 1,4,5
 875 1373 875 1373 845 1373 c 2,6,-1
 618 1373 l 1,7,-1
 620 977 l 2,8,9
 620 929 620 929 587 898 c 0,10,11
 555 867 555 867 501 865 c 0,12,13
 446 862 446 862 411 890 c 0,14,15
 376 919 376 919 376 968 c 2,16,-1
 372 1373 l 1,17,-1
 143 1373 l 2,18,19
 95 1373 95 1373 65.5 1401 c 128,-1,20
 36 1429 36 1429 37 1472 c 0,21,22
 38 1521 38 1521 68.5 1552.5 c 128,-1,23
 99 1584 99 1584 152 1584 c 2,24,-1
 836 1584 l 2,25,26
 892 1584 892 1584 930 1558 c 0,27,28
 954 1542 954 1542 964 1517 c 1,29,30
 980 1546 980 1546 1008 1564 c 0,31,32
 1039 1584 1039 1584 1078 1586 c 0,33,34
 1125 1588 1125 1588 1159 1567 c 0,35,36
 1194 1544 1194 1544 1205 1505 c 2,37,-1
 1271 1272 l 1,38,-1
 1371 1511 l 2,39,40
 1384 1542 1384 1542 1418 1564 c 0,41,42
 1449 1584 1449 1584 1488 1586 c 0,43,44
 1534 1588 1534 1588 1569 1567 c 0,45,46
 1602 1546 1602 1546 1615 1506 c 2,47,-1
 1764 1036 l 1,48,49
 1773 1003 1773 1003 1772.5 973.5 c 128,-1,50
 1772 944 1772 944 1754.5 919.5 c 128,-1,51
 1737 895 1737 895 1703 882 c 0,52,53
 1693 879 1693 879 1685 877 c 0,54,55
 1631 863 1631 863 1591 888 c 0,56,57
 1548 915 1548 915 1535 963 c 2,58,-1
 1472 1201 l 1,59,-1
 1372 959 l 2,60,61
 1339 879 1339 879 1259 871 c 0,62,63
 1210 866 1210 866 1175 892 c 0,64,65
 1136 920 1136 920 1125 963 c 2,66,-1
 1062 1201 l 1,67,-1
 962 958 l 2,68,69
 942 909 942 909 894 885 c 0,70,71
 849 862 849 862 796 882 c 0,0,1
EndSplineSet
Validated: 33
EndChar

StartChar: acute
Encoding: 115 180 141
Width: 1139
GlyphClass: 2
Flags: W
LayerCount: 2
Fore
SplineSet
641 1627 m 4,0,1
 647 1622 647 1622 652 1618 c 4,2,3
 694 1580 694 1580 696 1530.5 c 132,-1,4
 698 1481 698 1481 659 1439 c 6,5,-1
 422 1179 l 6,6,7
 416 1173 416 1173 411 1167 c 4,8,9
 381 1136 381 1136 348.5 1120 c 132,-1,10
 316 1104 316 1104 281 1107 c 132,-1,11
 246 1110 246 1110 217 1138 c 4,12,13
 188 1166 188 1166 184.5 1203.5 c 132,-1,14
 181 1241 181 1241 196.5 1276.5 c 132,-1,15
 212 1312 212 1312 242 1350 c 6,16,-1
 450 1610 l 6,17,18
 488 1658 488 1658 540.5 1662 c 132,-1,19
 593 1666 593 1666 641 1627 c 4,0,1
EndSplineSet
Validated: 33
EndChar

StartChar: dieresis
Encoding: 103 168 142
Width: 1139
GlyphClass: 2
Flags: W
LayerCount: 2
Fore
SplineSet
845 1412 m 4,0,1
 918 1412 918 1412 964 1377.5 c 132,-1,2
 1010 1343 1010 1343 1010 1277 c 4,3,4
 1010 1212 1010 1212 963.5 1178 c 132,-1,5
 917 1144 917 1144 843 1144 c 4,6,7
 773 1144 773 1144 728.5 1177.5 c 132,-1,8
 684 1211 684 1211 684 1274 c 4,9,10
 684 1340 684 1340 729 1376 c 132,-1,11
 774 1412 774 1412 845 1412 c 4,0,1
340 1412 m 4,12,13
 413 1412 413 1412 459.5 1377.5 c 132,-1,14
 506 1343 506 1343 506 1277 c 4,15,16
 506 1212 506 1212 459 1178 c 132,-1,17
 412 1144 412 1144 338 1144 c 4,18,19
 268 1144 268 1144 224 1177.5 c 132,-1,20
 180 1211 180 1211 180 1274 c 4,21,22
 180 1340 180 1340 224.5 1376 c 132,-1,23
 269 1412 269 1412 340 1412 c 4,12,13
EndSplineSet
Validated: 1
EndChar

StartChar: notequal
Encoding: 581 8800 143
Width: 1250
GlyphClass: 2
Flags: W
LayerCount: 2
Fore
SplineSet
803 1282 m 2,0,1
 820 1319 820 1319 852 1333 c 0,2,3
 893 1350 893 1350 945 1324 c 0,4,5
 985 1304 985 1304 1000 1267 c 0,6,7
 1015 1230 1015 1230 997 1187 c 0,8,-1
 468 16 l 2,9,10
 447 -31 447 -31 404 -47 c 0,11,12
 362 -63 362 -63 314 -42 c 0,13,14
 267 -21 267 -21 252 22 c 0,15,16
 237 64 237 64 259 111 c 2,17,-1
 803 1282 l 2,0,1
EndSplineSet
Refer: 32 61 N 1 0 0 1 0 0 2
Validated: 37
EndChar

StartChar: AE
Encoding: 133 198 144
Width: 2226
GlyphClass: 2
Flags: W
LayerCount: 2
Fore
SplineSet
1290 1507 m 1,0,1
 1301 1508 1301 1508 1313 1508 c 2,2,-1
 2038 1512 l 2,3,4
 2121 1512 2121 1512 2172 1471.5 c 128,-1,5
 2223 1431 2223 1431 2225 1355 c 0,6,7
 2227 1287 2227 1287 2176.5 1252.5 c 128,-1,8
 2126 1218 2126 1218 2045 1217 c 0,9,10
 1768 1215 1768 1215 1398 1213 c 1,11,-1
 1391 978 l 1,12,-1
 1925 982 l 2,13,14
 2011 983 2011 983 2061.5 941.5 c 128,-1,15
 2112 900 2112 900 2114 824 c 0,16,17
 2116 756 2116 756 2065.5 721.5 c 128,-1,18
 2015 687 2015 687 1932 687 c 0,19,20
 1659 685 1659 685 1384 684 c 1,21,-1
 1372 239 l 1,22,-1
 1976 243 l 2,23,24
 2059 244 2059 244 2110 203 c 128,-1,25
 2161 162 2161 162 2163 86 c 0,26,27
 2165 18 2165 18 2114.5 -17 c 128,-1,28
 2064 -52 2064 -52 1983 -52 c 2,29,-1
 1249 -56 l 2,30,31
 1236 -56 1236 -56 1222 -54 c 1,32,-1
 1208 -54 l 1,33,34
 1145 -53 1145 -53 1107 -12 c 0,35,36
 1071 26 1071 26 1073 87 c 2,37,-1
 1089 678 l 1,38,-1
 788 678 l 1,39,-1
 270 83 l 2,40,41
 228 34 228 34 167 28 c 0,42,43
 110 22 110 22 57 65 c 1,44,45
 6 107 6 107 5 152.5 c 128,-1,46
 4 198 4 198 49 247 c 1,47,-1
 1066 1419 l 2,48,49
 1137 1500 1137 1500 1226 1508 c 0,50,51
 1239 1509 1239 1509 1251 1509 c 0,52,53
 1272 1509 1272 1509 1290 1507 c 1,0,1
1099 1067 m 1,54,-1
 1019 978 l 1,55,-1
 1097 978 l 1,56,-1
 1099 1067 l 1,54,-1
EndSplineSet
Validated: 33
EndChar

StartChar: Oslash
Encoding: 151 216 145
Width: 1635
GlyphClass: 2
Flags: W
LayerCount: 2
Fore
SplineSet
321 -48 m 2,0,1
 287 -85 287 -85 218 -87 c 0,2,3
 162 -89 162 -89 113 -54 c 1,4,5
 67 -21 67 -21 70 18 c 0,6,7
 73 100 73 100 118 148 c 2,8,-1
 1386 1492 l 2,9,10
 1410 1517 1410 1517 1454 1534 c 0,11,12
 1486 1546 1486 1546 1526 1545 c 0,13,14
 1567 1543 1567 1543 1597 1525 c 0,15,16
 1605 1520 1605 1520 1611 1515 c 0,17,18
 1654 1483 1654 1483 1651 1445 c 0,19,20
 1644 1365 1644 1365 1602 1320 c 2,21,-1
 321 -48 l 2,0,1
EndSplineSet
Refer: 50 79 N 1 0 0 1 33 0 2
Validated: 37
EndChar

StartChar: infinity
Encoding: 578 8734 146
Width: 1714
GlyphClass: 2
Flags: W
LayerCount: 2
Fore
SplineSet
443 1001 m 0,0,1
 660 1012 660 1012 851 828 c 1,2,3
 1006 989 1006 989 1215 995 c 0,4,5
 1399 1001 1399 1001 1500.5 907 c 128,-1,6
 1602 813 1602 813 1608 630 c 0,7,8
 1614 461 1614 461 1518.5 367 c 128,-1,9
 1423 273 1423 273 1240 265 c 0,10,11
 1074 257 1074 257 868 466 c 1,12,13
 685 272 685 272 460 269 c 0,14,15
 450 269 450 269 440 268 c 0,16,17
 275 270 275 270 189 367 c 128,-1,18
 103 464 103 464 106 640 c 0,19,20
 108 806 108 806 195 899.5 c 128,-1,21
 282 993 282 993 443 1001 c 0,0,1
1014 643 m 1,22,23
 1149 499 1149 499 1235 497 c 0,24,25
 1299 496 1299 496 1328 525.5 c 128,-1,26
 1357 555 1357 555 1361 627 c 0,27,28
 1361 634 1361 634 1361 641 c 0,29,30
 1361 708 1361 708 1331 736 c 128,-1,31
 1301 764 1301 764 1226 764 c 0,32,33
 1127 764 1127 764 1014 643 c 1,22,23
706 644 m 1,34,35
 575 769 575 769 466 767 c 0,36,37
 396 765 396 765 367 734.5 c 128,-1,38
 338 704 338 704 338 632 c 0,39,40
 338 627 338 627 338 623 c 0,41,42
 340 561 340 561 370.5 536 c 128,-1,43
 401 511 401 511 475 513 c 0,44,45
 595 517 595 517 706 644 c 1,34,35
EndSplineSet
Validated: 33
EndChar

StartChar: plusminus
Encoding: 112 177 147
Width: 1250
GlyphClass: 2
Flags: W
LayerCount: 2
Fore
SplineSet
332 127 m 2,0,-1
 891 129 l 2,1,2
 956 129 956 129 998 99 c 128,-1,3
 1040 69 1040 69 1040 10.5 c 128,-1,4
 1040 -48 1040 -48 999.5 -79 c 128,-1,5
 959 -110 959 -110 896 -110 c 2,6,-1
 324 -109 l 2,7,8
 271 -109 271 -109 239 -77 c 128,-1,9
 207 -45 207 -45 207 8 c 0,10,11
 208 63 208 63 242 95 c 128,-1,12
 276 127 276 127 332 127 c 2,0,-1
635 1048 m 4,13,14
 693 1047 693 1047 725.5 1008.5 c 132,-1,15
 758 970 758 970 758 910 c 6,16,-1
 758 754 l 5,17,-1
 918 755 l 6,18,19
 978 755 978 755 1016 721 c 4,20,21
 1054 687 1054 687 1054 629 c 4,22,23
 1054 571 1054 571 1016 538.5 c 132,-1,24
 978 506 978 506 917 505 c 6,25,-1
 758 504 l 5,26,-1
 758 314 l 6,27,28
 758 257 758 257 723 222.5 c 132,-1,29
 688 188 688 188 631 189 c 4,30,31
 573 190 573 190 538 225 c 4,32,33
 504 260 504 260 505 318 c 6,34,-1
 506 501 l 5,35,-1
 321 500 l 6,36,37
 263 500 263 500 229 534 c 132,-1,38
 195 568 195 568 196 626 c 4,39,40
 196 684 196 684 231 718 c 4,41,42
 266 752 266 752 324 753 c 6,43,-1
 508 753 l 5,44,45
 509 832 509 832 508 912 c 4,46,47
 508 973 508 973 542 1011 c 132,-1,48
 576 1049 576 1049 635 1048 c 4,13,14
EndSplineSet
Validated: 33
EndChar

StartChar: lessequal
Encoding: 582 8804 148
Width: 1250
GlyphClass: 2
Flags: W
LayerCount: 2
Fore
SplineSet
330 86 m 6,0,-1
 865 88 l 6,1,2
 928 88 928 88 970 57 c 4,3,4
 1012 27 1012 27 1012 -31 c 4,5,6
 1012 -88 1012 -88 971 -119 c 4,7,8
 931 -150 931 -150 870 -150 c 6,9,-1
 322 -150 l 6,10,11
 270 -150 270 -150 238 -118 c 4,12,13
 206 -86 206 -86 206 -34 c 4,14,15
 206 20 206 20 241 53 c 4,16,17
 275 86 275 86 330 86 c 6,0,-1
EndSplineSet
Refer: 31 60 N 1 0 0 1 0 0 2
Validated: 1
EndChar

StartChar: greaterequal
Encoding: 583 8805 149
Width: 1250
GlyphClass: 2
Flags: W
LayerCount: 2
Fore
SplineSet
402 86 m 6,0,-1
 937 88 l 6,1,2
 1000 88 1000 88 1042 57 c 4,3,4
 1084 27 1084 27 1084 -31 c 4,5,6
 1084 -88 1084 -88 1043 -119 c 4,7,8
 1003 -150 1003 -150 942 -150 c 6,9,-1
 394 -150 l 6,10,11
 342 -150 342 -150 310 -118 c 4,12,13
 278 -86 278 -86 278 -34 c 4,14,15
 278 20 278 20 313 53 c 4,16,17
 347 86 347 86 402 86 c 6,0,-1
EndSplineSet
Refer: 33 62 N 1 0 0 1 0 0 2
Validated: 1
EndChar

StartChar: yen
Encoding: 100 165 150
Width: 1250
GlyphClass: 2
Flags: W
LayerCount: 2
Fore
SplineSet
115 1480 m 0,0,1
 160 1505 160 1505 203 1493 c 0,2,3
 248 1481 248 1481 273 1438 c 2,4,-1
 613 865 l 1,5,-1
 953 1438 l 2,6,7
 979 1482 979 1482 1023 1493 c 0,8,9
 1067 1505 1067 1505 1111 1480 c 0,10,11
 1157 1455 1157 1455 1170 1412 c 0,12,13
 1183 1368 1183 1368 1158 1323 c 2,14,-1
 822 742 l 1,15,-1
 897 742 l 2,16,17
 961 742 961 742 1004 712 c 0,18,19
 1045 683 1045 683 1051 624 c 0,20,21
 1062 532 1062 532 949 525 c 0,22,-1
 739 522 l 1,23,-1
 739 486 l 1,24,25
 978 489 978 489 992 482 c 0,26,27
 1047 453 1047 453 1051 396 c 0,28,29
 1055 334 1055 334 1015 299 c 128,-1,30
 975 264 975 264 909 264 c 2,31,-1
 740 264 l 1,32,-1
 740 35 l 2,33,34
 740 -23 740 -23 708.5 -60.5 c 128,-1,35
 677 -98 677 -98 621 -98 c 0,36,37
 563 -99 563 -99 528.5 -62 c 128,-1,38
 494 -25 494 -25 494 34 c 2,39,-1
 494 264 l 1,40,-1
 345 264 l 2,41,42
 279 264 279 264 236 296 c 0,43,44
 192 328 192 328 195 388 c 0,45,46
 197 442 197 442 248 469 c 0,47,48
 286 490 286 490 495 488 c 1,49,50
 495 504 495 504 495 520 c 1,51,52
 288 516 288 516 244 547 c 0,53,54
 193 583 193 583 195 616 c 0,55,56
 196 677 196 677 239 709.5 c 128,-1,57
 282 742 282 742 349 742 c 2,58,-1
 404 742 l 1,59,-1
 68 1323 l 2,60,61
 42 1368 42 1368 56 1412 c 0,62,63
 69 1455 69 1455 115 1480 c 0,0,1
EndSplineSet
Validated: 33
EndChar

StartChar: mu1
Encoding: 116 181 151
Width: 1250
GlyphClass: 2
Flags: W
LayerCount: 2
Fore
SplineSet
887 -94 m 4,0,1
 759 -94 759 -94 733 -22 c 5,2,3
 668 -38 668 -38 594 -37 c 4,4,5
 450 -36 450 -36 355 4 c 5,6,-1
 285 -288 l 6,7,8
 273 -340 273 -340 236 -375 c 4,9,10
 201 -408 201 -408 150 -408 c 4,11,12
 114 -408 114 -408 87 -401 c 4,13,14
 37 -388 37 -388 15 -350 c 4,15,16
 -6 -312 -6 -312 7 -262 c 6,17,-1
 173 394 l 5,18,-1
 194 469 l 5,19,-1
 308 922 l 6,20,21
 325 988 325 988 356 1032 c 4,22,23
 386 1073 386 1073 435 1077 c 4,24,25
 476 1081 476 1081 506 1073 c 4,26,27
 559 1061 559 1061 579 1018 c 4,28,29
 598 976 598 976 584 920 c 6,30,-1
 483 501 l 6,31,32
 475 469 475 469 472 453 c 5,33,34
 471 438 471 438 468 420 c 5,35,36
 467 407 467 407 467 397 c 4,37,38
 465 327 465 327 493.5 297 c 132,-1,39
 522 267 522 267 592 266 c 4,40,41
 738 263 738 263 808 363 c 5,42,-1
 948 944 l 6,43,44
 963 1006 963 1006 1002 1043 c 4,45,46
 1041 1080 1041 1080 1100 1079 c 4,47,48
 1125 1078 1125 1078 1145 1074 c 4,49,50
 1199 1062 1199 1062 1220 1019 c 4,51,52
 1241 978 1241 978 1227 923 c 6,53,-1
 1020 27 l 6,54,55
 1008 -26 1008 -26 973 -61 c 4,56,57
 939 -94 939 -94 887 -94 c 4,0,1
EndSplineSet
Validated: 33
EndChar

StartChar: partialdiff
Encoding: 570 8706 152
Width: 1042
GlyphClass: 2
Flags: W
LayerCount: 2
Fore
SplineSet
248 1492 m 0,0,1
 257 1503 257 1503 266 1511 c 0,2,3
 297 1536 297 1536 332 1536.5 c 128,-1,4
 367 1537 367 1537 404 1516 c 128,-1,5
 441 1495 441 1495 475 1464 c 128,-1,6
 509 1433 509 1433 548 1389 c 0,7,8
 959 917 959 917 968 593 c 0,9,10
 981 184 981 184 774 41 c 0,11,12
 633 -55 633 -55 492 -46.5 c 128,-1,13
 351 -38 351 -38 223 73 c 0,14,15
 112 169 112 169 92 306 c 0,16,17
 74 433 74 433 135 594 c 0,18,19
 220 825 220 825 573 933 c 1,20,21
 540 1007 540 1007 454 1114 c 0,22,23
 360 1231 360 1231 274 1293 c 0,24,25
 220 1332 220 1332 213 1386.5 c 128,-1,26
 206 1441 206 1441 248 1492 c 0,0,1
670 709 m 1,27,28
 450 663 450 663 385 528 c 0,29,30
 332 415 332 415 357 344 c 0,31,32
 376 288 376 288 406.5 258 c 128,-1,33
 437 228 437 228 480 218 c 0,34,35
 541 204 541 204 584 223 c 0,36,37
 629 243 629 243 661 302 c 0,38,39
 751 465 751 465 690 648 c 0,40,41
 681 679 681 679 670 709 c 1,27,28
EndSplineSet
Validated: 33
EndChar

StartChar: pi
Encoding: 413 960 155
Width: 1286
GlyphClass: 2
Flags: W
LayerCount: 2
Fore
SplineSet
198 721 m 2,0,1
 89 699 89 699 49 758 c 0,2,3
 20 801 20 801 23.5 846 c 128,-1,4
 27 891 27 891 61 930 c 0,5,6
 159 1039 159 1039 283 1039 c 2,7,-1
 1084 1039 l 6,8,9
 1158 1039 1158 1039 1205 1005.5 c 132,-1,10
 1252 972 1252 972 1250 904 c 4,11,12
 1249 837 1249 837 1201.5 804 c 132,-1,13
 1154 771 1154 771 1081 771 c 6,14,-1
 1034 771 l 5,15,-1
 985 283 l 6,16,17
 979 225 979 225 988 209 c 5,18,19
 1067 166 1067 166 1080 117 c 4,20,21
 1090 78 1090 78 1079 41 c 4,22,23
 1067 2 1067 2 1032 -18 c 4,24,25
 959 -61 959 -61 871 -10 c 5,26,27
 768 40 768 40 734 125 c 4,28,29
 727 143 727 143 725.5 170.5 c 132,-1,30
 724 198 724 198 726 227 c 4,31,32
 726 231 726 231 735 309 c 6,33,-1
 782 771 l 5,34,-1
 584 771 l 1,35,-1
 511 72 l 2,36,37
 505 18 505 18 463 -15 c 0,38,39
 420 -48 420 -48 358 -41 c 0,40,41
 295 -33 295 -33 262 9 c 0,42,43
 231 48 231 48 237 106 c 2,44,-1
 311 787 l 1,45,46
 298 785 298 785 289 783 c 1,47,-1
 206 723 l 1,48,-1
 198 721 l 2,0,1
EndSplineSet
Validated: 33
EndChar

StartChar: integral
Encoding: 579 8747 156
Width: 1433
GlyphClass: 2
Flags: W
LayerCount: 2
Fore
SplineSet
846 567 m 128,-1,1
 846 114 846 114 799 -57 c 128,-1,2
 752 -228 752 -228 670 -319 c 128,-1,3
 588 -410 588 -410 471 -406 c 0,4,5
 295 -401 295 -401 184 -305 c 0,6,7
 76 -210 76 -210 40 -30 c 0,8,9
 37 -16 37 -16 36 -3 c 0,10,11
 29 65 29 65 65 109.5 c 128,-1,12
 101 154 101 154 170 161 c 128,-1,13
 239 168 239 168 278.5 118 c 128,-1,14
 318 68 318 68 328 -17 c 0,15,16
 333 -62 333 -62 359.5 -86.5 c 128,-1,17
 386 -111 386 -111 443 -121 c 0,18,19
 474 -127 474 -127 494.5 -103 c 128,-1,20
 515 -79 515 -79 526 -1 c 0,21,22
 558 235 558 235 562 637 c 0,23,24
 567 1186 567 1186 617 1364 c 0,25,26
 664 1530 664 1530 756.5 1620.5 c 128,-1,27
 849 1711 849 1711 984 1716 c 0,28,29
 1249 1725 1249 1725 1336 1549 c 0,30,31
 1367 1485 1367 1485 1355.5 1429 c 128,-1,32
 1344 1373 1344 1373 1286 1340 c 0,33,34
 1252 1321 1252 1321 1216.5 1325 c 128,-1,35
 1181 1329 1181 1329 1148.5 1347 c 128,-1,36
 1116 1365 1116 1365 1086 1396 c 0,37,38
 1042 1441 1042 1441 978 1432 c 0,39,40
 941 1426 941 1426 919 1398 c 128,-1,41
 897 1370 897 1370 888 1307 c 0,42,0
 846 1020 846 1020 846 567 c 128,-1,1
EndSplineSet
Validated: 33
EndChar

StartChar: ordfeminine
Encoding: 105 170 157
Width: 1250
GlyphClass: 2
Flags: W
LayerCount: 2
Fore
SplineSet
485 876 m 4,0,1
 333 887 333 887 250 988.5 c 132,-1,2
 167 1090 167 1090 161 1267 c 4,3,4
 153 1482 153 1482 280 1630 c 4,5,6
 409 1779 409 1779 716 1734 c 5,7,8
 759 1757 759 1757 825 1741 c 4,9,10
 892 1726 892 1726 925 1673 c 132,-1,11
 958 1620 958 1620 955 1543 c 4,12,13
 951 1435 951 1435 949 1311 c 4,14,15
 948 1225 948 1225 956 1167 c 132,-1,16
 964 1109 964 1109 976 1089 c 4,17,18
 1008 1035 1008 1035 1016 993 c 4,19,20
 1026 942 1026 942 1000 905 c 132,-1,21
 974 868 974 868 924 857 c 4,22,23
 863 844 863 844 814.5 865.5 c 132,-1,24
 766 887 766 887 744 940 c 5,25,26
 609 867 609 867 485 876 c 4,0,1
573 1167 m 4,27,28
 637 1182 637 1182 668 1204 c 5,29,-1
 658 1461 l 5,30,31
 621 1479 621 1479 556 1471 c 4,32,33
 492 1463 492 1463 447 1401 c 4,34,35
 415 1357 415 1357 422 1269 c 4,36,37
 428 1185 428 1185 463 1170 c 4,38,39
 504 1151 504 1151 573 1167 c 4,27,28
EndSplineSet
Validated: 33
EndChar

StartChar: ordmasculine
Encoding: 121 186 158
Width: 1250
GlyphClass: 2
Flags: W
LayerCount: 2
Fore
SplineSet
501 1670 m 4,0,1
 568 1692 568 1692 640 1692 c 4,2,3
 677 1692 677 1692 713 1686 c 4,4,5
 827 1666 827 1666 909 1598 c 5,6,7
 994 1528 994 1528 1031 1431 c 4,8,9
 1053 1373 1053 1373 1055 1294 c 4,10,11
 1056 1259 1056 1259 1050 1226 c 4,12,13
 1031 1118 1031 1118 957 1034 c 4,14,15
 886 953 886 953 774 916 c 4,16,17
 709 895 709 895 639 895 c 4,18,19
 595 895 595 895 554 903 c 4,20,21
 442 925 442 925 358 1000 c 4,22,23
 278 1071 278 1071 244 1170 c 4,24,25
 224 1230 224 1230 223 1294 c 4,26,27
 223 1334 223 1334 231 1373 c 4,28,29
 253 1479 253 1479 325 1556 c 4,30,31
 399 1636 399 1636 501 1670 c 4,0,1
643 1149 m 6,32,33
 685 1149 685 1149 721 1170 c 4,34,35
 758 1192 758 1192 777 1226 c 4,36,37
 795 1258 795 1258 796 1296 c 5,38,-1
 795 1298 l 5,39,-1
 795 1302 l 6,40,41
 793 1345 793 1345 770 1377 c 4,42,43
 755 1400 755 1400 729 1418 c 4,44,45
 704 1434 704 1434 673 1440 c 4,46,47
 658 1443 658 1443 642 1444 c 4,48,49
 597 1444 597 1444 559 1421 c 4,50,51
 516 1394 516 1394 497 1348 c 4,52,53
 488 1323 488 1323 488 1296 c 4,54,55
 488 1275 488 1275 494 1254 c 4,56,57
 509 1207 509 1207 549 1178 c 4,58,59
 589 1149 589 1149 641 1149 c 6,60,-1
 643 1149 l 6,32,33
EndSplineSet
Validated: 33
EndChar

StartChar: Omega
Encoding: 390 937 159
Width: 1966
GlyphClass: 2
Flags: W
LayerCount: 2
Fore
SplineSet
762.5 -77.5 m 128,-1,1
 723 -88 723 -88 672 -88 c 2,2,-1
 177 -88 l 2,3,4
 109 -88 109 -88 66 -54.5 c 128,-1,5
 23 -21 23 -21 24 43 c 128,-1,6
 25 107 25 107 68.5 141 c 128,-1,7
 112 175 112 175 180 175 c 2,8,-1
 432 175 l 1,9,10
 305 355 305 355 274 525 c 0,11,12
 214 863 214 863 300 1119 c 0,13,14
 382 1364 382 1364 615 1520 c 0,15,16
 778 1628 778 1628 1070 1632 c 0,17,18
 1365 1636 1365 1636 1509 1520 c 0,19,20
 1717 1352 1717 1352 1761 1079 c 0,21,22
 1810 775 1810 775 1710 455 c 0,23,24
 1667 318 1667 318 1563 175 c 1,25,-1
 1795 175 l 2,26,27
 1863 175 1863 175 1906 141 c 128,-1,28
 1949 107 1949 107 1951 43 c 0,29,30
 1952 -21 1952 -21 1908.5 -54.5 c 128,-1,31
 1865 -88 1865 -88 1798 -88 c 2,32,-1
 1370 -88 l 2,33,34
 1214 -88 1214 -88 1171 7 c 0,35,36
 1130 97 1130 97 1234 216 c 0,37,38
 1407 409 1407 409 1445 571 c 0,39,40
 1503 814 1503 814 1469 1012 c 0,41,42
 1434 1210 1434 1210 1312 1294 c 0,43,44
 1200 1371 1200 1371 1057 1364 c 0,45,46
 878 1357 878 1357 766 1279 c 0,47,48
 609 1172 609 1172 578 1046 c 0,49,50
 518 808 518 808 561 603 c 0,51,52
 593 448 593 448 781 197 c 0,53,54
 856 98 856 98 856 31 c 0,55,56
 856 -12 856 -12 829 -39.5 c 128,-1,0
 802 -67 802 -67 762.5 -77.5 c 128,-1,1
EndSplineSet
Validated: 33
EndChar

StartChar: oslash
Encoding: 183 248 161
Width: 1092
GlyphClass: 2
Flags: W
LayerCount: 2
Fore
SplineSet
231 -23 m 2,0,1
 210 -46 210 -46 158 -52 c 0,2,3
 117 -56 117 -56 79 -37 c 1,4,5
 37 -13 37 -13 33 16 c 0,6,7
 25 83 25 83 63 125 c 2,8,-1
 879 1026 l 2,9,10
 897 1045 897 1045 950 1046 c 0,11,12
 991 1047 991 1047 1024 1028 c 0,13,14
 1072 1001 1072 1001 1070 971 c 0,15,16
 1069 911 1069 911 1045 884 c 2,17,-1
 231 -23 l 2,0,1
EndSplineSet
Refer: 82 111 N 1 0 0 1 0 0 2
Validated: 37
EndChar

StartChar: logicalnot
Encoding: 107 172 164
Width: 1250
GlyphClass: 2
Flags: W
LayerCount: 2
Fore
SplineSet
150 646 m 4,0,1
 149 708 149 708 191 742 c 132,-1,2
 233 776 233 776 299 776 c 6,3,-1
 919 776 l 6,4,5
 998 776 998 776 1048.5 744 c 4,6,7
 1100 712 1100 712 1100 646 c 6,8,-1
 1100 644 l 5,9,10
 1100 636 1100 636 1100 628 c 6,11,-1
 1100 334 l 6,12,13
 1100 278 1100 278 1067.5 242 c 132,-1,14
 1035 206 1035 206 979 206 c 4,15,16
 918 205 918 205 880 239 c 132,-1,17
 842 273 842 273 842 332 c 6,18,-1
 842 518 l 5,19,-1
 288 518 l 6,20,21
 227 518 227 518 189 552.5 c 132,-1,22
 151 587 151 587 150 646 c 4,0,1
EndSplineSet
Validated: 33
EndChar

StartChar: radical
Encoding: 577 8730 165
Width: 1244
GlyphClass: 2
Flags: W
LayerCount: 2
Fore
SplineSet
94 584 m 0,0,1
 157 609 157 609 209 580 c 0,2,3
 262 551 262 551 296 483 c 2,4,-1
 325 426 l 1,5,-1
 625 1500 l 2,6,7
 639 1549 639 1549 670 1583 c 0,8,9
 705 1620 705 1620 768 1620 c 2,10,-1
 1116 1621 l 2,11,12
 1176 1621 1176 1621 1211 1584 c 128,-1,13
 1246 1547 1246 1547 1246 1487 c 0,14,15
 1246 1430 1246 1430 1210.5 1396 c 128,-1,16
 1175 1362 1175 1362 1116 1361 c 0,17,18
 978 1360 978 1360 878 1360 c 1,19,-1
 521 81 l 2,20,21
 482 -59 482 -59 375 -73 c 0,22,23
 318 -80 318 -80 279 -54 c 0,24,25
 235 -25 235 -25 208 30 c 2,26,-1
 34 373 l 2,27,28
 29 384 29 384 25 392 c 0,29,30
 -3 452 -3 452 15 505.5 c 128,-1,31
 33 559 33 559 94 584 c 0,0,1
EndSplineSet
Validated: 33
EndChar

StartChar: florin
Encoding: 319 402 166
Width: 1206
GlyphClass: 2
Flags: W
LayerCount: 2
Fore
SplineSet
189 -330 m 4,0,1
 118 -366 118 -366 69 -361 c 4,2,3
 18 -356 18 -356 -17 -330.5 c 132,-1,4
 -52 -305 -52 -305 -62 -258 c 4,5,6
 -74 -192 -74 -192 -39 -146 c 132,-1,7
 -4 -100 -4 -100 63 -82 c 5,8,9
 168 -52 168 -52 238 32 c 4,10,11
 307 110 307 110 333 248 c 4,12,13
 367 426 367 426 407 587 c 5,14,15
 344 586 344 586 286 585 c 4,16,17
 275 585 275 585 265 586 c 4,18,19
 198 589 198 589 157 620 c 4,20,21
 119 652 119 652 122 707 c 4,22,23
 125 769 125 769 170 803 c 4,24,25
 218 836 218 836 295 837 c 6,26,-1
 476 838 l 5,27,28
 520 983 520 983 570 1111 c 4,29,30
 649 1330 649 1330 800 1453 c 4,31,32
 925 1556 925 1556 1117 1561 c 4,33,34
 1132 1562 1132 1562 1146 1561 c 4,35,36
 1202 1557 1202 1557 1236.5 1522 c 132,-1,37
 1271 1487 1271 1487 1267 1430 c 4,38,39
 1263 1364 1263 1364 1219.5 1327 c 132,-1,40
 1176 1290 1176 1290 1107 1288 c 4,41,42
 994 1285 994 1285 934 1211 c 4,43,44
 855 1115 855 1115 824 1023 c 4,45,46
 790 930 790 930 759 833 c 5,47,-1
 886 834 l 6,48,49
 952 835 952 835 997 808 c 4,50,51
 1041 781 1041 781 1047 728 c 4,52,53
 1048 721 1048 721 1047 714 c 4,54,55
 1048 655 1048 655 1010 620 c 4,56,57
 970 585 970 585 904 583 c 6,58,-1
 690 580 l 5,59,60
 652 421 652 421 624 252 c 4,61,62
 563 -108 563 -108 389 -214 c 4,63,64
 265 -294 265 -294 189 -330 c 4,0,1
EndSplineSet
Validated: 33
EndChar

StartChar: uni0394
Encoding: 370 916 168
Width: 1627
GlyphClass: 2
Flags: W
LayerCount: 2
Fore
SplineSet
1590 -19 m 0,0,1
 1564 -51 1564 -51 1511 -51 c 2,2,-1
 158 -51 l 1,3,4
 131 -52 131 -52 102 -48 c 0,5,6
 85 -45 85 -45 71 -39 c 0,7,8
 47 -28 47 -28 33 -9 c 128,-1,9
 19 10 19 10 17 34 c 0,10,11
 15 56 15 56 19 79 c 0,12,13
 23 103 23 103 33 126 c 2,14,-1
 638 1530 l 2,15,16
 662 1585 662 1585 709 1624 c 0,17,18
 753 1660 753 1660 810 1658 c 1,19,20
 867 1660 867 1660 913 1624 c 0,21,22
 959 1589 959 1589 985 1530 c 2,23,-1
 1590 123 l 2,24,25
 1610 76 1610 76 1610 40.5 c 128,-1,26
 1610 5 1610 5 1590 -19 c 0,0,1
1239 244 m 1,27,-1
 811 1268 l 1,28,-1
 396 244 l 1,29,-1
 1239 244 l 1,27,-1
EndSplineSet
Validated: 33
EndChar

StartChar: endash
Encoding: 531 8211 178
Width: 904
GlyphClass: 2
Flags: W
LayerCount: 2
Fore
SplineSet
133 788 m 2,0,-1
 715 789 l 2,1,2
 785 790 785 790 828 752.5 c 0,3,4
 872 715 872 715 872 648 c 128,-1,5
 872 581 872 581 830.5 542.5 c 128,-1,6
 789 504 789 504 721 504 c 2,7,-1
 124 504 l 2,8,9
 66 504 66 504 34 543.5 c 128,-1,10
 2 583 2 583 2 644 c 0,11,12
 2 708 2 708 37 748 c 128,-1,13
 72 788 72 788 133 788 c 2,0,-1
EndSplineSet
Validated: 33
EndChar

StartChar: emdash
Encoding: 532 8212 179
Width: 1808
GlyphClass: 2
Flags: W
LayerCount: 2
Fore
SplineSet
203 782 m 2,0,-1
 1575 786 l 2,1,2
 1654 786 1654 786 1703.5 750 c 0,3,4
 1754 714 1754 714 1754 645 c 128,-1,5
 1754 576 1754 576 1707.5 539 c 128,-1,6
 1661 502 1661 502 1586 502 c 2,7,-1
 185 502 l 2,8,9
 114 502 114 502 70 538.5 c 128,-1,10
 26 575 26 575 26 641 c 0,11,12
 26 710 26 710 75 746 c 128,-1,13
 124 782 124 782 203 782 c 2,0,-1
EndSplineSet
Validated: 1
EndChar

StartChar: quotedblleft
Encoding: 539 8220 180
Width: 888
GlyphClass: 2
Flags: W
LayerCount: 2
Fore
SplineSet
224 1611 m 4,0,1
 286 1617 286 1617 327 1584 c 4,2,3
 366 1553 366 1553 373 1491 c 6,4,-1
 403 1249 l 6,5,6
 412 1179 412 1179 388 1122 c 4,7,8
 365 1070 365 1070 306 1058 c 4,9,10
 244 1046 244 1046 207 1090 c 4,11,12
 174 1128 174 1128 158 1207 c 6,13,-1
 105 1466 l 6,14,15
 104 1470 104 1470 103 1479 c 4,16,17
 98 1535 98 1535 132 1570.5 c 132,-1,18
 166 1606 166 1606 224 1611 c 4,0,1
556 1611 m 4,19,20
 618 1617 618 1617 659 1584 c 4,21,22
 698 1553 698 1553 705 1491 c 6,23,-1
 735 1249 l 6,24,25
 744 1179 744 1179 720 1122 c 4,26,27
 697 1070 697 1070 638 1058 c 4,28,29
 576 1046 576 1046 539 1089 c 4,30,31
 506 1127 506 1127 490 1207 c 6,32,-1
 437 1466 l 6,33,34
 436 1470 436 1470 435 1479 c 4,35,36
 430 1535 430 1535 464 1570.5 c 132,-1,37
 498 1606 498 1606 556 1611 c 4,19,20
EndSplineSet
Validated: 33
EndChar

StartChar: quotedblright
Encoding: 540 8221 181
Width: 888
GlyphClass: 2
Flags: W
LayerCount: 2
Fore
SplineSet
645 1612 m 4,0,1
 653 1611 653 1611 660 1611 c 4,2,3
 716 1602 716 1602 744 1562 c 4,4,5
 775 1520 775 1520 764 1466 c 6,6,-1
 711 1205 l 6,7,8
 711 1205 711 1205 709 1191 c 4,9,10
 696 1123 696 1123 659 1084 c 132,-1,11
 622 1045 622 1045 563 1056 c 4,12,13
 505 1068 505 1068 482 1120 c 4,14,15
 457 1177 457 1177 466 1247 c 6,16,-1
 496 1492 l 6,17,18
 504 1555 504 1555 542 1586 c 4,19,20
 583 1618 583 1618 645 1612 c 4,0,1
313 1612 m 4,21,22
 321 1611 321 1611 328 1611 c 4,23,24
 384 1602 384 1602 412 1562 c 4,25,26
 443 1520 443 1520 432 1467 c 6,27,-1
 379 1205 l 6,28,29
 379 1205 379 1205 377 1191 c 4,30,31
 364 1123 364 1123 327 1084 c 132,-1,32
 290 1045 290 1045 231 1056 c 4,33,34
 173 1068 173 1068 150 1120 c 4,35,36
 125 1177 125 1177 134 1247 c 6,37,-1
 164 1492 l 6,38,39
 172 1555 172 1555 210 1586 c 4,40,41
 251 1618 251 1618 313 1612 c 4,21,22
EndSplineSet
Validated: 33
EndChar

StartChar: quoteleft
Encoding: 535 8216 182
Width: 463
GlyphClass: 2
Flags: W
LayerCount: 2
Fore
SplineSet
181 1610 m 0,0,1
 243 1616 243 1616 284 1583 c 0,2,3
 323 1552 323 1552 330 1490 c 2,4,-1
 360 1245 l 2,5,6
 369 1174 369 1174 345 1118 c 0,7,8
 322 1066 322 1066 263 1054 c 0,9,10
 201 1042 201 1042 164 1086 c 0,11,12
 131 1124 131 1124 115 1203 c 2,13,-1
 62 1464 l 2,14,15
 61 1468 61 1468 60 1478 c 0,16,17
 55 1534 55 1534 89 1569.5 c 128,-1,18
 123 1605 123 1605 181 1610 c 0,0,1
EndSplineSet
Validated: 33
EndChar

StartChar: quoteright
Encoding: 536 8217 183
AltUni2: 00201b.ffffffff.0
Width: 463
GlyphClass: 2
Flags: W
LayerCount: 2
Fore
SplineSet
255 1609 m 4,0,1
 263 1608 263 1608 270 1608 c 4,2,3
 326 1599 326 1599 354 1559 c 4,4,5
 385 1516 385 1516 374 1464 c 6,6,-1
 321 1203 l 6,7,8
 321 1203 321 1203 319 1189 c 4,9,10
 306 1121 306 1121 269 1082 c 132,-1,11
 232 1043 232 1043 173 1054 c 4,12,13
 115 1066 115 1066 92 1118 c 4,14,15
 67 1175 67 1175 76 1245 c 6,16,-1
 106 1489 l 6,17,18
 114 1552 114 1552 152 1583 c 4,19,20
 193 1615 193 1615 255 1609 c 4,0,1
EndSplineSet
Validated: 33
EndChar

StartChar: divide
Encoding: 182 247 184
Width: 1250
GlyphClass: 2
Flags: W
LayerCount: 2
Fore
SplineSet
191.5 738.5 m 128,-1,1
 226 776 226 776 284 776 c 2,2,-1
 947 778 l 2,3,4
 1015 778 1015 778 1058 743.5 c 128,-1,5
 1101 709 1101 709 1102 643 c 0,6,7
 1102 577 1102 577 1060.5 541.5 c 128,-1,8
 1019 506 1019 506 953 506 c 2,9,-1
 276 506 l 2,10,11
 222 506 222 506 189.5 542.5 c 128,-1,12
 157 579 157 579 157 639 c 0,13,0
 157 701 157 701 191.5 738.5 c 128,-1,1
527 422 m 1,14,15
 551 442 551 442 583 451 c 0,16,17
 600 455 600 455 618 455 c 0,18,19
 636 455 636 455 653 451 c 0,20,21
 688 442 688 442 714 416 c 1,22,23
 743 390 743 390 752 354 c 0,24,25
 756 336 756 336 756 320 c 0,26,27
 756 300 756 300 752 286 c 0,28,29
 740 247 740 247 711 220 c 0,30,31
 682 195 682 195 637 187 c 0,32,33
 627 186 627 186 618 186 c 0,34,35
 587 186 587 186 558 199 c 0,36,37
 520 217 520 217 498 252 c 0,38,39
 479 282 479 282 478 320 c 0,40,41
 478 347 478 347 489 372 c 0,42,43
 501 401 501 401 527 422 c 1,14,15
527 1109 m 1,44,45
 551 1129 551 1129 583 1138 c 0,46,47
 600 1142 600 1142 618 1142 c 0,48,49
 636 1142 636 1142 653 1138 c 0,50,51
 688 1129 688 1129 714 1103 c 1,52,53
 743 1077 743 1077 752 1041 c 0,54,55
 756 1024 756 1024 756 1008 c 0,56,57
 756 988 756 988 752 973 c 0,58,59
 740 934 740 934 711 907 c 0,60,61
 682 882 682 882 637 874 c 0,62,63
 627 873 627 873 618 873 c 0,64,65
 587 873 587 873 558 886 c 0,66,67
 520 904 520 904 498 939 c 0,68,69
 479 970 479 970 478 1008 c 0,70,71
 478 1035 478 1035 489 1059 c 0,72,73
 501 1088 501 1088 527 1109 c 1,44,45
EndSplineSet
Validated: 1
EndChar

StartChar: lozenge
Encoding: 593 9674 185
Width: 1479
GlyphClass: 2
Flags: W
LayerCount: 2
Fore
SplineSet
610 -29 m 18,0,-1
 55 657 l 2,1,2
 41 674 41 674 26 703 c 0,3,4
 14 729 14 729 14 759 c 0,5,6
 14 788 14 788 26 816 c 0,7,8
 37 840 37 840 54 861 c 2,9,-1
 610 1545 l 2,10,11
 691 1644 691 1644 749 1639 c 8,12,13
 816 1633 816 1633 888 1545 c 18,14,-1
 1444 861 l 2,15,16
 1461 840 1461 840 1471 816 c 0,17,18
 1484 789 1484 789 1484 759 c 0,19,20
 1484 730 1484 730 1471 703 c 0,21,22
 1459 677 1459 677 1444 657 c 2,23,-1
 888 -29 l 2,24,25
 809 -127 809 -127 750 -123 c 0,26,27
 682 -118 682 -118 610 -29 c 18,0,-1
749 1279 m 1,28,-1
 325 759 l 1,29,-1
 749 236 l 1,30,-1
 1173 759 l 1,31,-1
 749 1279 l 1,28,-1
EndSplineSet
Validated: 33
EndChar

StartChar: fraction
Encoding: 553 8260 188
AltUni2: 002215.ffffffff.0
Width: 1661
GlyphClass: 2
Flags: W
LayerCount: 2
Fore
SplineSet
1590 1667 m 0,0,1
 1595 1663 1595 1663 1599 1660 c 0,2,3
 1646 1615 1646 1615 1643 1562 c 0,4,5
 1640 1507 1640 1507 1596 1459 c 2,6,-1
 237 -3 l 6,7,8
 189 -55 189 -55 134 -57 c 4,9,10
 77 -59 77 -59 28 -11 c 5,11,12
 -16 35 -16 35 -14 88 c 4,13,14
 -12 144 -12 144 32 191 c 6,15,-1
 1379 1629 l 2,16,17
 1430 1683 1430 1683 1481 1695 c 0,18,19
 1539 1707 1539 1707 1590 1667 c 0,0,1
EndSplineSet
Validated: 33
EndChar

StartChar: Euro
Encoding: 558 8364 189
Width: 1267
GlyphClass: 2
Flags: W
LayerCount: 2
Fore
SplineSet
15 440 m 2,0,1
 -42 440 -42 440 -75 480 c 0,2,3
 -108 519 -108 519 -108 580 c 0,4,5
 -108 644 -108 644 -73 683 c 0,6,7
 -38 722 -38 722 23 722 c 2,8,-1
 619 725 l 2,9,10
 689 725 689 725 732 689 c 0,11,12
 776 652 776 652 776 584 c 0,13,14
 776 519 776 519 734 481 c 0,15,16
 692 443 692 443 624 444 c 2,17,-1
 15 440 l 2,0,1
15 794 m 2,18,19
 -43 794 -43 794 -75 834 c 0,20,21
 -108 873 -108 873 -108 934 c 0,22,23
 -108 998 -108 998 -73 1037 c 0,24,25
 -38 1076 -38 1076 23 1076 c 2,26,-1
 742 1080 l 2,27,28
 812 1080 812 1080 855 1042 c 0,29,30
 898 1005 898 1005 898 938 c 0,31,32
 898 871 898 871 857 833 c 0,33,34
 815 794 815 794 747 794 c 2,35,-1
 15 794 l 2,18,19
EndSplineSet
Refer: 38 67 N 1 0 0 1 0 0 2
Validated: 37
EndChar

StartChar: fi
Encoding: 597 64257 192
Width: 1349
GlyphClass: 2
Flags: W
LayerCount: 2
Fore
SplineSet
1116 1464 m 0,0,1
 1147 1490 1147 1490 1187 1501 c 0,2,3
 1208 1507 1208 1507 1230 1505 c 0,4,5
 1252 1505 1252 1505 1273 1500 c 0,6,7
 1315 1488 1315 1488 1345 1457 c 1,8,9
 1382 1423 1382 1423 1390 1380 c 0,10,11
 1394 1361 1394 1361 1395 1341 c 2,12,-1
 1395 1340 l 1,13,-1
 1395 1338 l 2,14,15
 1395 1312 1395 1312 1391 1296 c 0,16,17
 1378 1247 1378 1247 1341 1214 c 0,18,19
 1303 1180 1303 1180 1251 1173 c 0,20,21
 1243 1172 1243 1172 1233 1171 c 2,22,-1
 1231 1171 l 1,23,-1
 1228 1171 l 2,24,25
 1189 1171 1189 1171 1156 1188 c 0,26,27
 1106 1210 1106 1210 1077 1254 c 0,28,29
 1052 1292 1052 1292 1052 1338 c 0,30,31
 1052 1348 1052 1348 1053 1358 c 1,32,33
 1046 1353 1046 1353 1038 1348 c 0,34,35
 982 1317 982 1317 902 1324 c 0,36,37
 806 1332 806 1332 754.5 1304.5 c 128,-1,38
 703 1277 703 1277 681 1211 c 0,39,40
 658 1140 658 1140 655 1048 c 1,41,-1
 1188 1048 l 2,42,43
 1197 1048 1197 1048 1208 1047 c 0,44,45
 1274 1045 1274 1045 1307 997 c 0,46,47
 1341 953 1341 953 1340 883 c 2,48,-1
 1326 117 l 2,49,50
 1325 45 1325 45 1290 -1 c 0,51,52
 1255 -50 1255 -50 1187 -50 c 0,53,54
 1112 -49 1112 -49 1069 -2 c 0,55,56
 1026 40 1026 40 1029 108 c 2,57,-1
 1045 765 l 1,58,-1
 649 765 l 1,59,-1
 633 -7 l 2,60,61
 632 -76 632 -76 585.5 -116.5 c 128,-1,62
 539 -157 539 -157 462 -156 c 0,63,64
 392 -155 392 -155 354 -112 c 0,65,66
 317 -70 317 -70 318 -4 c 2,67,-1
 337 765 l 1,68,-1
 226 765 l 2,69,70
 158 765 158 765 117 803 c 128,-1,71
 76 841 76 841 77 907 c 0,72,73
 78 974 78 974 122.5 1011 c 128,-1,74
 167 1048 167 1048 238 1048 c 2,75,-1
 344 1048 l 1,76,77
 357 1322 357 1322 466 1463 c 0,78,79
 564 1589 564 1589 842 1599 c 0,80,81
 913 1601 913 1601 964 1593 c 0,82,83
 1036 1582 1036 1582 1077 1543 c 0,84,85
 1113 1509 1113 1509 1108 1458 c 1,86,87
 1112 1461 1112 1461 1116 1464 c 0,0,1
EndSplineSet
Validated: 33
EndChar

StartChar: fl
Encoding: 598 64258 193
Width: 1343
GlyphClass: 2
Flags: W
LayerCount: 2
Fore
SplineSet
68 809 m 132,-1,1
 30 845 30 845 30 907 c 4,2,3
 31 971 31 971 72 1006 c 132,-1,4
 113 1041 113 1041 179 1041 c 6,5,-1
 302 1041 l 5,6,7
 318.626 1455.88 318.626 1455.88 640 1563 c 0,8,9
 811 1620 811 1620 1115 1605 c 1,10,11
 1133 1610 1133 1610 1153 1610 c 0,12,13
 1214 1610 1214 1610 1250 1572 c 0,14,15
 1287.42 1532.56 1287.42 1532.56 1286 1468 c 2,16,-1
 1256 100 l 2,17,18
 1254.61 36.5764 1254.61 36.5764 1217 -4 c 0,19,20
 1179 -44 1179 -44 1108.5 -43 c 128,-1,21
 1038 -42 1038 -42 1001 1 c 0,22,23
 966.454 41.6434 966.454 41.6434 968 103 c 2,24,-1
 999 1333 l 1,25,26
 744 1343 744 1343 666 1265 c 0,27,28
 591.311 1192 591.311 1192 584 1045 c 5,29,-1
 766 1045 l 6,30,31
 845 1045 845 1045 896.5 1014.5 c 4,32,33
 952 981.631 952 981.631 952 924 c 4,34,35
 952 918 952 918 952 912 c 4,36,37
 952 848 952 848 904 814 c 132,-1,38
 856 780 856 780 779 780 c 6,39,-1
 578 780 l 5,40,-1
 567 -7 l 2,41,42
 566.036 -75.9647 566.036 -75.9647 523 -117 c 0,43,44
 481 -157 481 -157 410 -156 c 0,45,46
 346 -155 346 -155 311 -112 c 0,47,48
 276.563 -69.6925 276.563 -69.6925 278 -4 c 2,49,-1
 295 773 l 5,50,-1
 168 773 l 6,51,0
 106 773 106 773 68 809 c 132,-1,1
EndSplineSet
Validated: 33
EndChar

StartChar: daggerdbl
Encoding: 543 8225 194
Width: 1222
GlyphClass: 2
Flags: W
LayerCount: 2
Fore
SplineSet
596 1694 m 0,0,1
 662 1694 662 1694 702 1655 c 128,-1,2
 742 1616 742 1616 740 1551 c 2,3,-1
 736 1374 l 1,4,-1
 1028 1374 l 2,5,6
 1105 1374 1105 1374 1153 1336 c 128,-1,7
 1201 1298 1201 1298 1202 1228 c 0,8,9
 1203 1159 1203 1159 1155 1122 c 0,10,11
 1107 1086 1107 1086 1028 1086 c 2,12,-1
 731 1084 l 1,13,-1
 723 704 l 1,14,-1
 938 704 l 2,15,16
 1015 704 1015 704 1063 665.5 c 128,-1,17
 1111 627 1111 627 1112 557 c 0,18,19
 1113 488 1113 488 1065 451.5 c 128,-1,20
 1017 415 1017 415 938 415 c 2,21,-1
 719 413 l 1,22,-1
 708 -60 l 2,23,24
 707 -129 707 -129 666 -169 c 128,-1,25
 625 -209 625 -209 556 -208 c 0,26,27
 493 -207 493 -207 459 -165 c 0,28,29
 425 -122 425 -122 427 -56 c 2,30,-1
 437 412 l 1,31,-1
 247 412 l 2,32,33
 170 412 170 412 125 452 c 0,34,35
 78 493 78 493 78 566 c 0,36,37
 78 634 78 634 128 669 c 128,-1,38
 178 704 178 704 256 704 c 2,39,-1
 442 704 l 1,40,-1
 450 1083 l 1,41,-1
 185 1082 l 2,42,43
 109 1082 109 1082 63 1123 c 0,44,45
 16 1164 16 1164 16 1237 c 0,46,47
 16 1305 16 1305 66 1339.5 c 128,-1,48
 116 1374 116 1374 194 1374 c 2,49,-1
 455 1374 l 1,50,-1
 461 1559 l 2,51,52
 463 1620 463 1620 499 1657 c 128,-1,53
 535 1694 535 1694 596 1694 c 0,0,1
EndSplineSet
Validated: 33
EndChar

StartChar: quotesinglbase
Encoding: 537 8218 196
Width: 888
GlyphClass: 2
Flags: W
LayerCount: 2
Fore
SplineSet
519 196 m 5,0,1
 570 161 570 161 578 108 c 4,2,3
 585 58 585 58 547 4 c 6,4,-1
 455 -128 l 6,5,6
 424 -173 424 -173 378 -185 c 4,7,8
 333 -197 333 -197 284 -169 c 5,9,10
 240 -141 240 -141 233.5 -93 c 132,-1,11
 227 -45 227 -45 254 -0 c 5,12,-1
 322 156 l 6,13,14
 324 161 324 161 333 173 c 4,15,16
 366 221 366 221 418.5 226 c 132,-1,17
 471 231 471 231 519 196 c 5,0,1
EndSplineSet
Validated: 33
EndChar

StartChar: quotedblbase
Encoding: 541 8222 197
Width: 880
GlyphClass: 2
Flags: W
LayerCount: 2
Fore
SplineSet
395 196 m 5,0,1
 446 161 446 161 454 108 c 4,2,3
 462 53 462 53 423 4 c 6,4,-1
 319 -129 l 6,5,6
 283 -175 283 -175 242 -186 c 4,7,8
 197 -198 197 -198 148 -170 c 5,9,10
 104 -142 104 -142 97.5 -94 c 132,-1,11
 91 -46 91 -46 118 -1 c 5,12,-1
 198 156 l 6,13,14
 202 163 202 163 209 173 c 4,15,16
 242 221 242 221 294.5 226 c 132,-1,17
 347 231 347 231 395 196 c 5,0,1
749 196 m 5,18,19
 800 161 800 161 808 108 c 4,20,21
 816 51 816 51 777 4 c 6,22,-1
 668 -129 l 6,23,24
 630 -176 630 -176 591 -186 c 4,25,26
 546 -198 546 -198 497 -170 c 5,27,28
 453 -142 453 -142 446.5 -94 c 132,-1,29
 440 -46 440 -46 467 -1 c 5,30,-1
 552 156 l 6,31,32
 557 165 557 165 563 173 c 4,33,34
 596 221 596 221 648.5 226 c 132,-1,35
 701 231 701 231 749 196 c 5,18,19
EndSplineSet
Validated: 33
EndChar

StartChar: dotlessi
Encoding: 240 305 214
Width: 574
GlyphClass: 2
Flags: W
LayerCount: 2
Fore
SplineSet
200 1000 m 4,0,1
 238 1048 238 1048 307 1047 c 4,2,3
 374 1046 374 1046 409 997 c 4,4,5
 443 953 443 953 442 884 c 6,6,-1
 428 117 l 6,7,8
 427 45 427 45 392 -1 c 4,9,10
 357 -50 357 -50 289 -50 c 4,11,12
 218 -49 218 -49 180 -2 c 4,13,14
 142 41 142 41 143 111 c 6,15,-1
 160 884 l 6,16,17
 162 956 162 956 200 1000 c 4,0,1
EndSplineSet
Validated: 33
EndChar

StartChar: macron
Encoding: 333 713 217
Width: 1139
GlyphClass: 2
Flags: W
LayerCount: 2
Fore
SplineSet
357 1384 m 2,0,-1
 870 1386 l 2,1,2
 932 1386 932 1386 972.5 1356 c 0,3,4
 1014 1326 1014 1326 1014 1268 c 0,5,6
 1014 1211 1014 1211 974.5 1179.5 c 128,-1,7
 935 1148 935 1148 875 1148 c 2,8,-1
 350 1148 l 2,9,10
 299 1148 299 1148 268.5 1181 c 128,-1,11
 238 1214 238 1214 238 1265 c 0,12,13
 238 1319 238 1319 270.5 1351.5 c 128,-1,14
 303 1384 303 1384 357 1384 c 2,0,-1
EndSplineSet
Validated: 1
EndChar

StartChar: breve
Encoding: 334 728 218
Width: 1139
GlyphClass: 2
Flags: W
LayerCount: 2
Fore
SplineSet
634 1329 m 4,0,1
 731 1327 731 1327 784 1356 c 132,-1,2
 837 1385 837 1385 857 1445 c 4,3,4
 869 1481 869 1481 884 1509 c 132,-1,5
 899 1537 899 1537 920.5 1560 c 132,-1,6
 942 1583 942 1583 968 1588 c 132,-1,7
 994 1593 994 1593 1027 1584 c 5,8,9
 1066 1570 1066 1570 1086 1538.5 c 132,-1,10
 1106 1507 1106 1507 1104.5 1468.5 c 132,-1,11
 1103 1430 1103 1430 1089 1386 c 5,12,13
 1039 1243 1039 1243 921.5 1170.5 c 132,-1,14
 804 1098 804 1098 629 1100 c 4,15,16
 465 1101 465 1101 353 1166 c 132,-1,17
 241 1231 241 1231 190 1359 c 4,18,19
 174 1400 174 1400 168 1434 c 4,20,21
 157 1490 157 1490 178 1532.5 c 132,-1,22
 199 1575 199 1575 251 1585 c 4,23,24
 314 1597 314 1597 356.5 1561 c 132,-1,25
 399 1525 399 1525 412 1458 c 4,26,27
 423 1397 423 1397 475 1364.5 c 132,-1,28
 527 1332 527 1332 634 1329 c 4,0,1
EndSplineSet
Validated: 33
EndChar

StartChar: cedilla
Encoding: 119 184 221
Width: 1139
GlyphClass: 2
Flags: W
LayerCount: 2
Fore
SplineSet
411 51 m 4,0,1
 420 81 420 81 449.5 97 c 132,-1,2
 479 113 479 113 516 114 c 4,3,4
 660 119 660 119 799 6 c 4,5,6
 885 -63 885 -63 904.5 -149 c 132,-1,7
 924 -235 924 -235 875 -328 c 4,8,9
 818 -436 818 -436 628 -443 c 4,10,11
 509 -448 509 -448 398 -388 c 4,12,13
 359 -367 359 -367 339.5 -334.5 c 132,-1,14
 320 -302 320 -302 326 -264 c 4,15,16
 328 -247 328 -247 338 -233 c 4,17,18
 362 -200 362 -200 426 -195 c 4,19,20
 449 -193 449 -193 473 -199.5 c 132,-1,21
 497 -206 497 -206 538 -222 c 4,22,23
 594 -244 594 -244 636 -235 c 4,24,25
 654 -231 654 -231 660 -225 c 132,-1,26
 666 -219 666 -219 666 -202 c 4,27,28
 667 -176 667 -176 649.5 -155 c 132,-1,29
 632 -134 632 -134 589 -115 c 4,30,31
 545 -95 545 -95 491 -82 c 5,32,33
 438 -70 438 -70 417.5 -33 c 132,-1,34
 397 4 397 4 411 51 c 4,0,1
EndSplineSet
Validated: 33
EndChar

StartChar: hungarumlaut
Encoding: 339 733 222
Width: 1139
GlyphClass: 2
Flags: W
LayerCount: 2
Fore
SplineSet
665 1120 m 4,0,1
 655 1128 655 1128 647 1136 c 4,2,3
 611 1171 611 1171 609.5 1215 c 132,-1,4
 608 1259 608 1259 642 1296 c 6,5,-1
 876 1538 l 6,6,7
 904 1566 904 1566 934.5 1580.5 c 132,-1,8
 965 1595 965 1595 998.5 1591 c 132,-1,9
 1032 1587 1032 1587 1060 1561 c 5,10,11
 1102 1517 1102 1517 1097.5 1468 c 132,-1,12
 1093 1419 1093 1419 1049 1374 c 6,13,-1
 821 1142 l 6,14,15
 786 1107 786 1107 746 1099.5 c 132,-1,16
 706 1092 706 1092 665 1120 c 4,0,1
224 1121 m 4,17,18
 217 1126 217 1126 211 1131 c 4,19,20
 173 1166 173 1166 169.5 1211 c 132,-1,21
 166 1256 166 1256 201 1295 c 5,22,-1
 435 1537 l 6,23,24
 462 1565 462 1565 492.5 1580 c 132,-1,25
 523 1595 523 1595 556 1591 c 132,-1,26
 589 1587 589 1587 617 1561 c 5,27,28
 659 1517 659 1517 654.5 1468 c 132,-1,29
 650 1419 650 1419 606 1374 c 6,30,-1
 378 1142 l 6,31,32
 344 1107 344 1107 304 1100 c 132,-1,33
 264 1093 264 1093 224 1121 c 4,17,18
EndSplineSet
Validated: 33
EndChar

StartChar: ogonek
Encoding: 337 731 223
Width: 1139
GlyphClass: 2
Flags: W
LayerCount: 2
Fore
SplineSet
698 116 m 4,0,1
 701 110 701 110 703 104 c 4,2,3
 718 64 718 64 699.5 31 c 132,-1,4
 681 -2 681 -2 636 -15 c 4,5,6
 584 -29 584 -29 563 -40 c 4,7,8
 537 -54 537 -54 521 -67 c 132,-1,9
 505 -80 505 -80 500.5 -87 c 132,-1,10
 496 -94 496 -94 496 -97 c 4,11,12
 496 -121 496 -121 505.5 -131 c 132,-1,13
 515 -141 515 -141 541 -145 c 4,14,15
 590 -153 590 -153 639 -133 c 4,16,17
 669 -121 669 -121 682.5 -116 c 132,-1,18
 696 -111 696 -111 714.5 -107.5 c 132,-1,19
 733 -104 733 -104 749 -105 c 4,20,21
 810 -111 810 -111 834 -142 c 4,22,23
 844 -155 844 -155 847 -173 c 4,24,25
 853 -212 853 -212 834.5 -244 c 132,-1,26
 816 -276 816 -276 778 -297 c 4,27,28
 669 -356 669 -356 551 -351 c 4,29,30
 365 -344 365 -344 310 -237 c 4,31,32
 265 -148 265 -148 280.5 -66.5 c 132,-1,33
 296 15 296 15 371 82 c 5,34,35
 445 149 445 149 551 163 c 4,36,37
 669 180 669 180 698 116 c 4,0,1
EndSplineSet
Validated: 33
EndChar

StartChar: caron
Encoding: 332 711 224
Width: 1139
GlyphClass: 2
Flags: W
LayerCount: 2
Fore
SplineSet
617 1092 m 1,0,1
 561 1091 561 1091 510 1147 c 2,2,-1
 272 1409 l 2,3,4
 248 1435 248 1435 236 1463.5 c 128,-1,5
 224 1492 224 1492 227.5 1522.5 c 128,-1,6
 231 1553 231 1553 254 1578 c 0,7,8
 260 1584 260 1584 265 1589 c 0,9,10
 307 1627 307 1627 356 1624.5 c 128,-1,11
 405 1622 405 1622 442 1580 c 2,12,-1
 617 1390 l 1,13,-1
 791 1580 l 2,14,15
 833 1625 833 1625 884.5 1624 c 128,-1,16
 936 1623 936 1623 980 1578 c 0,17,18
 1004 1553 1004 1553 1007 1522.5 c 128,-1,19
 1010 1492 1010 1492 997.5 1464 c 128,-1,20
 985 1436 985 1436 961 1409 c 2,21,-1
 723 1147 l 2,22,23
 673 1091 673 1091 617 1092 c 1,0,1
EndSplineSet
Validated: 33
EndChar

StartChar: Lslash
Encoding: 256 321 225
Width: 1287
GlyphClass: 2
Flags: W
LayerCount: 2
Fore
SplineSet
243 528 m 2,0,1
 216 511 216 511 175 506 c 0,2,3
 141 502 141 502 110 510 c 0,4,5
 76 519 76 519 58 541 c 0,6,7
 22 584 22 584 32 632 c 0,8,9
 44 690 44 690 98 725 c 2,10,-1
 569 1035 l 2,11,12
 573 1038 573 1038 595 1048 c 0,13,14
 640 1070 640 1070 695 1069 c 0,15,16
 757 1068 757 1068 780 1037 c 0,17,18
 814 990 814 990 790 920 c 0,19,20
 771 866 771 866 708 825 c 2,21,-1
 243 528 l 2,0,1
EndSplineSet
Refer: 47 76 N 1 0 0 1 171 0 2
Validated: 37
EndChar

StartChar: lslash
Encoding: 257 322 226
Width: 726
GlyphClass: 2
Flags: W
LayerCount: 2
Fore
SplineSet
262 463 m 6,0,1
 210 420 210 420 158 419 c 4,2,3
 104 419 104 419 59 467 c 5,4,5
 17 517 17 517 25 570 c 4,6,7
 33 624 33 624 83 667 c 6,8,-1
 482 1013 l 6,9,10
 488 1018 488 1018 503 1027 c 4,11,12
 550 1052 550 1052 600 1046 c 4,13,14
 650 1041 650 1041 684 1009 c 5,15,16
 720 964 720 964 712 914 c 4,17,18
 698 828 698 828 649 788 c 6,19,-1
 262 463 l 6,0,1
EndSplineSet
Refer: 79 108 N 1 0 0 1 85 0 2
Validated: 37
EndChar

StartChar: brokenbar
Encoding: 101 166 231
Width: 863
GlyphClass: 2
Flags: W
LayerCount: 2
Fore
SplineSet
451.5 796 m 128,-1,1
 504 796 504 796 537 763.5 c 128,-1,2
 570 731 570 731 570 679 c 2,3,-1
 570 38 l 2,4,5
 570 -16 570 -16 540 -51 c 128,-1,6
 510 -86 510 -86 458 -86 c 0,7,8
 402 -86 402 -86 368 -52 c 128,-1,9
 334 -18 334 -18 334 38 c 2,10,-1
 334 679 l 2,11,12
 334 731 334 731 366.5 763.5 c 128,-1,0
 399 796 399 796 451.5 796 c 128,-1,1
451.5 1738 m 128,-1,14
 504 1738 504 1738 537 1706 c 128,-1,15
 570 1674 570 1674 570 1621 c 2,16,-1
 570 980 l 2,17,18
 570 926 570 926 540 891 c 128,-1,19
 510 856 510 856 458 856 c 0,20,21
 402 856 402 856 368 890 c 128,-1,22
 334 924 334 924 334 980 c 2,23,-1
 334 1621 l 2,24,25
 334 1673 334 1673 366.5 1705.5 c 128,-1,13
 399 1738 399 1738 451.5 1738 c 128,-1,14
EndSplineSet
Validated: 1
EndChar

StartChar: Eth
Encoding: 143 208 232
Width: 1478
GlyphClass: 2
Flags: W
LayerCount: 2
Fore
SplineSet
654 540 m 2,0,-1
 61 540 l 2,1,2
 -8 540 -8 540 -49 578 c 0,3,4
 -91 616 -91 616 -89 681 c 0,5,6
 -87 748 -87 748 -44 787 c 0,7,8
 -1 826 -1 826 67 826 c 2,9,-1
 650 826 l 2,10,11
 720 826 720 826 763 785 c 0,12,13
 805 744 805 744 807 675 c 0,14,15
 808 611 808 611 766 575 c 0,16,17
 723 540 723 540 654 540 c 2,0,-1
EndSplineSet
Refer: 39 68 N 1 0 0 1 0 0 2
Validated: 37
EndChar

StartChar: eth
Encoding: 175 240 233
Width: 1042
GlyphClass: 2
Flags: W
LayerCount: 2
Fore
SplineSet
218 1490 m 4,0,1
 254 1530 254 1530 307 1534 c 4,2,3
 370 1538 370 1538 430 1505 c 4,4,5
 509 1448 509 1448 582 1374 c 5,6,-1
 694 1427 l 6,7,8
 748 1449 748 1449 790 1456 c 4,9,10
 830 1461 830 1461 866 1450 c 4,11,12
 902 1439 902 1439 923 1412 c 4,13,14
 953 1351 953 1351 924 1297 c 4,15,16
 894 1234 894 1234 825 1187 c 6,17,-1
 769 1154 l 5,18,19
 785 1135 785 1135 801 1115 c 4,20,21
 1024 728 1024 728 980 417 c 4,22,23
 941 149 941 149 790 39 c 5,24,25
 658 -43 658 -43 518.5 -45.5 c 132,-1,26
 379 -48 379 -48 259 29 c 4,27,28
 123 127 123 127 93 268 c 4,29,30
 63 421 63 421 138 606 c 5,31,32
 239 833 239 833 577 907 c 5,33,34
 543 970 543 970 506 1026 c 5,35,-1
 374 962 l 6,36,37
 325 935 325 935 285 927 c 4,38,39
 248 917 248 917 214 936 c 4,40,41
 180 955 180 955 160 1006 c 4,42,43
 137 1057 137 1057 142 1105 c 4,44,45
 146 1133 146 1133 171 1155 c 4,46,47
 196 1182 196 1182 237 1202 c 6,48,-1
 311 1245 l 5,49,50
 289 1271 289 1271 266 1294 c 4,51,52
 236 1326 236 1326 218 1362 c 4,53,54
 201 1401 201 1401 199 1446 c 4,55,56
 196 1468 196 1468 218 1490 c 4,0,1
689 668 m 5,57,58
 674 664 674 664 658 660 c 4,59,60
 450 624 450 624 389 556 c 4,61,62
 297 415 297 415 357 283 c 4,63,64
 392 231 392 231 524 225 c 4,65,66
 584 222 584 222 632 251 c 4,67,68
 680 284 680 284 717 363 c 4,69,70
 765 500 765 500 700 679 c 4,71,72
 695 673 695 673 689 668 c 5,57,58
EndSplineSet
Validated: 33
EndChar

StartChar: Thorn
Encoding: 157 222 235
Width: 1066
GlyphClass: 2
Flags: W
LayerCount: 2
Fore
SplineSet
142 1576 m 4,0,1
 175 1630 175 1630 241 1632 c 4,2,3
 273 1633 273 1633 298 1617 c 4,4,5
 326 1601 326 1601 340 1574 c 4,6,7
 355 1547 355 1547 361.5 1514.5 c 132,-1,8
 368 1482 368 1482 367 1444 c 4,9,10
 365 1392 365 1392 363 1345 c 5,11,12
 430 1350 430 1350 490 1349 c 4,13,14
 791 1346 791 1346 930 1208 c 4,15,16
 1063 1071 1063 1071 1060 813 c 4,17,18
 1057 585 1057 585 887 473 c 4,19,20
 697 361 697 361 326 363 c 5,21,22
 324 297 324 297 318 128 c 4,23,24
 315 62 315 62 279 20 c 4,25,26
 246 -24 246 -24 187 -24 c 4,27,28
 128 -24 128 -24 97 21 c 4,29,30
 66 64 66 64 68 131 c 6,31,-1
 107 1443 l 6,32,33
 109 1525 109 1525 142 1576 c 4,0,1
699.5 1053.5 m 132,-1,35
 590 1119 590 1119 353 1113 c 5,36,-1
 334 615 l 5,37,38
 807 626 807 626 813 833 c 4,39,40
 813 842 813 842 813 851 c 4,41,34
 809 988 809 988 699.5 1053.5 c 132,-1,35
EndSplineSet
Validated: 33
EndChar

StartChar: thorn
Encoding: 189 254 236
Width: 1095
GlyphClass: 2
Flags: W
LayerCount: 2
Fore
SplineSet
170 1268 m 132,-1,1
 203 1323 203 1323 268 1324 c 4,2,3
 311 1325 311 1325 339 1297 c 4,4,5
 371 1269 371 1269 382.5 1226 c 132,-1,6
 394 1183 394 1183 392 1128 c 4,7,8
 387 1026 387 1026 385 947 c 5,9,10
 448 951 448 951 505 950 c 4,11,12
 793 947 793 947 922 812 c 4,13,14
 1047 677 1047 677 1044 423 c 4,15,16
 1041 201 1041 201 883 90 c 4,17,18
 708 -21 708 -21 360 -20 c 5,19,20
 366 -117 366 -117 355 -411 c 4,21,22
 352 -481 352 -481 316 -525 c 4,23,24
 283 -569 283 -569 225 -569 c 4,25,26
 167 -569 167 -569 137 -524 c 132,-1,27
 107 -479 107 -479 108 -409 c 6,28,-1
 136 1126 l 6,29,0
 137 1213 137 1213 170 1268 c 132,-1,1
695 654.5 m 132,-1,31
 595 719 595 719 377 713 c 5,32,-1
 359 214 l 5,33,34
 589 220 589 220 693.5 276 c 132,-1,35
 798 332 798 332 799 433 c 4,36,37
 799 443 799 443 799 452 c 4,38,30
 795 590 795 590 695 654.5 c 132,-1,31
EndSplineSet
Validated: 33
EndChar

StartChar: minus
Encoding: 574 8722 237
Width: 1250
GlyphClass: 2
Flags: W
LayerCount: 2
Fore
SplineSet
244 770 m 2,0,-1
 960 772 l 6,1,2
 1033 772 1033 772 1081 739 c 4,3,4
 1128 706 1128 706 1128 641 c 132,-1,5
 1128 576 1128 576 1082.5 542 c 132,-1,6
 1037 508 1037 508 966 508 c 6,7,-1
 234 508 l 2,8,9
 176 508 176 508 140 543.5 c 128,-1,10
 104 579 104 579 104 637 c 0,11,12
 104 698 104 698 142.5 734 c 128,-1,13
 181 770 181 770 244 770 c 2,0,-1
EndSplineSet
Validated: 1
EndChar

StartChar: onesuperior
Encoding: 120 185 238
Width: 1250
GlyphClass: 2
Flags: W
LayerCount: 2
Fore
SplineSet
759 1579 m 0,0,1
 754 1384 754 1384 754 1108 c 1,2,-1
 812 1108 l 2,3,4
 873 1108 873 1108 915.5 1083 c 128,-1,5
 958 1058 958 1058 958 1008 c 0,6,7
 958 959 958 959 918 930 c 0,8,9
 877 902 877 902 815 902 c 2,10,-1
 452 902 l 2,11,12
 395 902 395 902 357 929 c 0,13,14
 320 956 320 956 318 1002 c 0,15,16
 318 1053 318 1053 359 1080.5 c 128,-1,17
 400 1108 400 1108 461 1108 c 2,18,-1
 529 1108 l 1,19,-1
 530 1393 l 1,20,21
 493 1370 493 1370 447 1362.5 c 128,-1,22
 401 1355 401 1355 370 1384 c 0,23,24
 358 1395 358 1395 350 1407 c 0,25,26
 328 1438 328 1438 331 1469 c 128,-1,27
 334 1500 334 1500 352.5 1526.5 c 128,-1,28
 371 1553 371 1553 402 1574 c 2,29,-1
 522 1657 l 2,30,31
 529 1662 529 1662 541 1670 c 0,32,33
 554 1679 554 1679 560 1683.5 c 128,-1,34
 566 1688 566 1688 577 1695 c 128,-1,35
 588 1702 588 1702 594 1705.5 c 128,-1,36
 600 1709 600 1709 609.5 1713.5 c 128,-1,37
 619 1718 619 1718 625.5 1720 c 128,-1,38
 632 1722 632 1722 640.5 1724 c 128,-1,39
 649 1726 649 1726 656.5 1725.5 c 128,-1,40
 664 1725 664 1725 672 1724 c 0,41,42
 719 1714 719 1714 739.5 1674 c 128,-1,43
 760 1634 760 1634 759 1579 c 0,0,1
EndSplineSet
Validated: 33
EndChar

StartChar: twosuperior
Encoding: 113 178 239
Width: 1250
GlyphClass: 2
Flags: W
LayerCount: 2
Fore
SplineSet
606 1109 m 5,0,-1
 834 1114 l 6,1,2
 899 1115 899 1115 942.5 1088.5 c 132,-1,3
 986 1062 986 1062 986 1009 c 4,4,5
 986 954 986 954 943 925.5 c 132,-1,6
 900 897 900 897 835 897 c 6,7,-1
 452 897 l 6,8,9
 436 897 436 897 422 898 c 4,10,11
 355 905 355 905 322.5 949.5 c 132,-1,12
 290 994 290 994 299 1059 c 4,13,14
 324 1237 324 1237 541 1344 c 4,15,16
 599 1373 599 1373 640.5 1400.5 c 132,-1,17
 682 1428 682 1428 698 1444 c 132,-1,18
 714 1460 714 1460 715 1467 c 4,19,20
 720 1495 720 1495 711.5 1508.5 c 132,-1,21
 703 1522 703 1522 672 1532 c 4,22,23
 627 1546 627 1546 589 1527 c 4,24,25
 546 1505 546 1505 509 1456 c 4,26,27
 480 1418 480 1418 438 1407 c 132,-1,28
 396 1396 396 1396 351 1417 c 4,29,30
 343 1421 343 1421 336 1424 c 4,31,32
 294 1449 294 1449 286 1490 c 132,-1,33
 278 1531 278 1531 305 1569 c 5,34,35
 371 1665 371 1665 459 1712 c 4,36,37
 537 1754 537 1754 687 1740 c 4,38,39
 802 1729 802 1729 891 1639 c 4,40,41
 961 1568 961 1568 949 1444 c 4,42,43
 933 1281 933 1281 725 1178 c 4,44,45
 649 1140 649 1140 606 1109 c 5,0,-1
EndSplineSet
Validated: 33
EndChar

StartChar: threesuperior
Encoding: 114 179 240
Width: 1250
GlyphClass: 2
Flags: W
LayerCount: 2
Fore
SplineSet
899 1459 m 4,0,1
 897 1376 897 1376 836 1307 c 5,2,3
 936 1229 936 1229 936 1092 c 4,4,5
 936 1026 936 1026 901.5 973.5 c 132,-1,6
 867 921 867 921 803 887 c 4,7,8
 685 824 685 824 562 833 c 4,9,10
 508 837 508 837 467.5 844.5 c 132,-1,11
 427 852 427 852 390.5 866.5 c 132,-1,12
 354 881 354 881 335.5 906.5 c 132,-1,13
 317 932 317 932 320 967 c 4,14,15
 321 984 321 984 325 999 c 4,16,17
 336 1036 336 1036 365 1055 c 132,-1,18
 394 1074 394 1074 429.5 1074.5 c 132,-1,19
 465 1075 465 1075 506 1065 c 5,20,21
 565 1049 565 1049 652 1068 c 4,22,23
 686 1076 686 1076 695 1085.5 c 132,-1,24
 704 1095 704 1095 703 1111 c 4,25,26
 700 1146 700 1146 685.5 1159 c 132,-1,27
 671 1172 671 1172 635 1172 c 4,28,29
 627 1172 627 1172 619 1173 c 4,30,31
 585 1175 585 1175 556.5 1181.5 c 132,-1,32
 528 1188 528 1188 504 1201.5 c 132,-1,33
 480 1215 480 1215 467.5 1238 c 132,-1,34
 455 1261 455 1261 457 1290 c 4,35,36
 463 1372 463 1372 595 1409 c 4,37,38
 621 1416 621 1416 640 1424 c 4,39,40
 667 1437 667 1437 671 1445.5 c 132,-1,41
 675 1454 675 1454 667 1464 c 5,42,43
 651 1496 651 1496 619.5 1504.5 c 132,-1,44
 588 1513 588 1513 519 1497 c 4,45,46
 487 1490 487 1490 457.5 1491 c 132,-1,47
 428 1492 428 1492 404 1509 c 132,-1,48
 380 1526 380 1526 371 1558 c 4,49,50
 368 1568 368 1568 367 1577 c 4,51,52
 358 1640 358 1640 407 1676 c 132,-1,53
 456 1712 456 1712 539 1722 c 4,54,55
 685 1740 685 1740 802 1657 c 4,56,57
 903 1586 903 1586 899 1459 c 4,0,1
EndSplineSet
Validated: 33
EndChar

StartChar: multiply
Encoding: 150 215 245
Width: 1250
GlyphClass: 2
Flags: W
LayerCount: 2
Fore
SplineSet
778 942 m 6,0,1
 879 1042 879 1042 973 990 c 5,2,3
 1083 931 1083 931 948 796 c 6,4,-1
 785 632 l 5,5,-1
 954 465 l 6,6,7
 1082 339 1082 339 973 263 c 5,8,9
 891 208 891 208 789 309 c 6,10,-1
 625 473 l 5,11,-1
 460 309 l 6,12,13
 358 208 358 208 276 263 c 5,14,15
 167 339 167 339 295 465 c 6,16,-1
 465 632 l 5,17,-1
 301 796 l 6,18,19
 166 931 166 931 276 990 c 5,20,21
 370 1042 370 1042 471 942 c 6,22,-1
 625 790 l 5,23,-1
 778 942 l 6,0,1
EndSplineSet
Validated: 33
EndChar

StartChar: sfthyphen
Encoding: 601 -1 246
Width: 1250
GlyphClass: 2
Flags: W
LayerCount: 2
Fore
SplineSet
335 662 m 2,0,-1
 889 664 l 2,1,2
 948 664 948 664 987 633 c 128,-1,3
 1026 602 1026 602 1026 546 c 128,-1,4
 1026 490 1026 490 989 457.5 c 0,5,6
 952 426 952 426 894 426 c 2,7,-1
 329 426 l 2,8,9
 279 426 279 426 249.5 459.5 c 128,-1,10
 220 493 220 493 220 543 c 0,11,12
 220 596 220 596 251.5 629 c 128,-1,13
 283 662 283 662 335 662 c 2,0,-1
EndSplineSet
Validated: 1
EndChar

StartChar: dcroat
Encoding: 208 273 257
Width: 1203
GlyphClass: 2
Flags: W
LayerCount: 2
Fore
SplineSet
1178 1142 m 6,0,-1
 559 1148 l 6,1,2
 506 1149 506 1149 472 1180 c 4,3,4
 438 1211 438 1211 439 1263 c 4,5,6
 440 1320 440 1320 474 1355 c 4,7,8
 508 1390 508 1390 563 1389 c 6,9,-1
 1182 1383 l 6,10,11
 1237 1382 1237 1382 1269 1347 c 4,12,13
 1301 1311 1301 1311 1299 1256 c 4,14,15
 1298 1204 1298 1204 1264 1173 c 4,16,17
 1231 1141 1231 1141 1178 1142 c 6,0,-1
EndSplineSet
Refer: 71 100 N 1 0 0 1 0 0 2
Validated: 37
EndChar

StartChar: mu
Encoding: 409 956 258
Width: 1065
GlyphClass: 2
Flags: W
LayerCount: 2
Fore
SplineSet
985 -38.5 m 128,-1,1
 958 -77 958 -77 907 -77 c 0,2,3
 799 -77 799 -77 762 -0 c 1,4,5
 693 -18 693 -18 607 -18 c 0,6,7
 415 -17 415 -17 344 9 c 1,8,-1
 335 -269 l 2,9,10
 333 -324 333 -324 302 -366 c 0,11,12
 272 -404 272 -404 225 -404 c 0,13,14
 156 -404 156 -404 112 -367 c 128,-1,15
 68 -330 68 -330 70 -262 c 2,16,-1
 83 379 l 1,17,-1
 84 453 l 1,18,-1
 88 895 l 2,19,20
 89 965 89 965 121.5 1014 c 128,-1,21
 154 1063 154 1063 216 1062 c 0,22,23
 274 1061 274 1061 312 1018 c 0,24,25
 351 973 351 973 351 904 c 2,26,-1
 350 512 l 2,27,28
 350 487 350 487 352 463 c 1,29,30
 355 447 355 447 355 429 c 1,31,32
 369 340 369 340 414.5 300 c 128,-1,33
 460 260 460 260 545 258 c 0,34,35
 627 256 627 256 674.5 279.5 c 128,-1,36
 722 303 722 303 746 351 c 1,37,-1
 744 909 l 2,38,39
 744 974 744 974 788 1019 c 0,40,41
 828 1059 828 1059 888 1058 c 0,42,43
 943 1057 943 1057 978 1015 c 0,44,45
 1010 977 1010 977 1011 916 c 2,46,-1
 1012 51 l 2,47,0
 1012 0 1012 0 985 -38.5 c 128,-1,1
EndSplineSet
Validated: 33
EndChar

StartChar: overscore
Encoding: 110 175 262
Width: 1284
GlyphClass: 2
Flags: W
LayerCount: 2
Fore
SplineSet
1366 1930 m 1,0,-1
 1366 1660 l 1,1,-1
 -78 1660 l 1,2,-1
 -78 1930 l 1,3,-1
 1366 1930 l 1,0,-1
EndSplineSet
Validated: 1
EndChar

StartChar: middot
Encoding: 602 -1 263
Width: 510
GlyphClass: 2
Flags: W
LayerCount: 2
Fore
SplineSet
223 878 m 0,0,1
 244 884 244 884 266 882 c 0,2,3
 288 882 288 882 309 877 c 0,4,5
 351 865 351 865 381 835 c 1,6,7
 418 801 418 801 427 757 c 0,8,9
 431 738 431 738 431 718 c 2,10,-1
 432 717 l 1,11,-1
 432 716 l 2,12,13
 432 690 432 690 427 674 c 0,14,15
 413 622 413 622 378 591 c 1,16,17
 343 558 343 558 287 551 c 0,18,19
 279 550 279 550 270 549 c 2,20,-1
 267 548 l 1,21,-1
 265 548 l 2,22,23
 226 548 226 548 192 566 c 0,24,25
 146 588 146 588 121 632 c 0,26,27
 98 671 98 671 98 716 c 0,28,29
 98 749 98 749 111 780 c 0,30,31
 126 816 126 816 156 842 c 1,32,33
 184 868 184 868 223 878 c 0,0,1
EndSplineSet
Validated: 1
EndChar

StartChar: Gamma
Encoding: 369 915 305
Width: 1128
GlyphClass: 2
Flags: W
LayerCount: 2
Fore
SplineSet
382 41.5 m 128,-1,1
 336 4 336 4 265 4 c 1,2,3
 206 5 206 5 169 40 c 0,4,5
 133 75 133 75 130 132 c 2,6,-1
 65 1370 l 2,7,8
 62 1428 62 1428 97 1465 c 0,9,10
 131 1502 131 1502 195 1504 c 1,11,-1
 216 1504 l 1,12,-1
 986 1492 l 6,13,14
 1050 1491 1050 1491 1087 1455 c 4,15,16
 1124 1418 1124 1418 1124 1359 c 4,17,18
 1124 1299 1124 1299 1086 1263 c 4,19,20
 1048 1226 1048 1226 982 1228 c 6,21,-1
 357 1241 l 1,22,-1
 424 142 l 2,23,0
 428 79 428 79 382 41.5 c 128,-1,1
EndSplineSet
Validated: 33
EndChar

StartChar: Theta
Encoding: 374 920 306
Width: 1635
GlyphClass: 2
Flags: W
LayerCount: 2
Fore
SplineSet
530 842 m 4,0,1
 561 876 561 876 613 876 c 6,2,-1
 1047 878 l 6,3,4
 1106 878 1106 878 1145 846 c 4,5,6
 1184 815 1184 815 1184 759 c 4,7,8
 1184 703 1184 703 1147 671 c 4,9,10
 1110 640 1110 640 1052 640 c 6,11,-1
 608 640 l 6,12,13
 558 640 558 640 528 673 c 4,14,15
 499 706 499 706 499 756 c 4,16,17
 499 809 499 809 530 842 c 4,0,1
EndSplineSet
Refer: 50 79 N 1 0 0 1 0 0 2
Validated: 1
EndChar

StartChar: Phi
Encoding: 387 934 307
Width: 1260
GlyphClass: 2
Flags: W
LayerCount: 2
Fore
SplineSet
268.5 9.5 m 128,-1,1
 229 40 229 40 229 100 c 128,-1,2
 229 160 229 160 264 197 c 0,3,4
 302 237 302 237 367 237 c 2,5,-1
 480 237 l 1,6,-1
 481 267 l 1,7,8
 261 294 261 294 156 407 c 128,-1,9
 51 520 51 520 51 713 c 0,10,11
 51 934 51 934 160 1063 c 0,12,13
 270 1191 270 1191 502 1219 c 1,14,-1
 502 1228 l 1,15,-1
 379 1228 l 2,16,17
 309 1228 309 1228 269 1259 c 128,-1,18
 229 1290 229 1290 229 1350 c 0,19,20
 229 1411 229 1411 264 1447 c 0,21,22
 302 1487 302 1487 367 1487 c 2,23,-1
 910 1487 l 2,24,25
 972 1487 972 1487 1006 1446 c 0,26,27
 1038 1405 1038 1405 1039 1349 c 0,28,29
 1040 1292 1040 1292 1006 1260 c 0,30,31
 971 1228 971 1228 913 1228 c 2,32,-1
 767 1228 l 1,33,-1
 767 1220 l 1,34,35
 984 1196 984 1196 1087.5 1079.5 c 128,-1,36
 1191 963 1191 963 1191 762 c 0,37,38
 1191 540 1191 540 1082 413 c 128,-1,39
 973 286 973 286 744 263 c 1,40,-1
 743 237 l 1,41,-1
 910 237 l 2,42,43
 972 237 972 237 1006 196 c 0,44,45
 1038 155 1038 155 1039 99 c 0,46,47
 1040 42 1040 42 1006 11 c 0,48,49
 971 -21 971 -21 913 -21 c 2,50,-1
 379 -21 l 2,51,0
 308 -21 308 -21 268.5 9.5 c 128,-1,1
914.5 897.5 m 128,-1,53
 867 949 867 949 761 968 c 1,54,55
 759 742 759 742 750 520 c 1,56,57
 861 538 861 538 911.5 594.5 c 128,-1,58
 962 651 962 651 962 756 c 0,59,52
 962 846 962 846 914.5 897.5 c 128,-1,53
330 591 m 128,-1,61
 378 545 378 545 486 525 c 1,62,-1
 496 965 l 1,63,64
 385 942 385 942 333.5 881 c 128,-1,65
 282 820 282 820 282 713 c 0,66,60
 282 637 282 637 330 591 c 128,-1,61
EndSplineSet
Validated: 33
EndChar

StartChar: alpha
Encoding: 398 945 308
Width: 1138
GlyphClass: 2
Flags: W
LayerCount: 2
Fore
SplineSet
862 47 m 5,0,1
 680 -56 680 -56 542 -56 c 4,2,3
 291 -56 291 -56 174 68 c 4,4,5
 59 192 59 192 57 428 c 4,6,7
 54 728 54 728 258 906 c 4,8,9
 517 1105 517 1105 864 1010 c 5,10,11
 891 1044 891 1044 920.5 1062 c 132,-1,12
 950 1080 950 1080 982.5 1078.5 c 132,-1,13
 1015 1077 1015 1077 1044 1052 c 4,14,15
 1079 1024 1079 1024 1086 984.5 c 132,-1,16
 1093 945 1093 945 1076.5 904.5 c 132,-1,17
 1060 864 1060 864 1027 821 c 4,18,19
 1016 807 1016 807 1007 732.5 c 132,-1,20
 998 658 998 658 1000 544 c 4,21,22
 1003 400 1003 400 1020 304.5 c 132,-1,23
 1037 209 1037 209 1060 176 c 4,24,25
 1095 129 1095 129 1098 81 c 132,-1,26
 1101 33 1101 33 1068 -10 c 5,27,-1
 1068 -11 l 5,28,-1
 1067 -12 l 6,29,30
 1060 -21 1060 -21 1051 -28 c 4,31,32
 1027 -48 1027 -48 1001.5 -50.5 c 132,-1,33
 976 -53 976 -53 952 -39.5 c 132,-1,34
 928 -26 928 -26 906 -4.5 c 132,-1,35
 884 17 884 17 862 47 c 5,0,1
495 165 m 4,36,37
 559 162 559 162 651 186 c 4,38,39
 697 199 697 199 763 252 c 5,40,41
 728 633 728 633 755 801 c 5,42,43
 681 835 681 835 603 817 c 4,44,45
 534 801 534 801 495 773 c 4,46,47
 326 656 326 656 317 442 c 5,48,49
 319 300 319 300 363.5 235.5 c 132,-1,50
 408 171 408 171 495 165 c 4,36,37
EndSplineSet
Validated: 33
EndChar

StartChar: delta
Encoding: 401 948 309
Width: 1077
GlyphClass: 2
Flags: W
LayerCount: 2
Fore
SplineSet
705.5 726.5 m 128,-1,1
 661 789 661 789 577 787 c 0,2,3
 459 784 459 784 403 713 c 0,4,5
 305 588 305 588 305 454 c 0,6,7
 305 313 305 313 370 247 c 0,8,9
 432 184 432 184 509 184 c 0,10,11
 588 184 588 184 679 255 c 0,12,13
 755 314 755 314 754 492 c 0,14,15
 754 504 754 504 754 515 c 0,16,0
 750 664 750 664 705.5 726.5 c 128,-1,1
152 1306 m 1,17,18
 135 1332 135 1332 129 1368 c 0,19,20
 126 1386 126 1386 125 1402 c 0,21,22
 125 1456 125 1456 160.5 1485.5 c 128,-1,23
 196 1515 196 1515 249 1515 c 2,24,-1
 879 1515 l 2,25,26
 939 1515 939 1515 974.5 1478 c 128,-1,27
 1010 1441 1010 1441 1008 1377 c 0,28,29
 1007 1316 1007 1316 970 1281.5 c 128,-1,30
 933 1247 933 1247 874 1247 c 2,31,-1
 617 1247 l 1,32,33
 885 1014 885 1014 952 830 c 0,34,35
 1012 667 1012 667 1011 480 c 0,36,37
 1010 255 1010 255 861 81 c 0,38,39
 741 -59 741 -59 491 -59 c 0,40,41
 287 -59 287 -59 154 102 c 0,42,43
 42 236 42 236 43 474 c 0,44,45
 43 688 43 688 177 856 c 0,46,47
 290 998 290 998 468 1027 c 1,48,49
 374 1123 374 1123 281 1183 c 1,50,51
 221 1228 221 1228 192.5 1254 c 128,-1,52
 164 1280 164 1280 152 1306 c 1,17,18
EndSplineSet
Validated: 33
EndChar

StartChar: epsilon
Encoding: 402 949 310
Width: 1007
GlyphClass: 2
Flags: W
LayerCount: 2
Fore
SplineSet
432 683 m 128,-1,1
 459 659 459 659 525 643 c 0,2,3
 600 625 600 625 641.5 587.5 c 128,-1,4
 683 550 683 550 675 497 c 0,5,6
 661 408 661 408 492 398 c 0,7,8
 422 394 422 394 393 371.5 c 128,-1,9
 364 349 364 349 362 299 c 0,10,11
 360 249 360 249 384.5 227 c 128,-1,12
 409 205 409 205 473 199 c 0,13,14
 629 185 629 185 692 231 c 0,15,16
 784 298 784 298 834 295 c 0,17,18
 885 292 885 292 915.5 258 c 128,-1,19
 946 224 946 224 949 170 c 0,20,21
 951 133 951 133 927 101 c 0,22,23
 901 66 901 66 860 38 c 0,24,25
 659 -100 659 -100 376 -35 c 0,26,27
 261 -9 261 -9 192 65 c 0,28,29
 128 133 128 133 120 234 c 0,30,31
 108 389 108 389 169 478 c 0,32,33
 200 524 200 524 233 554 c 1,34,35
 212 577 212 577 204 587 c 128,-1,36
 196 597 196 597 187 610 c 128,-1,37
 178 623 178 623 174 634 c 0,38,39
 112 785 112 785 205 908 c 0,40,41
 304 1039 304 1039 511 1048 c 0,42,43
 692 1056 692 1056 816 985 c 0,44,45
 866 957 866 957 891.5 915 c 128,-1,46
 917 873 917 873 914 821 c 0,47,48
 911 780 911 780 885.5 753.5 c 128,-1,49
 860 727 860 727 821 722 c 0,50,51
 800 720 800 720 773 730 c 0,52,53
 761 734 761 734 728 750 c 0,54,55
 707 760 707 760 648 789 c 0,56,57
 592 817 592 817 504 802 c 0,58,59
 446 792 446 792 425.5 777.5 c 128,-1,60
 405 763 405 763 405 744 c 0,61,0
 405 707 405 707 432 683 c 128,-1,1
EndSplineSet
Validated: 33
EndChar

StartChar: sigma
Encoding: 416 963 311
Width: 1146
GlyphClass: 2
Flags: W
LayerCount: 2
Fore
SplineSet
414 1001 m 0,0,1
 468 1035 468 1035 554 1034 c 2,2,-1
 1052 1032 l 2,3,4
 1120 1032 1120 1032 1161 996 c 0,5,6
 1203 960 1203 960 1201 896 c 0,7,8
 1200 833 1200 833 1157 798 c 0,9,10
 1115 764 1115 764 1048 764 c 2,11,-1
 848 764 l 1,12,-1
 546 814 l 2,13,14
 533 816 533 816 529 814 c 0,15,16
 440 776 440 776 405 799 c 0,17,18
 356 832 356 832 358 897 c 0,19,20
 360 967 360 967 414 1001 c 0,0,1
EndSplineSet
Refer: 82 111 N 1 0 0 1 0 -12 2
Validated: 37
EndChar

StartChar: tau
Encoding: 417 964 312
Width: 965
GlyphClass: 2
Flags: W
LayerCount: 2
Fore
SplineSet
63 837 m 0,0,1
 26 874 26 874 25 919 c 1,2,3
 24 987 24 987 57.5 1022.5 c 128,-1,4
 91 1058 91 1058 151 1058 c 2,5,-1
 790 1057 l 2,6,7
 856 1057 856 1057 898.5 1028.5 c 128,-1,8
 941 1000 941 1000 944 935 c 0,9,10
 944 929 944 929 944 923 c 0,11,12
 944 875 944 875 904 838 c 128,-1,13
 864 801 864 801 799 801 c 2,14,-1
 629 801 l 1,15,-1
 645 104 l 2,16,17
 645 95 645 95 645 92 c 0,18,19
 644 27 644 27 605 -18 c 0,20,21
 563 -65 563 -65 492 -64 c 0,22,23
 419 -64 419 -64 377 -14 c 0,24,25
 336 35 336 35 334 104 c 2,26,-1
 320 800 l 1,27,-1
 157 800 l 2,28,29
 99 800 99 800 63 837 c 0,0,1
EndSplineSet
Validated: 33
EndChar

StartChar: phi
Encoding: 419 966 313
Width: 1310
GlyphClass: 2
Flags: W
LayerCount: 2
Fore
SplineSet
955 331 m 0,0,1
 1002 462 1002 462 948 665 c 0,2,3
 939 699 939 699 928.5 725 c 128,-1,4
 918 751 918 751 909.5 764 c 128,-1,5
 901 777 901 777 892.5 785 c 128,-1,6
 884 793 884 793 879.5 794.5 c 128,-1,7
 875 796 875 796 871 796 c 128,-1,8
 867 796 867 796 862.5 792 c 128,-1,9
 858 788 858 788 851 777.5 c 128,-1,10
 844 767 844 767 838 751 c 128,-1,11
 832 735 832 735 827.5 707 c 128,-1,12
 823 679 823 679 822 644 c 2,13,-1
 805 219 l 1,14,15
 929 258 929 258 955 331 c 0,0,1
1006 999 m 0,16,17
 1145 931 1145 931 1201 788 c 0,18,19
 1324 468 1324 468 1206 216 c 0,20,21
 1153 102 1153 102 1055 38 c 0,22,23
 950 -32 950 -32 797 -43 c 1,24,-1
 792 -228 l 2,25,26
 790 -304 790 -304 746.5 -350.5 c 128,-1,27
 703 -397 703 -397 625 -396 c 0,28,29
 548 -395 548 -395 508.5 -346.5 c 128,-1,30
 469 -298 469 -298 471 -222 c 0,31,32
 474 -125 474 -125 476 -27 c 1,33,34
 286 11 286 11 187 102.5 c 128,-1,35
 88 194 88 194 68 335 c 0,36,37
 24 647 24 647 164 864 c 0,38,39
 182 893 182 893 201 913 c 0,40,41
 241 955 241 955 290 959 c 0,42,43
 344 964 344 964 396 929 c 1,44,45
 484 865 484 865 403 735 c 0,46,47
 278 526 278 526 354 357 c 0,48,49
 388 283 388 283 485 249 c 1,50,-1
 503 644 l 2,51,52
 509 769 509 769 539 851 c 128,-1,53
 569 933 569 933 631 975 c 0,54,55
 714 1031 714 1031 811 1038 c 0,56,57
 907 1045 907 1045 1006 999 c 0,16,17
EndSplineSet
Validated: 33
EndChar

StartChar: underscoredbl
Encoding: 534 8215 314
Width: 1284
GlyphClass: 2
Flags: W
LayerCount: 2
Fore
SplineSet
1366 -24 m 1,0,-1
 1366 -294 l 1,1,-1
 -78 -294 l 1,2,-1
 -78 -24 l 1,3,-1
 1366 -24 l 1,0,-1
1366 -328 m 1,4,-1
 1366 -598 l 1,5,-1
 -78 -598 l 1,6,-1
 -78 -328 l 1,7,-1
 1366 -328 l 1,4,-1
EndSplineSet
Validated: 1
EndChar

StartChar: nsuperior
Encoding: 554 8319 316
Width: 1079
GlyphClass: 2
Flags: W
LayerCount: 2
Fore
SplineSet
770 802 m 0,0,1
 721 800 721 800 690 834 c 0,2,3
 660 865 660 865 660 913 c 2,4,-1
 660 1190 l 2,5,6
 660 1276 660 1276 638 1309 c 0,7,8
 617 1342 617 1342 577 1342 c 0,9,10
 507 1344 507 1344 465.5 1316 c 128,-1,11
 424 1288 424 1288 401 1225 c 1,12,-1
 393 909 l 2,13,14
 392 860 392 860 357 830.5 c 128,-1,15
 322 801 322 801 267 802 c 0,16,17
 216 803 216 803 187 834 c 128,-1,18
 158 865 158 865 160 913 c 2,19,-1
 178 1505 l 2,20,21
 179 1549 179 1549 210.5 1576 c 128,-1,22
 242 1603 242 1603 290 1603 c 0,23,24
 332 1603 332 1603 364 1585 c 128,-1,25
 396 1567 396 1567 406 1532 c 1,26,27
 480 1565 480 1565 576 1564 c 0,28,29
 734 1563 734 1563 817 1477 c 0,30,31
 900 1390 900 1390 899 1236 c 2,32,-1
 896 925 l 2,33,34
 895 870 895 870 867 841 c 8,35,36
 829 802 829 802 770 802 c 0,0,1
EndSplineSet
Validated: 33
EndChar

StartChar: minute
Encoding: 547 8242 321
Width: 463
GlyphClass: 2
Flags: W
LayerCount: 2
Fore
SplineSet
273 1590 m 4,0,1
 336 1580 336 1580 363 1532 c 4,2,3
 394 1478 394 1478 378 1418 c 6,4,-1
 319 1204 l 6,5,6
 300 1136 300 1136 266 1107 c 4,7,8
 225 1073 225 1073 166 1085 c 4,9,10
 106 1097 106 1097 79 1143 c 4,11,12
 48 1194 48 1194 62 1251 c 6,13,-1
 115 1466 l 6,14,15
 132 1535 132 1535 169 1565 c 4,16,17
 211 1600 211 1600 273 1590 c 4,0,1
EndSplineSet
Validated: 33
EndChar

StartChar: afii61248
Encoding: 559 8453 323
Width: 1748
GlyphClass: 2
Flags: W
LayerCount: 2
Fore
SplineSet
581 1105 m 0,0,1
 587 1110 587 1110 593 1114 c 0,2,3
 639 1144 639 1144 686 1134 c 0,4,5
 733 1125 733 1125 762 1079 c 0,6,7
 777 1056 777 1056 778 1030 c 0,8,9
 779 1005 779 1005 769 982 c 0,10,11
 758 958 758 958 741 937 c 0,12,13
 724 916 724 916 700 896 c 0,14,15
 588 800 588 800 450 806 c 0,16,17
 236 816 236 816 146 957 c 0,18,19
 80 1060 80 1060 80 1171 c 0,20,21
 80 1323 80 1323 152 1426 c 0,22,23
 229 1537 229 1537 362 1572 c 0,24,25
 482 1604 482 1604 578 1564 c 0,26,27
 700 1513 700 1513 747 1449 c 0,28,29
 775 1409 775 1409 775 1366 c 0,30,31
 775 1323 775 1323 745 1286 c 0,32,33
 719 1255 719 1255 682 1250 c 0,34,35
 646 1246 646 1246 612 1261 c 0,36,37
 578 1276 578 1276 542 1305 c 0,38,39
 480 1357 480 1357 425 1337 c 0,40,41
 361 1314 361 1314 343 1272 c 0,42,43
 326 1234 326 1234 328 1186 c 0,44,45
 330 1154 330 1154 357 1112 c 0,46,47
 390 1059 390 1059 455 1051 c 0,48,49
 501 1045 501 1045 581 1105 c 0,0,1
EndSplineSet
Refer: 131 176 N 0.95884 0 0 0.953585 664 -968 2
Refer: 18 47 N 1 0 0 1 354 0 2
Validated: 33
EndChar

StartChar: afii61289
Encoding: 560 8467 324
Width: 1104
GlyphClass: 2
Flags: W
LayerCount: 2
Fore
SplineSet
1002 176 m 0,0,1
 1017 108 1017 108 993 57.5 c 128,-1,2
 969 7 969 7 907 -12 c 0,3,4
 728 -68 728 -68 596 -23 c 128,-1,5
 464 22 464 22 402 167 c 0,6,7
 341 309 341 309 327 560 c 1,8,9
 265 538 265 538 210 552 c 0,10,11
 153 567 153 567 127 619 c 0,12,13
 97 679 97 679 128.5 730 c 128,-1,14
 160 781 160 781 233 815 c 0,15,16
 282 838 282 838 325 859 c 1,17,18
 332 1052 332 1052 356 1274 c 0,19,20
 385 1544 385 1544 565 1615 c 0,21,22
 695 1666 695 1666 820 1605 c 0,23,24
 1022 1507 1022 1507 1005 1195 c 0,25,26
 994 987 994 987 791 809 c 0,27,28
 717 744 717 744 610 685 c 1,29,30
 612 391 612 391 660 288 c 0,31,32
 673 261 673 261 692 248 c 128,-1,33
 711 235 711 235 745 234 c 0,34,35
 776 233 776 233 830 250 c 0,36,37
 844 254 844 254 856 257 c 0,38,39
 909 268 909 268 950 246.5 c 128,-1,40
 991 225 991 225 1002 176 c 0,0,1
620 1019 m 1,41,42
 739 1119 739 1119 723 1300 c 0,43,44
 720 1331 720 1331 708 1350 c 0,45,46
 699 1363 699 1363 677 1361 c 0,47,48
 665 1360 665 1360 659 1347 c 0,49,50
 653 1335 653 1335 646 1307 c 128,-1,51
 639 1279 639 1279 636 1243 c 0,52,53
 625 1119 625 1119 620 1019 c 1,41,42
EndSplineSet
Validated: 33
EndChar

StartChar: tonos
Encoding: 356 900 325
Width: 1139
GlyphClass: 2
Flags: W
LayerCount: 2
Fore
SplineSet
520 1162 m 1,0,1
 477 1177 477 1177 468 1205 c 0,2,3
 466 1216 466 1216 466 1228 c 0,4,5
 466 1260 466 1260 483 1290 c 1,6,-1
 565 1446 l 2,7,8
 569 1453 569 1453 573 1459 c 0,9,10
 602 1494 602 1494 653 1502 c 0,11,12
 667 1505 667 1505 681 1505 c 0,13,14
 717 1505 717 1505 755 1488 c 0,15,16
 809 1468 809 1468 818 1433 c 0,17,18
 820 1423 820 1423 820 1413 c 0,19,20
 820 1373 820 1373 791 1335 c 1,21,-1
 685 1196 l 2,22,23
 654 1163 654 1163 611 1153 c 0,24,25
 596 1150 596 1150 581 1150 c 0,26,27
 551 1150 551 1150 520 1162 c 1,0,1
EndSplineSet
Validated: 1
EndChar

StartChar: Hbar
Encoding: 229 294 346
Width: 1790
GlyphClass: 2
Flags: W
LayerCount: 2
Fore
SplineSet
1607 1064 m 6,0,-1
 205 1064 l 2,1,2
 134 1064 134 1064 90 1100 c 0,3,4
 46 1136 46 1136 46 1202 c 0,5,6
 46 1271 46 1271 95 1307 c 0,7,8
 144 1344 144 1344 223 1344 c 2,9,-1
 1596 1346 l 6,10,11
 1675 1346 1675 1346 1725 1311 c 4,12,13
 1775 1275 1775 1275 1775 1206 c 4,14,15
 1775 1137 1775 1137 1729 1101 c 4,16,17
 1682 1064 1682 1064 1607 1064 c 6,0,-1
EndSplineSet
Refer: 43 72 N 1 0 0 1 137 0 2
Validated: 5
EndChar

StartChar: hbar
Encoding: 230 295 347
Width: 1183
GlyphClass: 2
Flags: W
LayerCount: 2
Fore
SplineSet
701 1141 m 5,0,1
 674 1138 674 1138 31 1142 c 4,2,3
 -24 1143 -24 1143 -56 1178 c 4,4,5
 -88 1212 -88 1212 -88 1268 c 4,6,7
 -88 1327 -88 1327 -53 1363 c 4,8,9
 -18 1399 -18 1399 40 1399 c 6,10,-1
 692 1401 l 6,11,12
 759 1401 759 1401 802 1368 c 4,13,14
 845 1335 845 1335 846 1273 c 4,15,16
 846 1211 846 1211 805 1177 c 4,17,18
 765 1142 765 1142 701 1141 c 5,0,1
EndSplineSet
Refer: 75 104 N 1 0 0 1 0 0 2
Validated: 37
EndChar

StartChar: kgreenlandic
Encoding: 247 312 360
Width: 1106
GlyphClass: 2
Flags: W
LayerCount: 2
Fore
SplineSet
269 1161 m 1,0,1
 327 1161 327 1161 368 1135 c 0,2,3
 410 1108 410 1108 409 1061 c 2,4,-1
 404 693 l 1,5,-1
 814 1046 l 2,6,7
 846 1073 846 1073 897 1092 c 0,8,9
 933 1105 933 1105 970 1100 c 0,10,11
 1007 1096 1007 1096 1036 1072 c 1,12,13
 1075 1032 1075 1032 1071 986 c 0,14,15
 1062 895 1062 895 1018 856 c 2,16,-1
 760 631 l 1,17,-1
 1062 222 l 2,18,19
 1085 191 1085 191 1102 131 c 0,20,21
 1116 85 1116 85 1110 45 c 0,22,23
 1107 23 1107 23 1078 0 c 0,24,25
 1052 -20 1052 -20 1048 -22 c 0,26,27
 995 -50 995 -50 947 -37 c 0,28,29
 886 -21 886 -21 856 22 c 2,30,-1
 551 461 l 1,31,-1
 394 324 l 5,32,-1
 390 64 l 2,33,34
 389 16 389 16 345 -16 c 0,35,36
 307 -44 307 -44 245 -43 c 0,37,38
 185 -42 185 -42 157 -15 c 0,39,40
 127 14 127 14 128 68 c 2,41,-1
 146 1068 l 2,42,43
 147 1110 147 1110 180 1135 c 0,44,45
 214 1160 214 1160 269 1161 c 1,0,1
EndSplineSet
Validated: 33
EndChar

StartChar: Eng
Encoding: 265 330 365
Width: 1665
GlyphClass: 2
Flags: W
LayerCount: 2
Fore
SplineSet
1266 -120 m 132,-1,1
 1284 -47 1284 -47 1287 72 c 5,2,-1
 390 1077 l 5,3,-1
 369 100 l 6,4,5
 368 33 368 33 326 -5 c 4,6,7
 287 -43 287 -43 223 -42 c 4,8,9
 165 -41 165 -41 133 -0 c 4,10,11
 100 38 100 38 102 98 c 6,12,-1
 134 1382 l 6,13,14
 135 1437 135 1437 169.5 1469.5 c 132,-1,15
 204 1502 204 1502 259 1504 c 4,16,17
 327 1505 327 1505 367 1462 c 6,18,-1
 1299 461 l 5,19,-1
 1326 1411 l 6,20,21
 1327 1466 1327 1466 1365 1499 c 4,22,23
 1400 1532 1400 1532 1456 1533 c 5,24,25
 1518 1533 1518 1533 1555.5 1499 c 132,-1,26
 1593 1465 1593 1465 1591 1406 c 6,27,-1
 1561 91 l 6,28,29
 1548 -493 1548 -493 1234 -515 c 4,30,31
 1077 -527 1077 -527 969 -493 c 4,32,33
 907 -474 907 -474 883.5 -426.5 c 132,-1,34
 860 -379 860 -379 882 -318 c 4,35,36
 903 -259 903 -259 953 -237.5 c 132,-1,37
 1003 -216 1003 -216 1067 -235 c 4,38,39
 1161 -263 1161 -263 1225 -212 c 5,40,0
 1248 -193 1248 -193 1266 -120 c 132,-1,1
EndSplineSet
Validated: 33
EndChar

StartChar: eng
Encoding: 266 331 366
Width: 1072
GlyphClass: 2
Flags: W
LayerCount: 2
Fore
SplineSet
745 102 m 2,0,-1
 745 103 l 1,1,-1
 758 579 l 2,2,3
 762 707 762 707 728.5 763 c 128,-1,4
 695 819 695 819 629 823 c 0,5,6
 504 831 504 831 354 698 c 1,7,-1
 337 110 l 2,8,9
 335 44 335 44 291 1 c 0,10,11
 250 -39 250 -39 189 -38 c 0,12,13
 134 -37 134 -37 101 6 c 0,14,15
 70 45 70 45 71 106 c 2,16,-1
 92 967 l 2,17,18
 93 1021 93 1021 127.5 1057.5 c 128,-1,19
 162 1094 162 1094 218 1094 c 0,20,21
 270 1094 270 1094 310 1063 c 0,22,23
 353 1030 353 1030 360 977 c 1,24,25
 471 1035 471 1035 616 1035 c 0,26,27
 835 1034 835 1034 932 913.5 c 128,-1,28
 1029 793 1029 793 1025 569 c 2,29,-1
 1018 102 l 1,30,-1
 1020 -178 l 2,31,32
 1020 -186 1020 -186 1020 -194 c 0,33,34
 1019 -384 1019 -384 935 -486 c 128,-1,35
 851 -588 851 -588 674 -586 c 0,36,37
 510 -585 510 -585 393 -471 c 0,38,39
 299 -380 299 -380 296 -273 c 0,40,41
 295 -236 295 -236 331 -190 c 0,42,43
 356 -158 356 -158 408 -157 c 0,44,45
 480 -157 480 -157 537 -248 c 0,46,47
 565 -293 565 -293 614 -308 c 0,48,49
 665 -324 665 -324 699 -316 c 0,50,51
 721 -310 721 -310 740 -282 c 0,52,53
 755 -258 755 -258 754 -208 c 0,54,55
 753 -146 753 -146 745 102 c 2,0,-1
EndSplineSet
Validated: 33
EndChar

StartChar: Tbar
Encoding: 293 358 375
Width: 1425
GlyphClass: 2
Flags: W
LayerCount: 2
Fore
SplineSet
303 665 m 4,0,1
 271 703 271 703 272 763 c 4,2,3
 273 827 273 827 305 868 c 4,4,5
 337 909 337 909 395 909 c 6,6,-1
 1053 913 l 6,7,8
 1120 914 1120 914 1159 874 c 4,9,10
 1198 834 1198 834 1198 768 c 4,11,12
 1197 703 1197 703 1157 664 c 4,13,14
 1117 626 1117 626 1051 626 c 6,15,-1
 392 626 l 6,16,17
 335 626 335 626 303 665 c 4,0,1
EndSplineSet
Refer: 55 84 N 1 0 0 1 -2 0 2
Validated: 37
EndChar

StartChar: tbar
Encoding: 294 359 376
Width: 965
GlyphClass: 2
Flags: W
LayerCount: 2
Fore
SplineSet
106 492 m 4,0,1
 76 526 76 526 79 577 c 4,2,3
 82 629 82 629 113 662 c 4,4,5
 144 694 144 694 194 694 c 6,6,-1
 759 696 l 6,7,8
 818 696 818 696 856 666 c 4,9,10
 894 635 894 635 896 579 c 4,11,12
 897 522 897 522 860 490 c 4,13,14
 823 458 823 458 763 458 c 6,15,-1
 186 458 l 6,16,17
 136 458 136 458 106 492 c 4,0,1
EndSplineSet
Refer: 87 116 N 1 0 0 1 0 0 2
Validated: 37
EndChar

StartChar: uF003
Encoding: 603 -1 389
Width: 795
GlyphClass: 2
Flags: W
LayerCount: 2
Fore
SplineSet
337 1252 m 0,0,1
 283 1303 283 1303 246 1430 c 0,2,3
 221 1511 221 1511 243 1586 c 0,4,5
 260 1647 260 1647 315.5 1675 c 128,-1,6
 371 1703 371 1703 450 1694 c 0,7,8
 519 1686 519 1686 556 1645.5 c 128,-1,9
 593 1605 593 1605 589 1544 c 0,10,11
 585 1477 585 1477 529 1433 c 1,12,13
 545 1410 545 1410 565 1382 c 0,14,15
 590 1348 590 1348 599 1315.5 c 128,-1,16
 608 1283 608 1283 596 1251.5 c 128,-1,17
 584 1220 584 1220 549 1199 c 0,18,19
 523 1183 523 1183 495 1180 c 128,-1,20
 467 1177 467 1177 439.5 1186.5 c 128,-1,21
 412 1196 412 1196 386.5 1212.5 c 128,-1,22
 361 1229 361 1229 337 1252 c 0,0,1
EndSplineSet
Validated: 33
EndChar

StartChar: uF004
Encoding: 604 -1 390
Width: 795
GlyphClass: 2
Flags: W
LayerCount: 2
Fore
SplineSet
547 1254 m 0,0,1
 524 1231 524 1231 499.5 1214.5 c 128,-1,2
 475 1198 475 1198 452.085 1189.5 c 128,-1,3
 429.17 1181 429.17 1181 402 1181 c 0,4,5
 369.71 1181 369.71 1181 343 1201 c 0,6,7
 308 1227 308 1227 298.5 1254 c 0,8,9
 287 1285 287 1285 295.5 1318 c 128,-1,10
 304 1351 304 1351 328 1385 c 0,11,12
 347 1412 347 1412 363 1435 c 1,13,14
 310 1478 310 1478 305 1545 c 0,15,16
 301 1607 301 1607 336 1647.5 c 128,-1,17
 371 1688 371 1688 438 1696 c 0,18,19
 514 1704 514 1704 567.5 1676.5 c 128,-1,20
 621 1649 621 1649 637 1588 c 0,21,22
 657 1514 657 1514 634 1432 c 0,23,24
 599 1305 599 1305 547 1254 c 0,0,1
EndSplineSet
Validated: 33
EndChar

StartChar: uF005
Encoding: 605 -1 391
Width: 795
GlyphClass: 2
Flags: W
LayerCount: 2
Fore
SplineSet
400 1626 m 4,0,1
 423 1649 423 1649 447.5 1665.5 c 132,-1,2
 472 1682 472 1682 498 1691.5 c 132,-1,3
 524 1701 524 1701 551.5 1698 c 132,-1,4
 579 1695 579 1695 603 1678 c 4,5,6
 636 1656 636 1656 648 1625.5 c 132,-1,7
 660 1595 660 1595 651.5 1562 c 132,-1,8
 643 1529 643 1529 619 1495 c 4,9,10
 600 1468 600 1468 584 1444 c 5,11,12
 637 1401 637 1401 642 1335 c 4,13,14
 646 1273 646 1273 611 1232 c 132,-1,15
 576 1191 576 1191 509 1184 c 4,16,17
 433 1176 433 1176 379.5 1203.5 c 132,-1,18
 326 1231 326 1231 310 1292 c 4,19,20
 289 1366 289 1366 313 1447 c 5,21,22
 348 1575 348 1575 400 1626 c 4,0,1
EndSplineSet
Validated: 33
EndChar

StartChar: longs
Encoding: 318 383 392
Width: 1041
GlyphClass: 2
Flags: W
LayerCount: 2
Fore
SplineSet
306 776 m 1,0,-1
 306 777 l 1,1,-1
 310 964 l 1,2,3
 317 1264 317 1264 425 1422 c 0,4,5
 541 1590 541 1590 796 1599 c 0,6,7
 819 1600 819 1600 839 1598 c 0,8,9
 907 1593 907 1593 948 1554 c 128,-1,10
 989 1515 989 1515 984 1449 c 0,11,12
 980 1380 980 1380 927.5 1348.5 c 128,-1,13
 875 1317 875 1317 792 1319 c 0,14,15
 743 1320 743 1320 708 1300 c 0,16,17
 655 1272 655 1272 633 1237 c 0,18,19
 609 1194 609 1194 598 1119 c 0,20,21
 589 1060 589 1060 586 953 c 2,22,-1
 581 747 l 2,23,24
 581 741 581 741 579 734 c 2,25,-1
 560 98 l 2,26,27
 558 41 558 41 508 -4 c 0,28,29
 463 -44 463 -44 408 -43 c 0,30,31
 353 -42 353 -42 320 1 c 0,32,33
 289 41 289 41 291 103 c 2,34,-1
 306 776 l 1,0,-1
EndSplineSet
Validated: 33
EndChar

StartChar: Aringacute
Encoding: 320 506 393
Width: 1498
GlyphClass: 2
Flags: W
LayerCount: 2
Fore
SplineSet
748 1484 m 0,0,1
 888 1484 888 1484 939 1346 c 2,2,-1
 1379 175 l 2,3,4
 1382 167 1382 167 1386 154 c 0,5,6
 1397 110 1397 110 1395 73 c 0,7,8
 1392 36 1392 36 1369 7 c 0,9,10
 1346 -23 1346 -23 1306 -36 c 0,11,12
 1245 -55 1245 -55 1196 -17 c 0,13,14
 1146 21 1146 21 1118 91 c 2,15,-1
 966 463 l 1,16,-1
 530 463 l 1,17,-1
 378 91 l 2,18,19
 350 22 350 22 300 -16 c 0,20,21
 251 -54 251 -54 190 -36 c 0,22,23
 146 -22 146 -22 123 12 c 0,24,25
 100 44 100 44 101 86 c 0,26,27
 101 127 101 127 116 175 c 1,28,-1
 555 1346 l 2,29,30
 607 1484 607 1484 748 1484 c 0,0,1
857 752 m 1,31,-1
 748 1044 l 1,32,-1
 637 750 l 1,33,-1
 857 752 l 1,31,-1
EndSplineSet
Refer: 325 900 S 1 0 0 1 141 752 2
Refer: 220 730 N 1 0 0 1 135 190 2
Validated: 37
EndChar

StartChar: radicalex
Encoding: 552 8254 407
Width: 1250
GlyphClass: 2
Flags: W
LayerCount: 2
Fore
SplineSet
-152 1524 m 1,0,1
 -149 1590 -149 1590 -106.5 1627 c 128,-1,2
 -64 1664 -64 1664 4 1664 c 2,3,-1
 1140 1664 l 6,4,5
 1216 1664 1216 1664 1264 1628.5 c 132,-1,6
 1312 1593 1312 1593 1316 1526 c 132,-1,7
 1320 1459 1320 1459 1273.5 1423.5 c 132,-1,8
 1227 1388 1227 1388 1152 1388 c 6,9,-1
 -2 1388 l 2,10,11
 -70 1388 -70 1388 -111.5 1424 c 128,-1,12
 -153 1460 -153 1460 -152 1524 c 1,0,1
EndSplineSet
Validated: 33
EndChar

StartChar: afii08941
Encoding: 556 8356 408
Width: 1625
GlyphClass: 2
Flags: W
LayerCount: 2
Fore
SplineSet
619 406 m 1,0,1
 623 293 623 293 592 227 c 1,2,3
 689 217 689 217 839 152 c 0,4,5
 939 109 939 109 1047 111 c 0,6,7
 1170 115 1170 115 1210 157 c 0,8,9
 1213 160 1213 160 1218 172.5 c 128,-1,10
 1223 185 1223 185 1231 213.5 c 128,-1,11
 1239 242 1239 242 1244 276 c 0,12,13
 1254 330 1254 330 1292 358.5 c 128,-1,14
 1330 387 1330 387 1385 381 c 0,15,16
 1445 374 1445 374 1476.5 333 c 128,-1,17
 1508 292 1508 292 1502 232 c 0,18,19
 1488 45 1488 45 1379 -44 c 0,20,21
 1238 -160 1238 -160 1037 -153 c 0,22,23
 901 -149 901 -149 791 -100 c 0,24,25
 637 -31 637 -31 521 -37 c 0,26,27
 478 -39 478 -39 411 -74 c 0,28,29
 394 -83 394 -83 378 -89 c 0,30,31
 346 -103 346 -103 316.5 -108.5 c 128,-1,32
 287 -114 287 -114 259 -111 c 128,-1,33
 231 -108 231 -108 209 -91.5 c 128,-1,34
 187 -75 187 -75 175 -46 c 0,35,36
 160 -12 160 -12 164 23.5 c 128,-1,37
 168 59 168 59 190 86 c 0,38,39
 203 105 203 105 225 124 c 0,40,41
 354 240 354 240 349 406 c 1,42,-1
 235 406 l 2,43,44
 177 406 177 406 145.5 445 c 128,-1,45
 114 484 114 484 114 545 c 0,46,47
 114 608 114 608 148 648 c 0,48,49
 183 688 183 688 244 688 c 2,50,-1
 305 688 l 1,51,52
 297 728 297 728 290 770 c 1,53,-1
 187 770 l 2,54,55
 129 770 129 770 97.5 809.5 c 128,-1,56
 66 849 66 849 66 910 c 0,57,58
 66 973 66 973 100 1013 c 0,59,60
 135 1054 135 1054 196 1054 c 2,61,-1
 257 1054 l 1,62,63
 263 1219 263 1219 415 1396 c 0,64,65
 589 1599 589 1599 821 1611 c 0,66,67
 1176 1630 1176 1630 1316 1438 c 0,68,69
 1415 1303 1415 1303 1366 1223 c 0,70,71
 1339 1178 1339 1178 1299 1157 c 128,-1,72
 1259 1136 1259 1136 1213 1149 c 0,73,74
 1196 1153 1196 1153 1181.5 1163.5 c 128,-1,75
 1167 1174 1167 1174 1152.5 1193.5 c 128,-1,76
 1138 1213 1138 1213 1128.5 1228 c 128,-1,77
 1119 1243 1119 1243 1101 1274 c 0,78,79
 1042 1376 1042 1376 849 1353 c 0,80,81
 698 1336 698 1336 616 1256 c 0,82,83
 529 1173 529 1173 521 1068 c 0,84,85
 520 1062 520 1062 521 1055 c 1,86,-1
 778 1056 l 2,87,88
 848 1056 848 1056 891 1019 c 128,-1,89
 934 982 934 982 934 914 c 0,90,91
 934 847 934 847 893 808 c 0,92,93
 852 770 852 770 784 770 c 2,94,-1
 552 770 l 1,95,96
 559 731 559 731 568 690 c 1,97,98
 697 690 697 690 826 690 c 0,99,100
 896 691 896 691 939 653.5 c 128,-1,101
 982 616 982 616 982 549 c 128,-1,102
 982 482 982 482 941 443 c 0,103,104
 900 406 900 406 832 406 c 2,105,-1
 619 406 l 1,0,1
EndSplineSet
Validated: 33
EndChar

StartChar: estimated
Encoding: 565 8494 409
Width: 1125
GlyphClass: 2
Flags: W
LayerCount: 2
Fore
SplineSet
1063 534 m 1,0,-1
 251 533 l 1,1,-1
 251 182 l 1,2,3
 444 43 444 43 562 43 c 0,4,5
 681 43 681 43 768 79 c 0,6,7
 868 120 868 120 923 181 c 1,8,-1
 1036 179 l 1,9,10
 915 -22 915 -22 565 -20 c 0,11,12
 346 -19 346 -19 210 116 c 0,13,14
 59 267 59 267 59 523 c 0,15,16
 59 788 59 788 220 948 c 0,17,18
 364 1091 364 1091 568 1091 c 0,19,20
 818 1091 818 1091 955 891 c 0,21,22
 1063 733 1063 733 1063 534 c 1,0,-1
879 606 m 1,23,-1
 879 871 l 1,24,25
 735 1027 735 1027 567 1026 c 1,26,27
 394 1026 394 1026 251 871 c 1,28,-1
 251 606 l 1,29,-1
 879 606 l 1,23,-1
EndSplineSet
Validated: 33
EndChar

StartChar: fiveeighths
Encoding: 568 8541 412
Width: 1333
GlyphClass: 2
Flags: W
LayerCount: 2
Fore
SplineSet
358 1104 m 0,0,1
 374 1118 374 1118 384 1128 c 0,2,3
 406 1150 406 1150 466 1140 c 0,4,5
 508 1133 508 1133 537 1093 c 0,6,7
 565 1056 565 1056 654 1053 c 0,8,9
 694 1052 694 1052 743 1081 c 0,10,11
 788 1108 788 1108 792 1162 c 0,12,13
 795 1200 795 1200 787 1221 c 0,14,15
 773 1259 773 1259 717 1270 c 0,16,17
 657 1281 657 1281 599 1243 c 0,18,19
 568 1223 568 1223 507 1211 c 0,20,21
 491 1208 491 1208 458 1206 c 0,22,23
 446 1205 446 1205 432 1206 c 0,24,25
 377 1211 377 1211 351 1252 c 0,26,27
 324 1293 324 1293 330 1342 c 2,28,-1
 363 1629 l 1,29,-1
 364 1632 l 2,30,31
 374 1670 374 1670 404 1692 c 0,32,33
 435 1714 435 1714 475 1714 c 2,34,-1
 861 1718 l 2,35,36
 919 1719 919 1719 956 1686 c 0,37,38
 992 1654 992 1654 994 1597 c 0,39,40
 994 1545 994 1545 958 1517 c 0,41,42
 921 1488 921 1488 866 1488 c 2,43,-1
 581 1488 l 1,44,-1
 577 1438 l 1,45,46
 631 1456 631 1456 710 1456 c 0,47,48
 851 1456 851 1456 943 1374 c 0,49,50
 1010 1316 1010 1316 1018 1222 c 0,51,52
 1030 1060 1030 1060 933 949 c 0,53,54
 853 856 853 856 666 850 c 0,55,56
 453 843 453 843 377 940 c 0,57,58
 354 969 354 969 342 999 c 0,59,60
 331 1029 331 1029 333 1051 c 0,61,62
 337 1085 337 1085 358 1104 c 0,0,1
EndSplineSet
Refer: 2 -1 N 1 0 0 1 -51 0 2
Refer: 589 -1 N 1 0 0 1 0 0 2
Validated: 33
EndChar

StartChar: seveneighths
Encoding: 569 8542 413
Width: 1333
GlyphClass: 2
Flags: W
LayerCount: 2
Fore
SplineSet
641 875 m 16,0,1
 596 859 596 859 547 885 c 0,2,3
 500 910 500 910 489 958 c 0,4,5
 479 1004 479 1004 508 1049 c 0,6,-1
 798 1501 l 1,7,-1
 511 1501 l 2,8,9
 454 1501 454 1501 416 1528 c 0,10,11
 378 1555 378 1555 378 1605 c 0,12,13
 378 1656 378 1656 416 1683 c 0,14,15
 454 1710 454 1710 513 1710 c 2,16,-1
 968 1712 l 2,17,18
 1026 1712 1026 1712 1066 1687 c 0,19,20
 1097 1668 1097 1668 1109 1613 c 8,21,22
 1114 1585 1114 1585 1096 1552 c 17,23,-1
 722 948 l 10,24,25
 687 892 687 892 641 875 c 16,0,1
EndSplineSet
Refer: 2 -1 N 1 0 0 1 -52 0 2
Refer: 589 -1 N 1 0 0 1 0 0 2
Validated: 33
EndChar

StartChar: dieresistonos
Encoding: 357 901 414
Width: 1264
GlyphClass: 2
Flags: W
LayerCount: 2
Fore
SplineSet
1020 1412 m 4,0,1
 1093 1412 1093 1412 1139 1378 c 4,2,3
 1186 1343 1186 1343 1186 1277 c 4,4,5
 1186 1212 1186 1212 1139 1178 c 4,6,7
 1092 1144 1092 1144 1018 1144 c 4,8,9
 948 1144 948 1144 904 1177 c 4,10,11
 860 1211 860 1211 860 1274 c 4,12,13
 860 1340 860 1340 904 1376 c 4,14,15
 949 1412 949 1412 1020 1412 c 4,0,1
255 1412 m 4,16,17
 328 1412 328 1412 374 1378 c 4,18,19
 420 1343 420 1343 420 1277 c 4,20,21
 420 1212 420 1212 374 1178 c 4,22,23
 327 1144 327 1144 253 1144 c 4,24,25
 183 1144 183 1144 139 1177 c 4,26,27
 94 1211 94 1211 94 1274 c 4,28,29
 94 1340 94 1340 139 1376 c 4,30,31
 184 1412 184 1412 255 1412 c 4,16,17
EndSplineSet
Refer: 325 900 S 1 0 0 1 15 0 2
Validated: 1
EndChar

StartChar: Lambda
Encoding: 377 923 430
Width: 1412
GlyphClass: 2
Flags: W
LayerCount: 2
Fore
SplineSet
1239 -52 m 0,0,1
 1185 -43 1185 -43 1156 24 c 2,2,-1
 721 1070 l 1,3,-1
 285 24 l 2,4,5
 284 21 284 21 280 15 c 0,6,7
 250 -36 250 -36 194 -54 c 0,8,9
 150 -68 150 -68 77 -45 c 0,10,11
 39 -33 39 -33 24 -11 c 0,12,13
 6 14 6 14 9 56 c 0,14,15
 11 102 11 102 30 147 c 2,16,-1
 567 1464 l 2,17,18
 584 1505 584 1505 629 1532 c 0,19,20
 666 1554 666 1554 721 1554 c 0,21,22
 777 1554 777 1554 812 1532 c 0,23,24
 858 1503 858 1503 874 1464 c 2,25,-1
 1411 147 l 2,26,27
 1426 111 1426 111 1431 47 c 0,28,29
 1433 19 1433 19 1417 -11 c 0,30,31
 1401 -42 1401 -42 1369 -47 c 0,32,33
 1285 -59 1285 -59 1239 -52 c 0,0,1
EndSplineSet
Validated: 33
EndChar

StartChar: Xi
Encoding: 380 926 433
Width: 1475
GlyphClass: 2
Flags: W
LayerCount: 2
Fore
SplineSet
73 17 m 128,-1,1
 32 53 32 53 31 116 c 0,2,3
 30 185 30 185 69.5 226 c 128,-1,4
 109 267 109 267 177 267 c 2,5,-1
 1192 267 l 2,6,7
 1270 267 1270 267 1317 227 c 128,-1,8
 1364 187 1364 187 1361 115 c 0,9,10
 1359 49 1359 49 1310 15.5 c 128,-1,11
 1261 -18 1261 -18 1186 -18 c 2,12,-1
 181 -19 l 2,13,0
 114 -19 114 -19 73 17 c 128,-1,1
190.5 663.5 m 128,-1,15
 146 699 146 699 148 765.5 c 128,-1,16
 150 832 150 832 195.5 868 c 128,-1,17
 241 904 241 904 317 904 c 2,18,-1
 995 904 l 2,19,20
 1082 904 1082 904 1130 869 c 128,-1,21
 1178 834 1178 834 1179 768 c 0,22,23
 1180 698 1180 698 1133 663 c 0,24,25
 1082 626 1082 626 998 626 c 2,26,-1
 310 628 l 2,27,14
 235 628 235 628 190.5 663.5 c 128,-1,15
73 1256 m 128,-1,29
 32 1292 32 1292 31 1355 c 0,30,31
 30 1424 30 1424 69.5 1465 c 128,-1,32
 109 1506 109 1506 177 1506 c 2,33,-1
 1192 1506 l 2,34,35
 1270 1506 1270 1506 1317 1466.5 c 128,-1,36
 1364 1427 1364 1427 1361 1355 c 0,37,38
 1359 1289 1359 1289 1310 1255.5 c 128,-1,39
 1261 1222 1261 1222 1186 1222 c 2,40,-1
 181 1220 l 2,41,28
 114 1220 114 1220 73 1256 c 128,-1,29
EndSplineSet
Validated: 33
EndChar

StartChar: Pi
Encoding: 382 928 435
Width: 1860
GlyphClass: 2
Flags: W
LayerCount: 2
Fore
SplineSet
116 1315 m 128,-1,1
 74 1353 74 1353 74 1421 c 0,2,3
 73 1490 73 1490 115 1529.5 c 128,-1,4
 157 1569 157 1569 226 1569 c 2,5,-1
 1624 1569 l 6,6,7
 1699 1569 1699 1569 1746.5 1532.5 c 132,-1,8
 1794 1496 1794 1496 1795 1426 c 4,9,10
 1796 1354 1796 1354 1749.5 1315.5 c 132,-1,11
 1703 1277 1703 1277 1627 1277 c 6,12,-1
 1604 1277 l 5,13,14
 1607 712 1607 712 1607 105 c 4,15,16
 1607 42 1607 42 1570 4 c 4,17,18
 1531 -37 1531 -37 1463 -39 c 4,19,20
 1399 -41 1399 -41 1357 -1 c 4,21,22
 1317 36 1317 36 1317 99 c 6,23,-1
 1308 1277 l 5,24,-1
 609 1277 l 1,25,26
 612 688 612 688 612 105 c 0,27,28
 612 45 612 45 572.5 4 c 128,-1,29
 533 -37 533 -37 466 -39 c 0,30,31
 402 -41 402 -41 359 -1 c 0,32,33
 319 36 319 36 319 99 c 2,34,-1
 310 1277 l 1,35,-1
 227 1277 l 2,36,0
 158 1277 158 1277 116 1315 c 128,-1,1
EndSplineSet
Validated: 33
EndChar

